<?xml version="1.0" encoding="utf-8"?>
<!-- Generator: Adobe Illustrator 24.0.2, SVG Export Plug-In . SVG Version: 6.00 Build 0)  -->
<svg version="1.1" id="Layer_1" xmlns="http://www.w3.org/2000/svg" xmlns:xlink="http://www.w3.org/1999/xlink" x="0px" y="0px"
	 viewBox="0 0 635 435" style="enable-background:new 0 0 635 435;" xml:space="preserve">
<style type="text/css">
	.st0{display:none;fill:#E8ECF8;}
	.st1{display:none;}
	.st2{display:inline;}
	.st3{opacity:0.6;fill:#EFDDDC;}
	.st4{fill:#EDDCDA;}
	.st5{fill:#2C1D1B;}
	.st6{fill:#3F2A28;}
	.st7{fill:#FFB65F;}
	.st8{fill:#F9BBA7;}
	.st9{fill:#FFC9B6;}
	.st10{fill:#F98F38;}
	.st11{fill:#DEC9C5;}
	.st12{fill:#F4EBEA;}
	.st13{fill:#FF5E4C;}
	.st14{fill:#EF4335;}
	.st15{fill:#FF7469;}
	.st16{fill:#FFB9A4;}
	.st17{fill:#F9F4F4;}
	.st18{fill:#513937;}
	.st19{fill:#74CACE;}
	.st20{fill:#53B7B7;}
	.st21{fill:#FF9E55;}
	.st22{fill:#FFFFFF;}
	.st23{fill:#3F2A2A;}
	.st24{fill:#778DFD;}
	.st25{fill:#5E4443;}
	.st26{fill:#472F2E;}
	.st27{fill:#8DA3FF;}
	.st28{fill:#42A8A5;}
	.st29{fill:#8DE0E0;}
	.st30{opacity:0.5;fill:#FF5E4C;enable-background:new    ;}
	.st31{fill:#FF908A;}
</style>
<rect y="0" class="st0" width="635" height="435"/>
<g class="st1">
	<g class="st2">
		
			<image style="overflow:visible;enable-background:new    ;" width="1233" height="796" xlink:href="5A2E912C.png"  transform="matrix(0.4794 0 0 0.4794 22.5369 28.4305)">
		</image>
	</g>
</g>
<g>
	<path class="st3" d="M566.2,332.4l-19.3,11.1c-2.5,1.4-6.9,1.3-9.7-0.4L518.1,332c-2.9-1.7-3.2-4.2-0.7-5.6l19.3-11.1
		c2.5-1.4,6.9-1.3,9.7,0.4l19.1,11.1C568.4,328.5,568.7,331,566.2,332.4z"/>
	<path class="st3" d="M420.5,245.8l-19.3,11.1c-2.5,1.4-6.9,1.3-9.7-0.4l-19.1-11.1c-2.9-1.7-3.2-4.2-0.7-5.6l19.3-11.1
		c2.5-1.4,6.9-1.3,9.7,0.4l19.1,11.1C422.7,241.8,423,244.3,420.5,245.8z"/>
	<path class="st3" d="M403,332.1l-19.3,11.1c-2.5,1.4-6.9,1.3-9.7-0.4l-19.1-11.1c-2.9-1.7-3.2-4.2-0.7-5.6l19.3-11.1
		c2.5-1.4,6.9-1.3,9.7,0.4l19.1,11.1C405.2,328.1,405.5,330.6,403,332.1z"/>
	<path class="st3" d="M571,259.8l-19.1-11.1c-2.9-1.7-7.3-1.8-9.7-0.4l-19.3,11.1c-0.4,0.2-0.6,0.4-0.9,0.7
		c-14.5-8.2-35-13.3-57.8-13.3c-43.8,0-79.3,18.9-79.3,42.2c0,6.6,2.8,12.8,7.8,18.3c-10.1,5-5.9,8.6-2.2,10c4,1.5,9.2,3.6,13.3,7.3
		c3.3,3,9,8.1,11.3,10.3c2.3,2.2,7.7,1.3,13.6-2.4c2.4-1.5,4.1-3.1,5.2-4.4c9.3,2.1,19.6,3.2,30.3,3.2c43.8,0,79.3-18.9,79.3-42.2
		c0-5.5-2-10.8-5.6-15.6l4.8,2.8c2.9,1.7,7.3,1.8,9.7,0.4l19.3-11.1C574.1,264,573.8,261.4,571,259.8z"/>
	<g>
		<g>
			<path class="st4" d="M506.9,131.4c0,0-3,1.5-4.6,3.6s-2.6,5.5-1.9,7.6c-1.9,5.3-2.7,6.6-2.5,10.2c-3.3-2.3-9.3-1.1-9.3-1.1
				s0.4,1.5,0,2.7c-0.6,1.9-1.5,2.5-1.5,2.5c1,1,3.1,3.4,6.9,3.8c3.8,0.4,6.8,0.9,7.6,0.1c1.8-1.8,10.8-25.7,10.8-25.7L506.9,131.4z
				"/>
			<path class="st5" d="M501.9,164.4c0,0-4.8,12.2-5.5,17.2c-0.7,4.9-2.2,12.4-3.1,18.7c-0.9,6.2-0.9,12.3-0.5,18.4
				c0.2,2.4,1,8.7,0.6,12.2c0.5,2.2,5.8,2.5,6.4-0.1c0.4-1.6,4.4-15.9,4.8-20.3c0.4-4.5-0.7-7.7-0.7-7.7s6.5-14,8.8-19.5
				s0.7-12.3,0.7-12.3L501.9,164.4z"/>
			<path class="st5" d="M499.7,230.1c0,0,0.2,1.5,0.6,3c0.5,1.5-0.1,3.7-0.1,3.7s-0.3,0.9-1.8,1.2c-1.3,0.3-2.4-0.1-2.4-0.1
				s-1.3,1.6-3,2.8s-5.5,2.1-6.5,2c-1.7-0.3-2.5-1.5-2.4-2.4c0.1-0.8,2.1-3.1,3.7-4.1c1-0.6,3.4-2.8,4.1-3.6c1.2-1.3,2-2.7,2-2.7
				L499.7,230.1z"/>
			<path class="st5" d="M524.3,242.7c0,0,0.9,3.3,0.8,5.2s-0.6,2.4-1.1,3c-0.6,0.6-1.2,0.4-1.2,0.4s-0.3,3.9-2.1,5.5
				c-1.9,1.6-5.2,1.7-6.8,1.2c-1.5-0.6-0.5-3.4,1-6.1c1.5-2.8,3.4-5.7,3.9-8.2C522.4,243,524.3,242.7,524.3,242.7z"/>
			<path class="st6" d="M519.1,169.4c0,0,2.3,3.3,4.2,9.2c1.3,4.1,1.1,14,1.1,14s0.3,9.7-0.3,13c-0.6,3.4-0.6,4-0.6,4
				s2.7,8,2.3,17.5s-1.2,16.3-1.2,16.3s-0.5,1.8-3,2c-2.2,0.2-3.8-1.3-3.8-1.3s-4.1-20.1-5.6-24.7c-1.5-4.6-2.1-9.9-2.1-9.9
				l-3.1-22.6c0,0-6.1-4-3-14C506.1,166.7,519.1,169.4,519.1,169.4z"/>
			<path class="st7" d="M527,143.7c-3-6-12.1-10.3-18.7-9.4c-3.1,2.5-4.6,4.2-5.7,7.2c-1,2.7-1.5,5.9-1.1,8.7c1,8.5-1,16.8-1.8,20
				c3.5,3.6,8.1,6,13.2,6.9c2.8,0.5,4.8-0.6,7.5-1.6c0.4-0.1,0.6-0.4,0.6-0.8c0.9-6.9,3.3-12.6,5.7-19
				C527.9,152.2,528.7,147.2,527,143.7z"/>
			<path class="st8" d="M510.2,130.6c0,0,0.6,4.1-0.9,5.6c-1.5,1.4-1.5,4.4,1.5,5.4c3.7,1.2,6.3-1.5,8.6-3.3c-1-2.1-1.5-2.1-1.5-8
				C518,125.5,510.2,130.6,510.2,130.6z"/>
			<path class="st4" d="M530.6,148c-0.2-5.2-5.9-7.4-5.9-7.4s-4.1,3.3-3.5,14.4c0.2,1,1.8,2,2.3,3.1c-0.2,4.3,0.8,6.4,2.4,8.5
				c-1.4,0.9-4.8,6.4-6.9,9.1c3,0.9,3,4.3,3,4.3s7.7-3.5,11.7-8.3c1.6-2,1.1-3.8,1.7-6C536.5,161.5,530.8,152.6,530.6,148z"/>
			<path class="st4" d="M518.1,134.2c0,0-0.7,2.5-2.6,3.9c-2.3,1.7-6.6,2-6.6,3.2c1.3,0,1.5,0.1,1.5,1c0,1.7,0.5,2.1,0.5,2.1
				s3.1-0.9,5.4-1.8c2.8-1.2,4.1-5.1,4.1-5.1S519.8,134,518.1,134.2z"/>
			<path class="st4" d="M508.9,134.3c0,0-1.8,2-2.6,2.9c-0.8,0.9-0.3,2.6-0.7,3.4c-0.4,0.8-0.6,1.3-0.6,1.3s1.6-0.3,1.9-1.3
				c0.3-0.9,1.9,0.8,1.9,0.8l1.2-0.9c0,0-1.7-1.1-1.2-2.3c0.6-1.2,1.6-2.8,1.6-2.8L508.9,134.3z"/>
			<g>
				<path class="st9" d="M516.9,120.4c-2.3-2.5-8.3-3.6-10.5,0.1c-1.6,2.8-1.7,7.7-1.3,10c0.9,4.8,4.9,7.6,9.4,4
					C518.9,131,520.9,124.7,516.9,120.4z"/>
				<path class="st5" d="M521.9,123.5c-0.4-1.6-2.5-3.8-4.4-3.3c0.4-1.8-0.5-3.9-2.3-4.4c-3.9-1.2-7.5,1.3-11.3,2.1
					c-1.1,0.2-1.4,0.8,0.5,2c-1,0.1-2,0.7-1.8,1.8c0.1,0.8,0.7,1.2,1.3,1.4c-1.1,1.5,0.5,2.8,1.9,3.4c2.4,1,5.7,0.9,7.8-0.6
					c0.5,2.2,2.5,5.1,4.5,5.7C520,129.9,522.4,125.9,521.9,123.5z"/>
				<path class="st9" d="M514.5,128.9c0,0,1.3-2,2.5-0.5s-1.2,3-1.2,3L514.5,128.9z"/>
			</g>
			<path class="st9" d="M519,175.6c-1.8,0.6-3.8,4.3-2.5,7c1.4,2.7,3.7,2.9,6.5,2.3c2.8-0.6,1.3-1.7,0.5-2c-1-0.3-2,0-2,0
				s0.9-2.3,0.9-3.8C522.5,177.2,521,174.9,519,175.6z"/>
			<path class="st9" d="M489.2,152.4c0,0-3.9-5-5.6-7.5c-1.2-1.7-2.3-1.7-2.3-0.8c0,0.4,0.3,0.7,0.9,1.6c0.6,0.9,1.5,2.3,1.5,2.3
				s-1.1,2.6-1.9,4s0.9,2,1.7,2.7c0.8,0.7,2.8,1.9,4.4,2.3C489.4,157.3,490.6,155,489.2,152.4z"/>
			<path class="st10" d="M506.8,170.8c0.5,0,2.9,2,5.5,2.4c2.9,0.4,4.2-0.3,5.3-0.8c-0.7,0-2.5,0.3-5.2-0.4
				C509.8,171.3,506.8,170.8,506.8,170.8z"/>
		</g>
		<g>
			<path class="st11" d="M569,252.7c-3-2-6.1-3.8-9.1-5.7c-1.7-1.1-3.6-2.7-5.5-3.4c-0.8-0.3-1.7-0.3-2.2,0.5c-0.6,1,0.1,1.5,0.9,2
				c2.1,1.2,4.3,2.4,6.4,3.6c3.2,1.8,6.3,3.7,9.4,5.7L569,252.7z"/>
			<path class="st11" d="M549.8,246.2c-0.4-0.8-1.4-0.9-2.2-0.7c-2,0.5-3.9,2-5.7,3c-3.9,2.1-8.1,4.1-11.8,6.6v2.5
				c4-2.2,8.1-4.3,12.2-6.4c2.2-1.1,4.4-2.1,6.6-3.2C549.6,247.7,550.3,247.2,549.8,246.2z"/>
			<path class="st11" d="M553.1,225.1c0-3.3,0.7-17.2,1.2-20.7c0.5-3.3,1.1-6.6,1.7-9.8c0.4-2,2.9-12.2-0.3-10.7
				c-1.2,0.6-2,2.6-2.4,4.5c-0.7,2.8-1.2,5.9-1.5,8.9c-0.8,6.5-1.4,20.6-0.8,27.3C550.9,225.2,553.1,225.2,553.1,225.1z"/>
			<path class="st12" d="M571,215.3c0.3-2.5,0.9-5,1.4-7.4c0.6-2.9,1.3-5.7,2.4-8.5c0.2-0.4,0.4-0.8,0.6-1.2c-1.1-0.7-9.7-6-13.4-8
				c-4.9-2.5-6-3.1-6.4-2.3c-2.2,4.4-3.5,11.7-3.6,16.6c0,0.5,0,1.3,2.8,2.7c5.5,2.7,15.1,9,16.1,9.4
				C570.9,216.3,570.9,215.5,571,215.3z"/>
			<path class="st13" d="M574.1,199.4c-0.2-1.6-18.7-11.7-20.2-11.5c-2.4,0.4-5.2,12.4-2.7,15c2.3,2.4,15.9,10.3,19.4,11.6
				c0.3,0.1,0.6-0.1,0.6-0.4c0.7-2.7,1.3-5.3,1.8-8C573.4,204,574.3,201.4,574.1,199.4z"/>
			<path class="st14" d="M572,197.8c-1.8-1.7-3.4,4.5-3.6,5.3c-0.7,2.9-2.3,9,1.1,11c0.6,0.4,1.1,0.4,1.6-0.3
				c0.5-0.9,0.5-2.3,0.6-3.3c0.2-1.3,0.4-2.7,0.7-4c0.4-2.2,1.1-4.7,1.1-6.9C573.3,198.6,572.9,197.9,572,197.8z"/>
			<path class="st4" d="M569,236.1h2.2l0.3-1.1c0-2.9,1.3-16.1,1.8-19.7c0.5-3.3,1.1-6.6,1.7-9.8c0.4-2,2.9-12.2-0.3-10.7
				c-1.2,0.6-2,2.6-2.4,4.5c-0.7,2.8-1.2,5.9-1.5,8.9c-0.8,6.5-2.2,18.9-1.6,25.6C569,234.4,568.9,235.7,569,236.1z"/>
			<path class="st4" d="M572.1,253.1c-0.2-6.5-0.7-12.9-1.5-19.2c0-0.3-0.2-0.4-0.4-0.3c-0.5,0.4-1,0.7-1.5,1.1
				c-0.1,0-0.1,0.1-0.1,0.2c-0.1-0.2-0.3-0.2-0.3,0.1c-0.5,6.7-0.6,13.5-0.8,20.3c-0.1,3.1-1.3,8.1,2.7,8
				C573.2,263.3,572.2,256.1,572.1,253.1z"/>
			<path class="st4" d="M527.7,255.2c0.2-6.5,0.7-12.9,1.5-19.2c0-0.3,0.2-0.4,0.4-0.3c0.5,0.4,1,0.7,1.5,1.1c0.1,0,0.1,0.1,0.1,0.2
				c0.1-0.2,0.3-0.2,0.3,0.1c0.5,6.7,0.6,13.5,0.8,20.3c0.1,3.1,1.3,8.1-2.7,8C526.6,265.4,527.6,258.1,527.7,255.2z"/>
			<path class="st11" d="M569.6,255.9c-0.4-0.8-1.4-0.9-2.2-0.7c-2,0.5-3.9,2-5.7,3c-3.9,2.1-8.1,4.1-11.8,6.6v2.5
				c4-2.2,8.1-4.3,12.2-6.4c2.2-1.1,4.4-2.1,6.6-3.2C569.4,257.4,570.1,256.9,569.6,255.9z"/>
			<path class="st11" d="M547.2,264.5c-3-2-6.1-3.8-9.1-5.7c-1.7-1.1-3.6-2.7-5.5-3.4c-0.8-0.3-1.7-0.3-2.2,0.5
				c-0.6,1,0.1,1.5,0.9,2c2.1,1.2,4.3,2.4,6.4,3.6c3.2,1.8,6.3,3.7,9.4,5.7L547.2,264.5z"/>
			<path class="st4" d="M549.9,247.1l-2.6-2.1c-0.5,6.7-1.1,15.9-1.3,22.6c-0.1,3.1-1.3,8.1,2.7,8c3,0,2-7.3,1.9-10.3
				C550.4,259.3,550.6,253.1,549.9,247.1z"/>
			<g>
				<path class="st11" d="M571.6,233.4h-2.2l-14-8.1c-1.9-1.1-5.2-0.9-7.3,0.3l-16.3,9.4l-3.1,0.3v2.6c0,0.1,0,0.2,0,0.3v0.3l0,0
					c0.1,0.6,0.5,1.1,1.2,1.5l15,8.6c1.9,1.1,5.2,0.9,7.3-0.3l17.6-10.1c1.3-0.7,1.8-1.7,1.8-2.6l0,0
					C571.6,235.6,571.6,233.7,571.6,233.4z"/>
				<path class="st12" d="M544.9,245.8l-15-8.6c-1.9-1.1-1.6-3,0.5-4.2l17.6-10.1c2.2-1.2,5.5-1.4,7.3-0.3l15,8.6
					c1.9,1.1,1.6,3-0.5,4.2l-17.6,10.1C550,246.7,546.7,246.9,544.9,245.8z"/>
			</g>
			<g>
				<path class="st13" d="M539.5,238c3.5,1.9,7.4,4.9,11.6,3.6c3.6-1.2,7.1-3.7,10.3-5.7c2.2-1.4,4.3-2.8,6-4.7
					c-1.1-1.6-3.1-2.9-4.4-3.8c-3.4-2.4-12.5-7-13.7-6.9c-0.5,0-1.1,0.1-1.7,0.3c-2.2,0.6-4.6,1.8-6.5,2.7c-2.9,1.3-5.6,2.8-8,4.9
					c-0.8,0.6-1.8,1.4-2.3,2.3C530.8,234.4,536.7,236.5,539.5,238z"/>
				<path class="st14" d="M530.7,235.8c2.2,1.6,6.1,3.2,8.1,4.4c2.1,1.3,6.2,4.2,8.5,4.7c1.4,0.3,4-0.3,5.8-1.2
					c2.6-1.3,5.1-2.9,7.7-4.4c2.1-1.2,5-2.3,6.6-4.2c1.1-1.4,0.8-2.8-0.1-4c-1.6,1.9-3.8,3.3-6,4.7c-3.2,2-6.6,4.5-10.3,5.7
					c-4.1,1.3-8.1-1.7-11.6-3.6c-2.8-1.5-8.7-3.6-8.8-7.3c-0.1,0.1-0.1,0.2-0.2,0.3C530,232.2,529.6,235,530.7,235.8z"/>
			</g>
			<path class="st15" d="M548.6,232.4c-0.5-2.1,0.3-3.7,0.6-5.7c0.8-6-9.8-0.7-10.9,0.2c-1.2,1-4.2,2.9-4.1,4.8c0.1,2,3.5,3.5,5,4.3
				c2.2,1.1,5.4,2.9,7.9,2.9c1.5,0,2.9-1.4,2.8-3.2C549.9,234.5,548.9,233.5,548.6,232.4z"/>
			<path class="st15" d="M559.3,190.9c-1.9-1.1-4.9-2.9-6-2.2c-0.8,0.6,1,1.4,1.8,1.9c1.6,1.1,3.2,2,4.9,2.9
				c3.1,1.6,5.5,2.9,8.8,4.1c1,0.4,1.7-0.4,0.8-0.9C567.2,195.3,562.4,192.8,559.3,190.9z"/>
		</g>
		<g>
			<path class="st11" d="M377,232.8c3-2,6.1-3.8,9.1-5.7c1.7-1.1,3.6-2.7,5.5-3.4c0.8-0.3,1.7-0.3,2.2,0.5c0.6,1-0.1,1.5-0.9,2
				c-2.1,1.2-4.3,2.4-6.4,3.6c-3.2,1.8-6.3,3.7-9.4,5.7L377,232.8z"/>
			<path class="st11" d="M396.2,226.4c0.4-0.8,1.4-0.9,2.2-0.7c2,0.5,3.9,2,5.7,3c3.9,2.1,8.1,4.1,11.8,6.6v2.5
				c-4-2.2-8.1-4.3-12.2-6.4c-2.2-1.1-4.4-2.1-6.6-3.2C396.4,227.9,395.7,227.4,396.2,226.4z"/>
			<path class="st11" d="M392.8,205.3c0-3.3-0.7-17.2-1.2-20.7c-0.5-3.3-1.1-6.6-1.7-9.8c-0.4-2-2.9-12.2,0.3-10.7
				c1.2,0.6,2,2.6,2.4,4.5c0.7,2.8,1.2,5.9,1.5,8.9c0.8,6.5,1.4,20.6,0.8,27.3C395.1,205.3,392.8,205.3,392.8,205.3z"/>
			<path class="st12" d="M375,195.4c-0.3-2.5-0.9-5-1.4-7.4c-0.6-2.9-1.3-5.7-2.4-8.5c-0.2-0.4-0.4-0.8-0.6-1.2
				c1.1-0.7,9.7-6,13.4-8c4.9-2.5,6-3.1,6.4-2.3c2.2,4.4,3.5,11.7,3.6,16.6c0,0.5,0,1.3-2.8,2.7c-5.5,2.7-15.1,9-16.1,9.4
				C375.1,196.4,375,195.7,375,195.4z"/>
			<path class="st13" d="M371.9,179.5c0.2-1.6,18.7-11.7,20.2-11.5c2.4,0.4,5.2,12.4,2.7,15c-2.3,2.4-15.9,10.3-19.4,11.6
				c-0.3,0.1-0.6-0.1-0.6-0.4c-0.7-2.7-1.3-5.3-1.8-8C372.5,184.2,371.6,181.6,371.9,179.5z"/>
			<path class="st14" d="M373.9,177.9c1.8-1.7,3.4,4.5,3.6,5.3c0.7,2.9,2.3,9-1.1,11c-0.6,0.4-1.1,0.4-1.6-0.3
				c-0.5-0.9-0.5-2.3-0.6-3.3c-0.2-1.3-0.4-2.7-0.7-4c-0.4-2.2-1.1-4.7-1.1-6.9C372.6,178.7,373.1,178,373.9,177.9z"/>
			<path class="st4" d="M377,216.2h-2.2l-0.3-1.1c0-2.9-1.3-16.1-1.8-19.7c-0.5-3.3-1.1-6.6-1.7-9.8c-0.4-2-2.9-12.2,0.3-10.7
				c1.2,0.6,2,2.6,2.4,4.5c0.7,2.8,1.2,5.9,1.5,8.9c0.8,6.5,2.2,18.9,1.6,25.6C377,214.5,377,215.8,377,216.2z"/>
			<path class="st4" d="M373.8,233.2c0.2-6.5,0.7-12.9,1.5-19.2c0-0.3,0.2-0.4,0.4-0.3c0.5,0.4,1,0.7,1.5,1.1c0.1,0,0.1,0.1,0.1,0.2
				c0.1-0.2,0.3-0.2,0.3,0.1c0.5,6.7,0.6,13.5,0.8,20.3c0.1,3.1,1.3,8.1-2.7,8C372.7,243.5,373.7,236.2,373.8,233.2z"/>
			<path class="st4" d="M418.3,235.3c-0.2-6.5-0.7-12.9-1.5-19.2c0-0.3-0.2-0.4-0.4-0.3c-0.5,0.4-1,0.7-1.5,1.1
				c-0.1,0-0.1,0.1-0.1,0.2c-0.1-0.2-0.3-0.2-0.3,0.1c-0.5,6.7-0.6,13.5-0.8,20.3c-0.1,3.1-1.3,8.1,2.7,8
				C419.4,245.5,418.4,238.3,418.3,235.3z"/>
			<path class="st11" d="M376.3,236.1c0.4-0.8,1.4-0.9,2.2-0.7c2,0.5,3.9,2,5.7,3c3.9,2.1,8.1,4.1,11.8,6.6v2.5
				c-4-2.2-8.1-4.3-12.2-6.4c-2.2-1.1-4.4-2.1-6.6-3.2C376.5,237.6,375.8,237.1,376.3,236.1z"/>
			<path class="st11" d="M398.7,244.7c3-2,6.1-3.8,9.1-5.7c1.7-1.1,3.6-2.7,5.5-3.4c0.8-0.3,1.7-0.3,2.2,0.5c0.6,1-0.1,1.5-0.9,2
				c-2.1,1.2-4.3,2.4-6.4,3.6c-3.2,1.8-6.3,3.7-9.4,5.7L398.7,244.7z"/>
			<path class="st4" d="M396,227.3l2.6-2.1c0.5,6.7,1.1,15.9,1.3,22.6c0.1,3.1,1.3,8.1-2.7,8c-3,0-2-7.3-1.9-10.3
				C395.5,239.5,395.3,233.2,396,227.3z"/>
			<g>
				<path class="st11" d="M374.3,213.5h2.2l14-8.1c1.9-1.1,5.2-0.9,7.3,0.3l16.3,9.4l3.1,0.3v2.6c0,0.1,0,0.2,0,0.3v0.3l0,0
					c-0.1,0.6-0.5,1.1-1.2,1.5l-15,8.6c-1.9,1.1-5.2,0.9-7.3-0.3l-17.6-10.1c-1.3-0.7-1.8-1.7-1.8-2.6l0,0
					C374.3,215.8,374.4,213.8,374.3,213.5z"/>
				<path class="st12" d="M401.1,225.9l15-8.6c1.9-1.1,1.6-3-0.5-4.2L397.9,203c-2.2-1.2-5.5-1.4-7.3-0.3l-15,8.6
					c-1.9,1.1-1.6,3,0.5,4.2l17.6,10.1C395.9,226.9,399.2,227,401.1,225.9z"/>
			</g>
			<g>
				<path class="st13" d="M406.5,218.2c-3.5,1.9-7.4,4.9-11.6,3.6c-3.6-1.2-7.1-3.7-10.3-5.7c-2.2-1.4-4.3-2.8-6-4.7
					c1.1-1.6,3.1-2.9,4.4-3.8c3.4-2.4,12.5-7,13.7-6.9c0.5,0,1.1,0.1,1.7,0.3c2.2,0.6,4.6,1.8,6.5,2.7c2.9,1.3,5.6,2.8,8,4.9
					c0.8,0.6,1.8,1.4,2.3,2.3C415.1,214.6,409.3,216.6,406.5,218.2z"/>
				<path class="st14" d="M415.2,216c-2.2,1.6-6.1,3.2-8.1,4.4c-2.1,1.3-6.2,4.2-8.5,4.7c-1.4,0.3-4-0.3-5.8-1.2
					c-2.6-1.3-5.1-2.9-7.7-4.4c-2.1-1.2-5-2.3-6.6-4.2c-1.1-1.4-0.8-2.8,0.1-4c1.6,1.9,3.8,3.3,6,4.7c3.2,2,6.6,4.5,10.3,5.7
					c4.1,1.3,8.1-1.7,11.6-3.6c2.8-1.5,8.7-3.6,8.8-7.3c0.1,0.1,0.1,0.2,0.2,0.3C416,212.3,416.3,215.1,415.2,216z"/>
			</g>
			<path class="st15" d="M397.3,212.5c0.5-2.1-0.3-3.7-0.6-5.7c-0.8-6,9.8-0.7,10.9,0.2c1.2,1,4.2,2.9,4.1,4.8c-0.1,2-3.5,3.5-5,4.3
				c-2.2,1.1-5.4,2.9-7.9,2.9c-1.5,0-2.9-1.4-2.8-3.2C396.1,214.6,397,213.6,397.3,212.5z"/>
			<path class="st15" d="M386.7,171.1c1.9-1.1,4.9-2.9,6-2.2c0.8,0.6-1,1.4-1.8,1.9c-1.6,1.1-3.2,2-4.9,2.9
				c-3.1,1.6-5.5,2.9-8.8,4.1c-1,0.4-1.7-0.4-0.8-0.9C378.8,175.4,383.6,172.9,386.7,171.1z"/>
		</g>
		<g>
			<path class="st16" d="M541.1,186.4c0,0-3.4,3-5.6,7.3c-1.3,2.6-4,6.2-5.8,8.5c-1-1-5.6-6-7.8-8.5c-2-2.3-3.3-2-5.2-2.3
				c-2-0.4-1.8-2.2-3.9-2.3c-2-0.1-1.7,0.9,0,3.1c1,1.4,2.5,2.6,3.4,2.9c1.9,0.5,3.8,0.4,4.3,2.2c0.3,1.1,3.7,8.6,5.4,9.8
				c2.2,1.5,2.3,2,4,1.9c1.2-0.1,2.2-1.3,2.8-1.9c1.6-1.9,3.6-3.8,5.1-5.9c2-2.9,6.1-10.5,6.3-10.8
				C544.4,190.1,541.1,186.4,541.1,186.4z"/>
			<path class="st17" d="M541.5,185.7c0,0-2.1,0.5-4,2.7s-5.7,8.9-5.7,8.9s1.8,2.7,2.6,3.3c0.9,0.6,3,1.8,3,1.8l7.3-11L541.5,185.7z
				"/>
			<path class="st18" d="M522.9,257.2c-1,1.1-2.2,2.4-3.2,3.5c-1.4,1.5-3.1,3.1-4.6,4.4c-1.9,1.7-2,3.7,1.1,3.5
				c5-0.3,6.1-2.4,8.4-4.1c0.3-0.2,0.9,0.3,2.1-0.2c1.6-0.6,1.8-0.9,1.8-2.5c0-1-0.2-3.1-0.6-4.1c0,0,0,0,0-0.1
				C528.1,257.4,524.2,255.7,522.9,257.2z"/>
			<path class="st18" d="M532.5,267.9c-1,1.1-2.2,2.4-3.2,3.5c-1.4,1.5-3.1,3.1-4.6,4.4c-1.9,1.7-2,3.7,1.1,3.5
				c5-0.3,6.1-2.4,8.4-4.1c0.3-0.2,0.9,0.3,2.1-0.2c1.6-0.6,1.8-0.9,1.8-2.5c0-1-0.2-3.1-0.6-4.1c0,0,0,0,0-0.1
				C537.7,268.2,533.8,266.4,532.5,267.9z"/>
			<path class="st5" d="M553.4,219.8c-0.4-0.9-10-4.1-9.7-3.9c-7.6,2.9-16.9,6.1-23.3,11.6c-1.2,0.2-2.4,0.6-2.3,2.8
				c0,1.7,1,4.6,1.3,6.3c1,5.9,2.2,15.6,2.7,21.6c1,1.8,4,1.8,5.9,0.4c0.6-4.3,0.8-10.1,1.5-13.5c1-4.5-0.6-6.8-2-9.2
				c3.8,0.1,11.9-4.1,15.5-5.1c4.4-1.2,5.6-1.3,8.9-4.6C554.1,223.9,554.9,223.1,553.4,219.8z"/>
			<path class="st5" d="M553,220.5c-2.4,0.1-5,0.2-7.3-0.5c-0.2,0.3-0.5,0.7-0.7,1c-0.8,1.7-1.6,3-1,5c-1.1,1.6-6.3,8-7.3,9.9
				c-1.2,1.2-1.8,1.9-1.7,4.6c0.2,3.1,0,4.5-0.4,8c-0.7,6.6-1.9,12.2-2.3,18.8c1.5,2.4,3.6,2.5,5.6,0.6c2-6.2,5.9-10.5,6.3-15.8
				c0.3-3.6,0.3-6.3-1.3-8.5c6.5-3.6,14.9-5.6,18.5-12.4c2.3-4.4,1.2-7.7-1.2-12.3C558.2,220.2,555.7,220.4,553,220.5z"/>
			<path class="st19" d="M540.2,188.7c2.7-3.4,1.6-2.4,4.8-0.6c4,2.3,7.2,3.7,8.9,5.1c2.9,2.4,4.7,7.5,5.2,13.8c0.1,1,0.7,4.2,1,5.2
				c1.2,3.5,0.6,4-0.2,4.8c1.3,0,1.9,1.8,0.9,2.5c-6.1,4.3-17.7,4.3-19.3-2.8c-0.1-0.4,0.4-1.8,0.6-2.2c-0.7-0.4-1.1-1.9-1.1-2.8
				c-1.4-0.7-1.7-1.9-2-3.8c-2.7-0.6-5.6-3.7-4.3-6.8c1.1-2.6,1.4-4.9,2.2-6.6C538.7,190.6,539.5,189.7,540.2,188.7z"/>
			<path class="st16" d="M541.3,190.6c0.7-0.1,2.7-1.1,2.1-4.7c-0.2-1,4.4-3.7,4.4-3.6c0,3.3,0.8,6.8,2.3,8.5
				c-2.2,2.3-4.2,7.4-7.9,5.6C540.3,195.4,539.9,194.7,541.3,190.6z"/>
			<path class="st17" d="M540.1,188.2c0,0-1.5,4-2,5.3s-1.4,3.8-1.4,3.8s1.4-0.6,2.1-0.2c0.7,0.4,1.7,1.5,2.3,1.7
				c0.6,0.2,1.4,0,1.4,0l0.5-1.7c0,0-1.3-0.4-1.3-2.5s0.4-5,0.4-5L540.1,188.2z"/>
			<path class="st17" d="M548.4,187.4c0,0,0,1.4-1.2,3.3c-1.1,2-3.8,4.2-5,5.2c-1.8,1.4-0.7,4-0.7,4s0.7-1.5,1.5-1.2
				c0.8,0.3,1.2,1,2.2,1.9c0.8-1.1,1.1-2.1,2.8-3.7c1.3-1.3,3.8-4.1,3.2-6.5C550.5,188,548.4,187.4,548.4,187.4z"/>
			<path class="st5" d="M537.6,182.8c0-0.1-0.1-0.1-0.1-0.2l0.1-0.1v-0.1c-0.1,0-0.2,0.1-0.3,0.1c-0.1,0-0.1,0-0.2,0.1
				c-1.8,0.8-3.6,3.1-2.9,5.1c0.3,0.9,1.1,1.3,2.1,1.1l0,0c-0.6,2.1,0.1,4.6,2.7,3.6c1.7-0.7,2.1-2.8,2-4.4
				C540.8,185.8,538.6,184.7,537.6,182.8z"/>
			<path class="st9" d="M538.1,177.8c3.1-0.7,4.7-0.8,7.4,0.3c1.5,0.4,3,1.1,4.4,2c0.1,0.1,0.2,0.2,0.2,0.3
				c-0.7,4.1-2.1,8.4-6.6,10.2c-3.8,1.5-5.9-2.6-6.5-5.4C536.2,182,536,178.3,538.1,177.8z"/>
			<path class="st9" d="M545.3,184.2c0,0,0.7-2.5,2.4-1.2c1.6,1.3-0.7,3.8-0.7,3.8L545.3,184.2z"/>
			<path class="st20" d="M548.7,215.3c0,0,3.7-1.2,5.7-1s3.7,1,3.7,1s-2.8,0.4-4.7,0.5C551.5,215.8,548.7,215.3,548.7,215.3z"/>
			<path class="st20" d="M547.8,218.1c0.2,0,4.4-0.1,6.6-0.3c2.2-0.2,3.1-0.3,3.1-0.3s-1.8,1.4-4.4,1.4
				C550.5,219,547.8,218.1,547.8,218.1z"/>
			<path class="st16" d="M518.5,192.7c0,0-0.8-1.3-1.4-2.7c-0.5-1-0.3-1.9,0.3-2.1c0.5-0.1,0.6,1.1,1.1,1.7c0.6,0.6,2.9,2.5,2.5,3.5
				C520.6,194.1,518.5,192.7,518.5,192.7z"/>
			<path class="st9" d="M559,204.9c-1-2.6-6.4,0.5-6.4,0.5s0,2.3,0,4.6s0.2,7.9,0.2,7.9s-6.2,9.4-6.8,10.3c-0.2,0.3-1.7,0-2.6,0.6
				c-1.2,0.8-1.3,1.4-2,1.8c-1.3,0.8-1.3,1.5-0.3,1.5s1.9-1.1,2.2-1.1c0.5,0,0.2,1-0.4,2.2c-0.6,1.2-2.2,3-1.4,4.1s2.6,0.4,4.4-1.4
				c1.5-1.5,1.6-3.6,2.6-5.6c0.5-1.1,7.1-8,8.4-9c0.9-0.8,1.1-1.1,1.2-1.6c0.4-1.2,0.5-1.8,0.5-3.4
				C558.5,213.9,559.9,207.4,559,204.9z"/>
			<g>
				<path class="st17" d="M554.3,195.4c-2,0.7-2.9,3.6-3,7.2c-0.1,3.6,0,8.7,0,8.7s2,1.3,4.8,1.3c2.9,0,4.3-1.5,4.3-1.5
					s-0.4-9.9-1.5-12.7C557.8,195.5,556,194.7,554.3,195.4z"/>
			</g>
			<path class="st5" d="M555.2,183.1c-0.3-1-1.2-2.4-2.3-3.1c0.3-0.7,0.2-1.5-0.2-2.2c-0.6-1-2.4-2.6-3.9-2.6
				c0.4-0.7,0.6-1.5,0.3-2.3c-0.3-0.9-1.2-1.3-2.1-1.5c-1.3-0.2-2.8,0-3.6,1c-0.5-1-1.8-1.6-2.8-1.2c-0.5,0.2-0.8,0.7-0.9,1.2
				c-0.7-0.6-1.7-0.7-2.4,0.1c-0.4,0.5-0.3,0.9,0,1.3c-1.5-0.2-3.2,0.3-3.6,1.6c-0.2,0.8,0.1,1.4,0.7,1.9c-1.1,0.8-1.8,2.2-0.7,3.4
				c1.3,1.4,4.2,1.2,5.6-0.1c0.4,1.7,1.8,3.3,3.6,3.5c0.7,0.1,1.5-0.2,2.1-0.7c0.3,0.6,0.8,1.1,1.3,1.6c-0.6,0.9-0.9,2.1-0.8,3.2
				c0.1,0.7,0.5,1.8,1.2,2.2c-1.4,1.3-2.1,3.1-1.6,5.1c0.5,1.6,2.3,2.8,4.8,1.2c1.2-0.8,2.2-3.4,1.7-4.5c0.9,0.3,2.1-0.3,2.4-1.4
				c0.2-0.9-0.1-2-0.7-2.9C555,187,555.6,184.6,555.2,183.1z"/>
		</g>
		<g>
			<path class="st16" d="M471.2,176.5c-0.9-1-2.1,0.3-3.8,0.6c-1.7,0.3-2.8-0.1-2.8-0.1s0-0.6,1.2-0.7c1.1-0.1,1.7-1.8,0.9-1.7
				c-0.7,0.2-1.5,0.2-2.9,0.6c-1,0.3-2.2,1.2-3.2,1.6c-2.4-1.4-6.5-2.8-8.8-4.8c-1-2-4.3-8-5.5-12.6c-1.3-4.8-4.1-8.4-4.1-8.4
				s-4,3.1-3.9,3.4c0.1,0.3,2.8,8.7,4.2,12c1.4,3.2,3.6,8.5,5,10.9c1.3,0.6,9.9,2.7,12.6,3.4c2.4,0.9,5.3,1.1,7.8,0.4
				C470.5,180.4,472.2,177.5,471.2,176.5z"/>
			<path class="st10" d="M440.2,151.4c0,0,2.6-0.7,4.4,1.9c1.8,2.6,3,9.3,3.3,10.8c-0.8,0-2.9,1-4.2,1.9c-1.4,0.8-2.1,0.7-2.1,0.7
				l-7.2-13.2L440.2,151.4z"/>
			<path class="st12" d="M447.6,162.5c0,0-2.8,0.3-4,1.6c-1.1,1.3-1.4,1.9-1.4,1.9l0.9,1.5c0,0,1.2-1.3,2.4-2.1
				c1.2-0.8,2.6-0.9,2.6-0.9L447.6,162.5z"/>
			<path class="st6" d="M423.5,248.9c1.1,1.2,2.2,2.5,3.3,3.6c1.5,1.5,3.2,3.2,4.8,4.6c1.9,1.7,2.1,3.8-1.1,3.6
				c-5.1-0.3-6.3-2.4-8.7-4.3c-0.3-0.3-0.9,0.4-2.2-0.2c-1.6-0.7-1.8-0.9-1.8-2.6c0-1,0.2-3.2,0.6-4.3c0,0,0,0,0-0.1
				C418.1,249.1,422.1,247.4,423.5,248.9z"/>
			<path class="st6" d="M444.5,236.5c1.1,1.2,2.2,2.5,3.3,3.6c1.5,1.5,3.2,3.2,4.8,4.6c1.9,1.7,2.1,3.8-1.1,3.6
				c-5.1-0.3-6.3-2.4-8.7-4.3c-0.3-0.3-0.9,0.4-2.2-0.2c-1.6-0.7-1.8-0.9-1.8-2.6c0-1,0.2-3.2,0.6-4.3c0,0,0,0,0-0.1
				C439.1,236.7,443.1,234.9,444.5,236.5z"/>
			<path class="st20" d="M448.3,212.7c0-3.5-1.6-21.1-10.2-30.7c-0.8-1.1-3.7-1.5-3.8-1.4c-2-0.4-5.6,2.5-6.6,3.5
				c-1.8,1.9,2.1,14.8,3.9,18.5c2.2,4.6,4.6,8,7.1,11.6c-0.3,1.9-1.1,3.5-1.7,8.5c-0.7,6.3,2.1,14.7,2.1,14.7s3.2,1.6,5.2-0.9
				C445.7,229.5,446.9,223.4,448.3,212.7z"/>
			<path class="st19" d="M432.2,195.6c2-2.5,2.7-5.8,2.4-8.7c-0.1-1.6-0.3-3.1-1.9-3.6c-2.9-0.7-11.8-2.1-11.7-1.8
				c-5.1,5.9-5.4,14.4-5,22.1c0.4,7.3,4.3,13.7,6,20.6c-0.6,1-2.8,3.4-3.2,6.9c-0.6,6.4-0.5,14.8-0.6,18.3c1.4,1.9,4.8,0.6,5.4,0.3
				c1.1-4.5,3.9-13.7,6.7-22.6c1.6-4.9,2.6-8.8,3.3-16.8C434.4,204.2,433.6,200.8,432.2,195.6z"/>
			<path class="st7" d="M441.9,154.2c-2.8-3.5-4.1-3.8-7.4-1.9c-4.1,2.3-7.4,3.8-9.2,5.3c-3,2.5-4.8,7.7-5.3,14.3
				c-0.1,1-0.7,4.4-1,5.4c-1.3,3.6-0.6,4.2,0.2,5c-0.5,0.5-1,2.6,0.1,3.2c4.7,2.8,15.2,3.3,18.9-3.5c0.2-0.4-0.4-1.9-0.7-2.2
				c0.8-0.4,1.3-1.5,1.3-2.5c1.4-0.8,2.6-1.9,2.9-3.9c2.8-0.6,5.8-2.2,4.9-5.6c-0.4-1.7-2.7-5.5-3.1-7.4
				C442.8,156.9,442.7,155.2,441.9,154.2z"/>
			<path class="st16" d="M440,155.3c-0.8-0.1-2.8-1.2-2.2-4.9c0.2-1-4.5-3.8-4.5-3.7c0,3.4-0.5,7.2-2,9c2.2,2.3,4.4,8.4,8.3,7.6
				C441.6,162.9,441.5,159.6,440,155.3z"/>
			<path class="st21" d="M441.6,152.8c0,0,1.4,4.3,1.9,5.7s1.4,4.1,1.4,4.1s-1.5-0.7-2.2-0.3c-0.8,0.4-1.9,1.5-2.5,1.7
				c-0.7,0.2-1.5,0-1.5,0l-0.5-1.8c0,0,1.4-0.4,1.4-2.7c0.1-2.3-0.2-5.4-0.2-5.4L441.6,152.8z"/>
			<path class="st9" d="M444,141.8c-3.2-0.7-4.8-0.8-7.7,0.3c-1.6,0.4-3.1,1.1-4.5,2.1c-0.1,0.1-0.2,0.2-0.2,0.4
				c0.7,4.2,2.1,8.6,6.8,10.5c3.9,1.5,6-2.7,6.7-5.6C446,146.1,446.2,142.3,444,141.8z"/>
			<path class="st5" d="M428.8,138.5c1.1-4.2,3.8-6.3,5.6-4.5c0.4-2,2.3-3.3,3.5-1.8c0.9-2.2,3.2-1.6,4.5-0.6
				c2.4,1.9,7.6,9,3.8,11.8c-0.2,3.6-4.5,3.8-7,2.1c-1.3,1.2-3.9,1.2-4.7,0c-0.5,2.2-1.1,4.4-1.6,6.3
				C431.3,150.7,427.1,144.7,428.8,138.5z"/>
			<path class="st9" d="M435.5,147.8c0,0-0.8-2.6-2.4-1.3c-1.7,1.3,0.7,3.9,0.7,3.9L435.5,147.8z"/>
			<path class="st10" d="M436.1,176.8c0,0-3.8-1.2-5.8-1s-3.8,1-3.8,1s2.9,0.4,4.8,0.5C433.2,177.4,436.1,176.8,436.1,176.8z"/>
			<path class="st10" d="M434.4,181.4c-0.2,0-4.5-0.1-6.8-0.3s-3.2-0.3-3.2-0.3s1.9,1.4,4.5,1.4
				C431.6,182.3,434.4,181.4,434.4,181.4z"/>
			<path class="st9" d="M425.9,172c0,0-0.7,4.7-1.4,9.7c2.6,5.5,5.3,10.9,5.3,10.9l-4,3.2c0,0-3.1-3.7-5.5-8.7
				c-1.4-2.8-2.6-2.9-2.4-5.5c0.5-5.5,1-12,1-12S423.5,169.6,425.9,172z"/>
			<path class="st10" d="M427.3,157.5c2.6,2,3.3,6.2,1.8,10.3s-3.6,6.9-3.6,6.9s-3.3-0.9-6.9-1.1c-1-4.8-1-9.8,1-13
				C421.6,157.2,425.5,156.1,427.3,157.5z"/>
			<path class="st21" d="M432.9,151.7c0,0,0,1.5,1.1,3.6c1.2,2.1,3.4,4.9,4.6,6c1.9,1.6,1.2,4.1,1.2,4.1s-0.7-1.6-1.6-1.4
				c-0.9,0.3-1.4,1-2.4,1.9c-0.8-1.2-1.1-2.3-2.8-4.1c-1.4-1.4-3.9-4.5-3.2-7C430.6,152.3,432.9,151.7,432.9,151.7z"/>
			<path class="st12" d="M426.2,173.6c0,0-1.6-1-4-1.4c-2.3-0.3-3.9,0-3.9,0l0.1,2.4c0,0,2.4-0.3,3.8,0s3,1.1,3,1.1L426.2,173.6z"/>
		</g>
		<g>
			<path class="st6" d="M390.4,240.4v62.2c0,0.7,1.1,1.3,2.4,1.3s2.4-0.6,2.4-1.3v-62.2L390.4,240.4L390.4,240.4z"/>
			<path class="st6" d="M534.1,240.4v62.2c0,0.7,1.1,1.3,2.4,1.3s2.4-0.6,2.4-1.3v-62.2L534.1,240.4L534.1,240.4z"/>
			<path class="st6" d="M460.3,263.8V326c0,0.7,1.1,1.3,2.4,1.3s2.4-0.6,2.4-1.3v-62.2H460.3z"/>
			<g>
				<path class="st11" d="M543.4,234.6c-4.2-21.1-37.8-37.6-78.7-37.6c-40.8,0-74.4,16.4-78.7,37.6h-0.5v4.5
					c0,23.2,35.4,42.1,79.1,42.1s79.1-18.8,79.1-42.1v-4.5H543.4z"/>
			</g>
			<g>
				<path class="st4" d="M543.6,230.2c-4.3-21.2-37.9-37.7-78.9-37.7c-40.9,0-74.6,16.5-78.9,37.7h-0.5v4.5
					c0,23.3,35.5,42.2,79.3,42.2s79.3-18.9,79.3-42.2v-4.5H543.6z"/>
				<path class="st12" d="M464.7,188c-43.8,0-79.3,18.9-79.3,42.2s35.5,42.2,79.3,42.2s79.3-18.9,79.3-42.2S508.5,188,464.7,188z"/>
			</g>
		</g>
		<g>
			<polygon class="st22" points="449.4,214.4 463.7,206.1 441.4,193.3 427.1,201.6 			"/>
			<g>
				<path class="st6" d="M459.4,205.6c-3.5,1.8-6.9,3.7-10.3,5.5c-0.3,0.1,0,0.5,0.2,0.4c3.4-1.9,6.8-3.7,10.2-5.7
					C459.7,205.7,459.6,205.5,459.4,205.6z"/>
				<path class="st6" d="M457.9,204.6c-3.5,1.8-6.9,3.7-10.3,5.5c-0.3,0.1,0,0.5,0.2,0.4c3.4-1.9,6.8-3.7,10.2-5.7
					C458.2,204.7,458,204.5,457.9,204.6z"/>
				<path class="st6" d="M456.1,203.7c-3.5,1.8-6.9,3.7-10.3,5.5c-0.3,0.1,0,0.5,0.2,0.4c3.4-1.9,6.8-3.7,10.2-5.7
					C456.4,203.8,456.3,203.6,456.1,203.7z"/>
				<path class="st6" d="M454.6,202.7c-3.5,1.8-6.9,3.7-10.3,5.5c-0.3,0.1,0,0.5,0.2,0.4c3.4-1.9,6.8-3.7,10.2-5.7
					C454.9,202.8,454.7,202.6,454.6,202.7z"/>
				<path class="st6" d="M450.8,201c-3.5,1.8-6.9,3.7-10.3,5.5c-0.3,0.1,0,0.5,0.2,0.4c3.4-1.9,6.8-3.7,10.2-5.7
					C451.1,201.1,451,200.9,450.8,201z"/>
				<path class="st6" d="M449.2,200c-3.5,1.8-6.9,3.7-10.3,5.5c-0.3,0.1,0,0.5,0.2,0.4c3.4-1.9,6.8-3.7,10.2-5.7
					C449.5,200.2,449.4,199.9,449.2,200z"/>
				<path class="st6" d="M446.9,198.6c-3.5,1.8-6.9,3.7-10.3,5.5c-0.3,0.1,0,0.5,0.2,0.4c3.4-1.9,6.8-3.7,10.2-5.7
					C447.2,198.8,447.1,198.6,446.9,198.6z"/>
				<path class="st6" d="M445.4,197.6c-3.5,1.8-6.9,3.7-10.3,5.5c-0.3,0.1,0,0.5,0.2,0.4c3.4-1.9,6.8-3.7,10.2-5.7
					C445.7,197.8,445.5,197.6,445.4,197.6z"/>
				<path class="st6" d="M443.6,196.7c-3.5,1.8-6.9,3.7-10.3,5.5c-0.3,0.1,0,0.5,0.2,0.4c3.4-1.9,6.8-3.7,10.2-5.7
					C443.9,196.9,443.8,196.7,443.6,196.7z"/>
				<path class="st6" d="M442.1,195.7c-3.5,1.8-6.9,3.7-10.3,5.5c-0.3,0.1,0,0.5,0.2,0.4c3.4-1.9,6.8-3.7,10.2-5.7
					C442.3,195.9,442.2,195.6,442.1,195.7z"/>
			</g>
		</g>
		<path class="st9" d="M428.9,191.5l-4.8,2.1c0,0,2.2,3.1,3.9,4.7c1.7,1.6,3.3,1.3,6.3,3.2c3.2,2,4.6,0.7,3.7-2.9
			c-0.5-1.9-2.1-3.7-5.5-4.5C430,193.4,428.9,191.5,428.9,191.5z"/>
		<path class="st16" d="M531.2,203.1c-0.3-0.6-0.5-1.2-0.8-1.8c-0.2,0.3-0.5,0.6-0.7,0.9c-1-1-5.6-6-7.8-8.5c-2-2.3-3.3-2-5.2-2.3
			c-2-0.4-1.8-2.2-3.9-2.3c-2-0.1-1.7,0.9,0,3.1c1,1.4,2.5,2.6,3.4,2.9c1.9,0.5,3.8,0.4,4.3,2.2c0.3,1.1,3.7,8.6,5.4,9.8
			c2.2,1.5,2.3,2,4,1.9c1.2-0.1,2.2-1.3,2.7-1.9C532.3,205.7,531.8,204.4,531.2,203.1z"/>
		<g>
			<g>
				<g>
					<path class="st5" d="M442.8,246.9l0.6,0.7c0.2-0.2,0.5-0.4,0.8-0.6l8.7-5c2-1.1,5-1.3,6.7-0.3l13.9,8c0.1,0.1,0.2,0.1,0.3,0.2
						l0.6-0.7c0,0,0.7,1.3,0.1,2.8c0,0,0,0,0,0.1c-0.2,0.6-0.7,1.1-1.5,1.6l-8.7,5c-2,1.1-5,1.3-6.7,0.3l-13.9-8
						c-0.5-0.3-0.8-0.6-1-1c0-0.1-0.1-0.1-0.1-0.2C442.1,248.2,442.8,246.9,442.8,246.9z"/>
					<path class="st23" d="M457.6,257.5l-13.9-8c-1.7-1-1.5-2.7,0.5-3.9l8.7-5c2-1.1,5-1.3,6.7-0.3l13.9,8c1.7,1,1.5,2.7-0.5,3.9
						l-8.7,5C462.3,258.3,459.3,258.4,457.6,257.5z"/>
				</g>
				<g>
					<g>
						<path class="st18" d="M457,241.5l-1.1-0.6c-0.1-0.1-0.3-0.1-0.4,0l-0.6,0.4c-0.1,0.1-0.1,0.2,0,0.2l1.1,0.6
							c0.1,0.1,0.3,0.1,0.4,0l0.6-0.4C457.1,241.7,457.1,241.6,457,241.5z"/>
						<path class="st18" d="M461.4,244.1l-3.4-1.9c-0.1-0.1-0.3-0.1-0.4,0l-0.6,0.4c-0.1,0.1-0.1,0.2,0,0.2l3.4,1.9
							c0.1,0.1,0.3,0.1,0.4,0l0.6-0.4C461.5,244.2,461.5,244.1,461.4,244.1z"/>
						<path class="st18" d="M463.5,245.3l-1.1-0.6c-0.1-0.1-0.3-0.1-0.4,0l-0.6,0.4c-0.1,0.1-0.1,0.2,0,0.2l1.1,0.6
							c0.1,0.1,0.3,0.1,0.4,0l0.6-0.4C463.6,245.5,463.6,245.4,463.5,245.3z"/>
						<path class="st18" d="M453.6,243.4l-1.1-0.6c-0.1-0.1-0.3-0.1-0.4,0l-0.6,0.4c-0.1,0.1-0.1,0.2,0,0.2l1.1,0.6
							c0.1,0.1,0.3,0.1,0.4,0l0.6-0.4C453.7,243.6,453.8,243.5,453.6,243.4z"/>
						<path class="st18" d="M455.8,244.7l-1.1-0.6c-0.1-0.1-0.3-0.1-0.4,0l-0.6,0.4c-0.1,0.1-0.1,0.2,0,0.2l1.1,0.6
							c0.1,0.1,0.3,0.1,0.4,0l0.6-0.4C455.9,244.9,455.9,244.7,455.8,244.7z"/>
						<path class="st18" d="M458,246l-1.1-0.6c-0.1-0.1-0.3-0.1-0.4,0l-0.6,0.4c-0.1,0.1-0.1,0.2,0,0.2l1.1,0.6
							c0.1,0.1,0.3,0.1,0.4,0l0.6-0.4C458.1,246.1,458.2,246,458,246z"/>
						<path class="st18" d="M460.2,247.2l-1.1-0.6c-0.1-0.1-0.3-0.1-0.4,0l-0.6,0.4c-0.1,0.1-0.1,0.2,0,0.2l1.1,0.6
							c0.1,0.1,0.3,0.1,0.4,0l0.6-0.4C460.3,247.4,460.3,247.3,460.2,247.2z"/>
						<path class="st18" d="M452,244.4l-1.1-0.6c-0.1-0.1-0.3-0.1-0.4,0l-0.6,0.4c-0.1,0.1-0.1,0.2,0,0.2l1.1,0.6
							c0.1,0.1,0.3,0.1,0.4,0l0.6-0.4C452.1,244.6,452.1,244.4,452,244.4z"/>
						<path class="st18" d="M454.2,245.6L453,245c-0.1-0.1-0.3-0.1-0.4,0l-0.6,0.4c-0.1,0.1-0.1,0.2,0,0.2l1.1,0.6
							c0.1,0.1,0.3,0.1,0.4,0l0.6-0.4C454.2,245.8,454.3,245.7,454.2,245.6z"/>
						<path class="st18" d="M456.4,246.9l-1.1-0.6c-0.1-0.1-0.3-0.1-0.4,0l-0.6,0.4c-0.1,0.1-0.1,0.2,0,0.2l1.1,0.6
							c0.1,0.1,0.3,0.1,0.4,0l0.6-0.4C456.5,247.1,456.5,247,456.4,246.9z"/>
						<path class="st18" d="M458.6,248.2l-1.1-0.6c-0.1-0.1-0.3-0.1-0.4,0l-0.6,0.4c-0.1,0.1-0.1,0.2,0,0.2l1.1,0.6
							c0.1,0.1,0.3,0.1,0.4,0l0.6-0.4C458.7,248.4,458.7,248.2,458.6,248.2z"/>
						<path class="st18" d="M449.9,245.6l-1.1-0.6c-0.1-0.1-0.3-0.1-0.4,0l-0.6,0.4c-0.1,0.1-0.1,0.2,0,0.2l1.1,0.6
							c0.1,0.1,0.3,0.1,0.4,0l0.6-0.4C450,245.8,450,245.7,449.9,245.6z"/>
						<path class="st18" d="M452.1,246.8l-1.1-0.6c-0.1-0.1-0.3-0.1-0.4,0l-0.6,0.4c-0.1,0.1-0.1,0.2,0,0.2l1.1,0.6
							c0.1,0.1,0.3,0.1,0.4,0l0.6-0.4C452.1,247,452.2,246.9,452.1,246.8z"/>
						<path class="st18" d="M454.3,248.1l-1.1-0.6c-0.1-0.1-0.3-0.1-0.4,0l-0.6,0.4c-0.1,0.1-0.1,0.2,0,0.2l1.1,0.6
							c0.1,0.1,0.3,0.1,0.4,0l0.6-0.4C454.4,248.3,454.4,248.2,454.3,248.1z"/>
						<path class="st18" d="M456.5,249.4l-1.1-0.6c-0.1-0.1-0.3-0.1-0.4,0l-0.6,0.4c-0.1,0.1-0.1,0.2,0,0.2l1.1,0.6
							c0.1,0.1,0.3,0.1,0.4,0l0.6-0.4C456.6,249.6,456.6,249.5,456.5,249.4z"/>
						<path class="st18" d="M455.3,242.5l-1.1-0.6c-0.1-0.1-0.3-0.1-0.4,0l-0.6,0.4c-0.1,0.1-0.1,0.2,0,0.2l1.1,0.6
							c0.1,0.1,0.3,0.1,0.4,0l0.6-0.4C455.4,242.6,455.4,242.5,455.3,242.5z"/>
						<path class="st18" d="M457.5,243.7l-1.1-0.6c-0.1-0.1-0.3-0.1-0.4,0l-0.6,0.4c-0.1,0.1-0.1,0.2,0,0.2l1.1,0.6
							c0.1,0.1,0.3,0.1,0.4,0l0.6-0.4C457.6,243.9,457.6,243.8,457.5,243.7z"/>
						<path class="st18" d="M459.7,245l-1.1-0.6c-0.1-0.1-0.3-0.1-0.4,0l-0.6,0.4c-0.1,0.1-0.1,0.2,0,0.2l1.1,0.6
							c0.1,0.1,0.3,0.1,0.4,0l0.6-0.4C459.8,245.2,459.8,245.1,459.7,245z"/>
						<path class="st18" d="M461.9,246.3l-1.1-0.6c-0.1-0.1-0.3-0.1-0.4,0l-0.6,0.4c-0.1,0.1-0.1,0.2,0,0.2l1.1,0.6
							c0.1,0.1,0.3,0.1,0.4,0l0.6-0.4C462,246.4,462,246.3,461.9,246.3z"/>
						<path class="st18" d="M465.7,246.6l-1.1-0.6c-0.1-0.1-0.3-0.1-0.4,0l-0.6,0.4c-0.1,0.1-0.1,0.2,0,0.2l1.1,0.6
							c0.1,0.1,0.3,0.1,0.4,0l0.6-0.4C465.8,246.8,465.8,246.6,465.7,246.6z"/>
						<path class="st18" d="M462.4,248.5l-1.1-0.6c-0.1-0.1-0.3-0.1-0.4,0l-2.3,1.3c-0.1,0.1-0.1,0.2,0,0.2l1.1,0.6
							c0.1,0.1,0.3,0.1,0.4,0l2.3-1.3C462.5,248.7,462.5,248.6,462.4,248.5z"/>
						<path class="st18" d="M458.7,250.7l-1.1-0.6c-0.1-0.1-0.3-0.1-0.4,0l-0.6,0.4c-0.1,0.1-0.1,0.2,0,0.2l1.1,0.6
							c0.1,0.1,0.3,0.1,0.4,0l0.6-0.4C458.8,250.8,458.8,250.7,458.7,250.7z"/>
						<path class="st18" d="M448.1,246.6L447,246c-0.1-0.1-0.3-0.1-0.4,0l-0.6,0.4c-0.1,0.1-0.1,0.2,0,0.2l1.1,0.6
							c0.1,0.1,0.3,0.1,0.4,0l0.6-0.4C448.2,246.8,448.2,246.7,448.1,246.6z"/>
						<path class="st18" d="M450.2,247.9l-1.1-0.6c-0.1-0.1-0.3-0.1-0.4,0l-0.6,0.4c-0.1,0.1-0.1,0.2,0,0.2l1.1,0.6
							c0.1,0.1,0.3,0.1,0.4,0l0.6-0.4C450.3,248,450.4,247.9,450.2,247.9z"/>
						<path class="st18" d="M452.5,249.2l-1.1-0.6c-0.1-0.1-0.3-0.1-0.4,0l-0.6,0.4c-0.1,0.1-0.1,0.2,0,0.2l1.1,0.6
							c0.1,0.1,0.3,0.1,0.4,0l0.6-0.4C452.6,249.3,452.6,249.2,452.5,249.2z"/>
						<path class="st18" d="M454.6,250.4l-1.1-0.6c-0.1-0.1-0.3-0.1-0.4,0l-0.6,0.4c-0.1,0.1-0.1,0.2,0,0.2l1.1,0.6
							c0.1,0.1,0.3,0.1,0.4,0l0.6-0.4C454.7,250.6,454.8,250.5,454.6,250.4z"/>
						<path class="st18" d="M456.8,251.7l-1.1-0.6c-0.1-0.1-0.3-0.1-0.4,0l-0.6,0.4c-0.1,0.1-0.1,0.2,0,0.2l1.1,0.6
							c0.1,0.1,0.3,0.1,0.4,0l0.6-0.4C456.9,251.8,457,251.7,456.8,251.7z"/>
						<path class="st18" d="M464.1,247.5l-1.1-0.6c-0.1-0.1-0.3-0.1-0.4,0l-0.6,0.4c-0.1,0.1-0.1,0.2,0,0.2l1.1,0.6
							c0.1,0.1,0.3,0.1,0.4,0l0.6-0.4C464.2,247.7,464.2,247.6,464.1,247.5z"/>
					</g>
					<g>
						<path class="st18" d="M467.9,247.8l-1.1-0.6c-0.1-0.1-0.3-0.1-0.4,0l-0.6,0.4c-0.1,0.1-0.1,0.2,0,0.2l1.1,0.6
							c0.1,0.1,0.3,0.1,0.4,0l0.6-0.4C468,248,468,247.9,467.9,247.8z"/>
						<path class="st18" d="M471.6,248.1l-1.1-0.6c-0.1-0.1-0.3-0.1-0.4,0l-0.6,0.4c-0.1,0.1-0.1,0.2,0,0.2l1.1,0.6
							c0.1,0.1,0.3,0.1,0.4,0l0.6-0.4C471.7,248.3,471.7,248.2,471.6,248.1z"/>
						<path class="st18" d="M460.7,241.8l-1.1-0.6c-0.1-0.1-0.3-0.1-0.4,0l-0.6,0.4c-0.1,0.1-0.1,0.2,0,0.2l1.1,0.6
							c0.1,0.1,0.3,0.1,0.4,0l0.6-0.4C460.8,242,460.8,241.9,460.7,241.8z"/>
						<path class="st18" d="M472.3,250.4l-3.4-1.9c-0.1-0.1-0.3-0.1-0.4,0l-0.6,0.4c-0.1,0.1-0.1,0.2,0,0.2l3.4,1.9
							c0.1,0.1,0.3,0.1,0.4,0l0.6-0.4C472.4,250.5,472.4,250.4,472.3,250.4z"/>
						<path class="st18" d="M464.6,249.7l-1.1-0.6c-0.1-0.1-0.3-0.1-0.4,0l-0.6,0.4c-0.1,0.1-0.1,0.2,0,0.2l1.1,0.6
							c0.1,0.1,0.3,0.1,0.4,0l0.6-0.4C464.7,249.9,464.7,249.8,464.6,249.7z"/>
						<path class="st18" d="M466.7,251l-1.1-0.6c-0.1-0.1-0.3-0.1-0.4,0l-0.6,0.4c-0.1,0.1-0.1,0.2,0,0.2l1.1,0.6
							c0.1,0.1,0.3,0.1,0.4,0l0.6-0.4C466.8,251.2,466.9,251.1,466.7,251z"/>
						<path class="st18" d="M469,252.3l-1.1-0.6c-0.1-0.1-0.3-0.1-0.4,0l-0.6,0.4c-0.1,0.1-0.1,0.2,0,0.2l1.1,0.6
							c0.1,0.1,0.3,0.1,0.4,0l0.6-0.4C469.1,252.5,469.1,252.3,469,252.3z"/>
						<path class="st18" d="M462.9,250.7l-1.1-0.6c-0.1-0.1-0.3-0.1-0.4,0l-0.6,0.4c-0.1,0.1-0.1,0.2,0,0.2l1.1,0.6
							c0.1,0.1,0.3,0.1,0.4,0l0.6-0.4C463,250.9,463,250.8,462.9,250.7z"/>
						<path class="st18" d="M465.1,251.9l-1.1-0.6c-0.1-0.1-0.3-0.1-0.4,0l-0.6,0.4c-0.1,0.1-0.1,0.2,0,0.2l1.1,0.6
							c0.1,0.1,0.3,0.1,0.4,0l0.6-0.4C465.2,252.1,465.2,252,465.1,251.9z"/>
						<path class="st18" d="M467.3,253.2l-1.1-0.6c-0.1-0.1-0.3-0.1-0.4,0l-0.6,0.4c-0.1,0.1-0.1,0.2,0,0.2l1.1,0.6
							c0.1,0.1,0.3,0.1,0.4,0l0.6-0.4C467.4,253.4,467.4,253.3,467.3,253.2z"/>
						<path class="st18" d="M460.8,251.9l-1.1-0.6c-0.1-0.1-0.3-0.1-0.4,0l-0.6,0.4c-0.1,0.1-0.1,0.2,0,0.2l1.1,0.6
							c0.1,0.1,0.3,0.1,0.4,0l0.6-0.4C460.9,252.1,460.9,252,460.8,251.9z"/>
						<path class="st18" d="M463,253.2l-1.1-0.6c-0.1-0.1-0.3-0.1-0.4,0l-0.6,0.4c-0.1,0.1-0.1,0.2,0,0.2l1.1,0.6
							c0.1,0.1,0.3,0.1,0.4,0l0.6-0.4C463.1,253.3,463.1,253.2,463,253.2z"/>
						<path class="st18" d="M465.2,254.5l-1.1-0.6c-0.1-0.1-0.3-0.1-0.4,0l-0.6,0.4c-0.1,0.1-0.1,0.2,0,0.2l1.1,0.6
							c0.1,0.1,0.3,0.1,0.4,0l0.6-0.4C465.3,254.6,465.3,254.5,465.2,254.5z"/>
						<path class="st18" d="M459,252.9l-1.1-0.6c-0.1-0.1-0.3-0.1-0.4,0l-0.6,0.4c-0.1,0.1-0.1,0.2,0,0.2l1.1,0.6
							c0.1,0.1,0.3,0.1,0.4,0l0.6-0.4C459.1,253.1,459.1,253,459,252.9z"/>
						<path class="st18" d="M461.2,254.2l-1.1-0.6c-0.1-0.1-0.3-0.1-0.4,0l-0.6,0.4c-0.1,0.1-0.1,0.2,0,0.2l1.1,0.6
							c0.1,0.1,0.3,0.1,0.4,0l0.6-0.4C461.3,254.3,461.3,254.2,461.2,254.2z"/>
						<path class="st18" d="M463.4,255.5l-1.1-0.6c-0.1-0.1-0.3-0.1-0.4,0l-0.6,0.4c-0.1,0.1-0.1,0.2,0,0.2l1.1,0.6
							c0.1,0.1,0.3,0.1,0.4,0l0.6-0.4C463.5,255.6,463.5,255.5,463.4,255.5z"/>
						<path class="st18" d="M466.2,248.8l-1.1-0.6c-0.1-0.1-0.3-0.1-0.4,0l-0.6,0.4c-0.1,0.1-0.1,0.2,0,0.2l1.1,0.6
							c0.1,0.1,0.3,0.1,0.4,0l0.6-0.4C466.3,249,466.3,248.8,466.2,248.8z"/>
						<path class="st18" d="M468.4,250l-1.1-0.6c-0.1-0.1-0.3-0.1-0.4,0l-0.6,0.4c-0.1,0.1-0.1,0.2,0,0.2l1.1,0.6
							c0.1,0.1,0.3,0.1,0.4,0l0.6-0.4C468.5,250.2,468.5,250.1,468.4,250z"/>
						<path class="st18" d="M470.6,251.3l-1.1-0.6c-0.1-0.1-0.3-0.1-0.4,0l-0.6,0.4c-0.1,0.1-0.1,0.2,0,0.2l1.1,0.6
							c0.1,0.1,0.3,0.1,0.4,0l0.6-0.4C470.7,251.5,470.8,251.4,470.6,251.3z"/>
						<path class="st18" d="M446.3,247.6l-1.1-0.6c-0.1-0.1-0.3-0.1-0.4,0l-0.6,0.4c-0.1,0.1-0.1,0.2,0,0.2l1.1,0.6
							c0.1,0.1,0.3,0.1,0.4,0l0.6-0.4C446.4,247.8,446.4,247.6,446.3,247.6z"/>
						<path class="st18" d="M450.7,250.1l-3.4-1.9c-0.1-0.1-0.3-0.1-0.4,0l-0.6,0.4c-0.1,0.1-0.1,0.2,0,0.2l3.4,1.9
							c0.1,0.1,0.3,0.1,0.4,0l0.6-0.4C450.8,250.3,450.8,250.2,450.7,250.1z"/>
						<path class="st18" d="M452.8,251.4l-1.1-0.6c-0.1-0.1-0.3-0.1-0.4,0l-0.6,0.4c-0.1,0.1-0.1,0.2,0,0.2l1.1,0.6
							c0.1,0.1,0.3,0.1,0.4,0l0.6-0.4C452.9,251.5,453,251.4,452.8,251.4z"/>
						<path class="st18" d="M455,252.6l-1.1-0.6c-0.1-0.1-0.3-0.1-0.4,0l-0.6,0.4c-0.1,0.1-0.1,0.2,0,0.2l1.1,0.6
							c0.1,0.1,0.3,0.1,0.4,0l0.6-0.4C455.1,252.8,455.2,252.7,455,252.6z"/>
						<path class="st18" d="M457.2,253.9l-1.1-0.6c-0.1-0.1-0.3-0.1-0.4,0l-0.6,0.4c-0.1,0.1-0.1,0.2,0,0.2l1.1,0.6
							c0.1,0.1,0.3,0.1,0.4,0l0.6-0.4C457.3,254.1,457.3,254,457.2,253.9z"/>
						<path class="st18" d="M461.6,256.4l-3.4-1.9c-0.1-0.1-0.3-0.1-0.4,0l-0.6,0.4c-0.1,0.1-0.1,0.2,0,0.2l3.4,1.9
							c0.1,0.1,0.3,0.1,0.4,0l0.6-0.4C461.7,256.6,461.7,256.5,461.6,256.4z"/>
					</g>
				</g>
			</g>
			<g>
				<path class="st5" d="M457.5,220.5c0.6-1.1,1.7-1.4,2.2-1.4s1.3,0.1,1.9,0.4l12.7,7.3c2.1,1.2,3.7,4.4,3.7,7.1v10.8
					c0,1-0.2,1.8-0.6,2.4c0,0.1-0.7,0.9-2,1.3c-0.9,0.3-1.2-0.5-1.4-1l-12.5-7.2c-2.1-1.2-3.7-4.4-3.7-7.1v-10.8c0-0.2,0-0.3,0-0.5
					C457.4,221.7,457.1,221.2,457.5,220.5z"/>
				<path class="st6" d="M473.3,248.3c2.1,1.2,3.7-0.1,3.7-2.8v-10.8c0-2.7-1.7-5.9-3.7-7.1l-12.7-7.3c-2.1-1.2-3.7,0.1-3.7,2.8
					v10.8c0,2.7,1.7,5.9,3.7,7.1L473.3,248.3z"/>
				<path class="st24" d="M460.6,239.8l12.7,7.3c1.6,0.9,2.9-0.1,2.9-2.2v-10.8c0-2.1-1.3-4.6-2.9-5.5l-12.7-7.3
					c-1.6-0.9-2.9,0.1-2.9,2.2v10.8C457.7,236.4,459,238.9,460.6,239.8z"/>
			</g>
		</g>
		<polygon class="st13" points="432.2,251.1 417.9,242.9 440.2,230.1 454.5,238.3 		"/>
		<polygon class="st13" points="510.8,253.4 496.4,245.2 518.8,232.3 533.1,240.6 		"/>
		<polygon class="st24" points="502.5,262.2 516.8,254 494.5,241.2 480.2,249.4 		"/>
		<g>
			<polygon class="st22" points="510.2,259 524.5,250.8 502.2,237.9 487.9,246.2 			"/>
			<g>
				<path class="st6" d="M520.2,250.2c-3.5,1.8-6.9,3.7-10.3,5.5c-0.3,0.1,0,0.5,0.2,0.4c3.4-1.9,6.8-3.7,10.2-5.7
					C520.5,250.4,520.4,250.2,520.2,250.2z"/>
				<path class="st6" d="M518.7,249.2c-3.5,1.8-6.9,3.7-10.3,5.5c-0.3,0.1,0,0.5,0.2,0.4c3.4-1.9,6.8-3.7,10.2-5.7
					C519,249.4,518.8,249.1,518.7,249.2z"/>
				<path class="st6" d="M516.9,248.3c-3.5,1.8-6.9,3.7-10.3,5.5c-0.3,0.1,0,0.5,0.2,0.4c3.4-1.9,6.8-3.7,10.2-5.7
					C517.2,248.5,517.1,248.2,516.9,248.3z"/>
				<path class="st6" d="M515.4,247.3c-3.5,1.8-6.9,3.7-10.3,5.5c-0.3,0.1,0,0.5,0.2,0.4c3.4-1.9,6.8-3.7,10.2-5.7
					C515.7,247.5,515.5,247.2,515.4,247.3z"/>
				<path class="st6" d="M511.6,245.6c-3.5,1.8-6.9,3.7-10.3,5.5c-0.3,0.1,0,0.5,0.2,0.4c3.4-1.9,6.8-3.7,10.2-5.7
					C511.9,245.8,511.8,245.5,511.6,245.6z"/>
				<path class="st6" d="M510.1,244.7c-3.5,1.8-6.9,3.7-10.3,5.5c-0.3,0.1,0,0.5,0.2,0.4c3.4-1.9,6.8-3.7,10.2-5.7
					C510.3,244.8,510.2,244.6,510.1,244.7z"/>
				<path class="st6" d="M507.7,243.3c-3.5,1.8-6.9,3.7-10.3,5.5c-0.3,0.1,0,0.5,0.2,0.4c3.4-1.9,6.8-3.7,10.2-5.7
					C508,243.4,507.9,243.2,507.7,243.3z"/>
				<path class="st6" d="M506.2,242.3c-3.5,1.8-6.9,3.7-10.3,5.5c-0.3,0.1,0,0.5,0.2,0.4c3.4-1.9,6.8-3.7,10.2-5.7
					C506.5,242.4,506.3,242.2,506.2,242.3z"/>
				<path class="st6" d="M504.4,241.4c-3.5,1.8-6.9,3.7-10.3,5.5c-0.3,0.1,0,0.5,0.2,0.4c3.4-1.9,6.8-3.7,10.2-5.7
					C504.7,241.5,504.6,241.3,504.4,241.4z"/>
				<path class="st6" d="M502.9,240.4c-3.5,1.8-6.9,3.7-10.3,5.5c-0.3,0.1,0,0.5,0.2,0.4c3.4-1.9,6.8-3.7,10.2-5.7
					C503.2,240.5,503,240.3,502.9,240.4z"/>
			</g>
		</g>
		<g>
			<polygon class="st7" points="493.1,218.5 507.5,210.2 485.1,197.4 470.8,205.7 			"/>
			<polygon class="st10" points="481.3,209.9 492.7,203.3 485.1,198.9 473.7,205.5 			"/>
			<path class="st6" d="M503.6,210.2c-3.5,1.8-6.9,3.7-10.3,5.5c-0.3,0.1,0,0.5,0.2,0.4c3.4-1.9,6.8-3.7,10.2-5.7
				C503.9,210.3,503.8,210.1,503.6,210.2z"/>
			<path class="st6" d="M502.1,209.1c-3.5,1.8-6.9,3.7-10.3,5.5c-0.3,0.1,0,0.5,0.2,0.4c3.4-1.9,6.8-3.7,10.2-5.7
				C502.4,209.3,502.2,209.1,502.1,209.1z"/>
			<path class="st6" d="M500.3,208.3c-3.5,1.8-6.9,3.7-10.3,5.5c-0.3,0.1,0,0.5,0.2,0.4c3.4-1.9,6.8-3.7,10.2-5.7
				C500.6,208.4,500.5,208.2,500.3,208.3z"/>
			<path class="st6" d="M498.8,207.2c-3.5,1.8-6.9,3.7-10.3,5.5c-0.3,0.1,0,0.5,0.2,0.4c3.4-1.9,6.8-3.7,10.2-5.7
				C499,207.4,498.9,207.2,498.8,207.2z"/>
			<path class="st6" d="M495,205.5c-3.5,1.8-6.9,3.7-10.3,5.5c-0.3,0.1,0,0.5,0.2,0.4c3.4-1.9,6.8-3.7,10.2-5.7
				C495.3,205.7,495.1,205.5,495,205.5z"/>
			<path class="st6" d="M493.4,204.6c-3.5,1.8-6.9,3.7-10.3,5.5c-0.3,0.1,0,0.5,0.2,0.4c3.4-1.9,6.8-3.7,10.2-5.7
				C493.7,204.7,493.6,204.5,493.4,204.6z"/>
		</g>
		<g>
			<polygon class="st7" points="432.2,242.9 417.9,234.7 440.2,221.9 454.5,230.1 			"/>
			<polygon class="st10" points="444,234.3 432.6,227.7 440.2,223.4 451.6,229.9 			"/>
			<path class="st6" d="M421.7,234.6c3.5,1.8,6.9,3.7,10.3,5.5c0.3,0.1,0,0.5-0.2,0.4c-3.4-1.9-6.8-3.7-10.2-5.7
				C421.4,234.8,421.6,234.5,421.7,234.6z"/>
			<path class="st6" d="M423.3,233.6c3.5,1.8,6.9,3.7,10.3,5.5c0.3,0.1,0,0.5-0.2,0.4c-3.4-1.9-6.8-3.7-10.2-5.7
				C423,233.8,423.1,233.5,423.3,233.6z"/>
			<path class="st6" d="M425,232.7c3.5,1.8,6.9,3.7,10.3,5.5c0.3,0.1,0,0.5-0.2,0.4c-3.4-1.9-6.8-3.7-10.2-5.7
				C424.7,232.9,424.9,232.6,425,232.7z"/>
			<path class="st6" d="M426.6,231.7c3.5,1.8,6.9,3.7,10.3,5.5c0.3,0.1,0,0.5-0.2,0.4c-3.4-1.9-6.8-3.7-10.2-5.7
				C426.3,231.8,426.4,231.6,426.6,231.7z"/>
			<path class="st6" d="M430.3,230c3.5,1.8,6.9,3.7,10.3,5.5c0.3,0.1,0,0.5-0.2,0.4c-3.4-1.9-6.8-3.7-10.2-5.7
				C430,230.1,430.2,229.9,430.3,230z"/>
			<path class="st6" d="M431.9,229.1c3.5,1.8,6.9,3.7,10.3,5.5c0.3,0.1,0,0.5-0.2,0.4c-3.4-1.9-6.8-3.7-10.2-5.7
				C431.6,229.2,431.7,229,431.9,229.1z"/>
		</g>
		<g>
			<g>
				<path class="st5" d="M501.3,214.1l0.6,0.7c0.2-0.2,0.5-0.4,0.8-0.6l8.8-5.1c2-1.2,5-1.3,6.8-0.3l14.1,8.1
					c0.1,0.1,0.2,0.1,0.3,0.2l0.6-0.7c0,0,0.7,1.4,0.1,2.8c0,0,0,0,0,0.1c-0.2,0.6-0.7,1.1-1.5,1.6l-8.8,5.1c-2,1.2-5,1.3-6.8,0.3
					l-14.1-8.1c-0.5-0.3-0.8-0.7-1-1c0-0.1-0.1-0.1-0.1-0.2C500.5,215.5,501.3,214.1,501.3,214.1z"/>
				<path class="st23" d="M516.3,224.8l-14.1-8.1c-1.7-1-1.5-2.8,0.5-3.9l8.8-5.1c2-1.2,5-1.3,6.8-0.3l14.1,8.1
					c1.7,1,1.5,2.8-0.5,3.9l-8.8,5.1C521.1,225.7,518,225.8,516.3,224.8z"/>
			</g>
			<g>
				<g>
					<path class="st18" d="M516.5,208.3l-1.1-0.7c-0.1-0.1-0.3-0.1-0.4,0l-0.6,0.4c-0.1,0.1-0.1,0.2,0,0.3l1.1,0.7
						c0.1,0.1,0.3,0.1,0.4,0l0.6-0.4C516.6,208.4,516.6,208.3,516.5,208.3z"/>
					<path class="st18" d="M521,210.8l-3.4-2c-0.1-0.1-0.3-0.1-0.4,0l-0.6,0.4c-0.1,0.1-0.1,0.2,0,0.3l3.4,2c0.1,0.1,0.3,0.1,0.4,0
						l0.6-0.4C521,211,521.1,210.9,521,210.8z"/>
					<path class="st18" d="M523.2,212.1l-1.1-0.7c-0.1-0.1-0.3-0.1-0.4,0l-0.6,0.4c-0.1,0.1-0.1,0.2,0,0.3l1.1,0.7
						c0.1,0.1,0.3,0.1,0.4,0l0.6-0.4C523.2,212.3,523.3,212.2,523.2,212.1z"/>
					<path class="st18" d="M513.1,210.2l-1.1-0.7c-0.1-0.1-0.3-0.1-0.4,0l-0.6,0.4c-0.1,0.1-0.1,0.2,0,0.3l1.1,0.7
						c0.1,0.1,0.3,0.1,0.4,0l0.6-0.4C513.2,210.4,513.2,210.3,513.1,210.2z"/>
					<path class="st18" d="M515.3,211.5l-1.1-0.7c-0.1-0.1-0.3-0.1-0.4,0l-0.6,0.4c-0.1,0.1-0.1,0.2,0,0.3l1.1,0.7
						c0.1,0.1,0.3,0.1,0.4,0l0.6-0.4C515.4,211.7,515.4,211.5,515.3,211.5z"/>
					<path class="st18" d="M517.6,212.8l-1.1-0.7c-0.1-0.1-0.3-0.1-0.4,0l-0.6,0.4c-0.1,0.1-0.1,0.2,0,0.3l1.1,0.7
						c0.1,0.1,0.3,0.1,0.4,0l0.6-0.4C517.7,213,517.7,212.8,517.6,212.8z"/>
					<path class="st18" d="M519.8,214.1l-1.1-0.7c-0.1-0.1-0.3-0.1-0.4,0l-0.6,0.4c-0.1,0.1-0.1,0.2,0,0.3l1.1,0.7
						c0.1,0.1,0.3,0.1,0.4,0l0.6-0.4C519.9,214.2,519.9,214.1,519.8,214.1z"/>
					<path class="st18" d="M511.4,211.2l-1.1-0.7c-0.1-0.1-0.3-0.1-0.4,0l-0.6,0.4c-0.1,0.1-0.1,0.2,0,0.3l1.1,0.7
						c0.1,0.1,0.3,0.1,0.4,0l0.6-0.4C511.5,211.4,511.5,211.2,511.4,211.2z"/>
					<path class="st18" d="M513.6,212.4l-1.1-0.7c-0.1-0.1-0.3-0.1-0.4,0l-0.6,0.4c-0.1,0.1-0.1,0.2,0,0.3l1.1,0.7
						c0.1,0.1,0.3,0.1,0.4,0l0.6-0.4C513.7,212.6,513.7,212.5,513.6,212.4z"/>
					<path class="st18" d="M515.9,213.8l-1.1-0.7c-0.1-0.1-0.3-0.1-0.4,0l-0.6,0.4c-0.1,0.1-0.1,0.2,0,0.3l1.1,0.7
						c0.1,0.1,0.3,0.1,0.4,0l0.6-0.4C516,213.9,516,213.8,515.9,213.8z"/>
					<path class="st18" d="M518.1,215l-1.1-0.7c-0.1-0.1-0.3-0.1-0.4,0l-0.6,0.4c-0.1,0.1-0.1,0.2,0,0.3l1.1,0.7
						c0.1,0.1,0.3,0.1,0.4,0l0.6-0.4C518.2,215.2,518.2,215.1,518.1,215z"/>
					<path class="st18" d="M509.3,212.4l-1.1-0.7c-0.1-0.1-0.3-0.1-0.4,0l-0.6,0.4c-0.1,0.1-0.1,0.2,0,0.3l1.1,0.7
						c0.1,0.1,0.3,0.1,0.4,0l0.6-0.4C509.4,212.6,509.4,212.5,509.3,212.4z"/>
					<path class="st18" d="M511.5,213.7l-1.1-0.7c-0.1-0.1-0.3-0.1-0.4,0l-0.6,0.4c-0.1,0.1-0.1,0.2,0,0.3l1.1,0.7
						c0.1,0.1,0.3,0.1,0.4,0l0.6-0.4C511.6,213.9,511.6,213.7,511.5,213.7z"/>
					<path class="st18" d="M513.8,215l-1.1-0.7c-0.1-0.1-0.3-0.1-0.4,0l-0.6,0.4c-0.1,0.1-0.1,0.2,0,0.3l1.1,0.7
						c0.1,0.1,0.3,0.1,0.4,0l0.6-0.4C513.9,215.2,513.9,215.1,513.8,215z"/>
					<path class="st18" d="M516,216.3l-1.1-0.7c-0.1-0.1-0.3-0.1-0.4,0l-0.6,0.4c-0.1,0.1-0.1,0.2,0,0.3l1.1,0.7
						c0.1,0.1,0.3,0.1,0.4,0l0.6-0.4C516.1,216.4,516.1,216.3,516,216.3z"/>
					<path class="st18" d="M514.8,209.2l-1.1-0.7c-0.1-0.1-0.3-0.1-0.4,0l-0.6,0.4c-0.1,0.1-0.1,0.2,0,0.3l1.1,0.7
						c0.1,0.1,0.3,0.1,0.4,0l0.6-0.4C514.9,209.4,514.9,209.3,514.8,209.2z"/>
					<path class="st18" d="M517,210.5l-1.1-0.7c-0.1-0.1-0.3-0.1-0.4,0l-0.6,0.4c-0.1,0.1-0.1,0.2,0,0.3l1.1,0.7
						c0.1,0.1,0.3,0.1,0.4,0l0.6-0.4C517.1,210.7,517.1,210.6,517,210.5z"/>
					<path class="st18" d="M519.3,211.8l-1.1-0.7c-0.1-0.1-0.3-0.1-0.4,0l-0.6,0.4c-0.1,0.1-0.1,0.2,0,0.3l1.1,0.7
						c0.1,0.1,0.3,0.1,0.4,0l0.6-0.4C519.4,212,519.4,211.9,519.3,211.8z"/>
					<path class="st18" d="M521.5,213.1l-1.1-0.7c-0.1-0.1-0.3-0.1-0.4,0l-0.6,0.4c-0.1,0.1-0.1,0.2,0,0.3l1.1,0.7
						c0.1,0.1,0.3,0.1,0.4,0l0.6-0.4C521.6,213.3,521.6,213.1,521.5,213.1z"/>
					<path class="st18" d="M525.4,213.4l-1.1-0.7c-0.1-0.1-0.3-0.1-0.4,0l-0.6,0.4c-0.1,0.1-0.1,0.2,0,0.3l1.1,0.7
						c0.1,0.1,0.3,0.1,0.4,0l0.6-0.4C525.5,213.6,525.5,213.5,525.4,213.4z"/>
					<path class="st18" d="M522,215.3l-1.1-0.7c-0.1-0.1-0.3-0.1-0.4,0l-2.3,1.3c-0.1,0.1-0.1,0.2,0,0.3l1.1,0.7
						c0.1,0.1,0.3,0.1,0.4,0l2.3-1.3C522.1,215.5,522.1,215.4,522,215.3z"/>
					<path class="st18" d="M518.2,217.5l-1.1-0.7c-0.1-0.1-0.3-0.1-0.4,0l-0.6,0.4c-0.1,0.1-0.1,0.2,0,0.3l1.1,0.7
						c0.1,0.1,0.3,0.1,0.4,0l0.6-0.4C518.3,217.7,518.3,217.6,518.2,217.5z"/>
					<path class="st18" d="M523.7,214.4l-1.1-0.7c-0.1-0.1-0.3-0.1-0.4,0l-0.6,0.4c-0.1,0.1-0.1,0.2,0,0.3l1.1,0.7
						c0.1,0.1,0.3,0.1,0.4,0l0.6-0.4C523.8,214.6,523.8,214.4,523.7,214.4z"/>
				</g>
				<g>
					<path class="st18" d="M527.6,214.7l-1.1-0.7c-0.1-0.1-0.3-0.1-0.4,0l-0.6,0.4c-0.1,0.1-0.1,0.2,0,0.3l1.1,0.7
						c0.1,0.1,0.3,0.1,0.4,0l0.6-0.4C527.7,214.8,527.7,214.7,527.6,214.7z"/>
					<path class="st18" d="M532.1,217.3l-3.4-2c-0.1-0.1-0.3-0.1-0.4,0l-0.6,0.4c-0.1,0.1-0.1,0.2,0,0.3l3.4,2
						c0.1,0.1,0.3,0.1,0.4,0l0.6-0.4C532.2,217.4,532.2,217.3,532.1,217.3z"/>
					<path class="st18" d="M524.2,216.6l-1.1-0.7c-0.1-0.1-0.3-0.1-0.4,0l-0.6,0.4c-0.1,0.1-0.1,0.2,0,0.3l1.1,0.7
						c0.1,0.1,0.3,0.1,0.4,0l0.6-0.4C524.3,216.8,524.3,216.7,524.2,216.6z"/>
					<path class="st18" d="M526.4,217.9l-1.1-0.7c-0.1-0.1-0.3-0.1-0.4,0l-0.6,0.4c-0.1,0.1-0.1,0.2,0,0.3l1.1,0.7
						c0.1,0.1,0.3,0.1,0.4,0l0.6-0.4C526.5,218.1,526.5,217.9,526.4,217.9z"/>
					<path class="st18" d="M528.7,219.2l-1.1-0.7c-0.1-0.1-0.3-0.1-0.4,0l-0.6,0.4c-0.1,0.1-0.1,0.2,0,0.3l1.1,0.7
						c0.1,0.1,0.3,0.1,0.4,0l0.6-0.4C528.8,219.4,528.8,219.3,528.7,219.2z"/>
					<path class="st18" d="M522.5,217.6l-1.1-0.7c-0.1-0.1-0.3-0.1-0.4,0l-0.6,0.4c-0.1,0.1-0.1,0.2,0,0.3l1.1,0.7
						c0.1,0.1,0.3,0.1,0.4,0l0.6-0.4C522.6,217.8,522.6,217.6,522.5,217.6z"/>
					<path class="st18" d="M524.7,218.9l-1.1-0.7c-0.1-0.1-0.3-0.1-0.4,0l-0.6,0.4c-0.1,0.1-0.1,0.2,0,0.3l1.1,0.7
						c0.1,0.1,0.3,0.1,0.4,0l0.6-0.4C524.8,219,524.8,218.9,524.7,218.9z"/>
					<path class="st18" d="M527,220.2l-1.1-0.7c-0.1-0.1-0.3-0.1-0.4,0l-0.6,0.4c-0.1,0.1-0.1,0.2,0,0.3l1.1,0.7
						c0.1,0.1,0.3,0.1,0.4,0l0.6-0.4C527.1,220.3,527.1,220.2,527,220.2z"/>
					<path class="st18" d="M520.4,218.8l-1.1-0.7c-0.1-0.1-0.3-0.1-0.4,0l-0.6,0.4c-0.1,0.1-0.1,0.2,0,0.3l1.1,0.7
						c0.1,0.1,0.3,0.1,0.4,0l0.6-0.4C520.5,219,520.5,218.9,520.4,218.8z"/>
					<path class="st18" d="M522.6,220.1l-1.1-0.7c-0.1-0.1-0.3-0.1-0.4,0l-0.6,0.4c-0.1,0.1-0.1,0.2,0,0.3l1.1,0.7
						c0.1,0.1,0.3,0.1,0.4,0l0.6-0.4C522.7,220.3,522.7,220.1,522.6,220.1z"/>
					<path class="st18" d="M524.9,221.4l-1.1-0.7c-0.1-0.1-0.3-0.1-0.4,0l-0.6,0.4c-0.1,0.1-0.1,0.2,0,0.3l1.1,0.7
						c0.1,0.1,0.3,0.1,0.4,0l0.6-0.4C525,221.6,525,221.5,524.9,221.4z"/>
					<path class="st18" d="M516.4,218.6l-1.1-0.7c-0.1-0.1-0.3-0.1-0.4,0l-0.6,0.4c-0.1,0.1-0.1,0.2,0,0.3l1.1,0.7
						c0.1,0.1,0.3,0.1,0.4,0l0.6-0.4C516.5,218.8,516.5,218.6,516.4,218.6z"/>
					<path class="st18" d="M518.6,219.8l-1.1-0.7c-0.1-0.1-0.3-0.1-0.4,0l-0.6,0.4c-0.1,0.1-0.1,0.2,0,0.3l1.1,0.7
						c0.1,0.1,0.3,0.1,0.4,0l0.6-0.4C518.7,220,518.7,219.9,518.6,219.8z"/>
					<path class="st18" d="M520.8,221.1l-1.1-0.7c-0.1-0.1-0.3-0.1-0.4,0l-0.6,0.4c-0.1,0.1-0.1,0.2,0,0.3l1.1,0.7
						c0.1,0.1,0.3,0.1,0.4,0l0.6-0.4C520.9,221.3,520.9,221.2,520.8,221.1z"/>
					<path class="st18" d="M523,222.4l-1.1-0.7c-0.1-0.1-0.3-0.1-0.4,0l-0.6,0.4c-0.1,0.1-0.1,0.2,0,0.3l1.1,0.7
						c0.1,0.1,0.3,0.1,0.4,0l0.6-0.4C523.1,222.6,523.2,222.5,523,222.4z"/>
					<path class="st18" d="M525.9,215.6l-1.1-0.7c-0.1-0.1-0.3-0.1-0.4,0l-0.6,0.4c-0.1,0.1-0.1,0.2,0,0.3l1.1,0.7
						c0.1,0.1,0.3,0.1,0.4,0l0.6-0.4C526,215.8,526,215.7,525.9,215.6z"/>
					<path class="st18" d="M528.1,216.9l-1.1-0.7c-0.1-0.1-0.3-0.1-0.4,0l-0.6,0.4c-0.1,0.1-0.1,0.2,0,0.3l1.1,0.7
						c0.1,0.1,0.3,0.1,0.4,0l0.6-0.4C528.2,217.1,528.2,217,528.1,216.9z"/>
					<path class="st18" d="M530.4,218.2l-1.1-0.7c-0.1-0.1-0.3-0.1-0.4,0l-0.6,0.4c-0.1,0.1-0.1,0.2,0,0.3l1.1,0.7
						c0.1,0.1,0.3,0.1,0.4,0l0.6-0.4C530.5,218.4,530.5,218.3,530.4,218.2z"/>
				</g>
			</g>
			<g>
				<path class="st5" d="M492.8,198.5c0.5-1,1.7-1.1,1.8-1.1l0,0l0,0l0,0c0.4,0,0.9,0.1,1.3,0.4l16.6,9.5c1,0.6,1.9,1.9,2.4,3.3
					c0.2,0.6,3.4,8.1,4.3,10.5c0.4,1,0.5,1.7,0.4,2.2l0,0l0,0c0,0.1,0,0.1,0,0.2c-0.2,1.1-1.7,1.2-1.7,1.2l-0.1-1c0,0-0.1,0-0.1-0.1
					l-15-8.7c-1.5-0.9-2.7-2.9-3.7-4.9c0,0-3.5-7.5-4.6-9.9l-0.3,0.3C494.1,200.5,492.4,199.2,492.8,198.5z"/>
				<path class="st6" d="M501.6,215.7l15,8.7c1.5,0.9,2.7,0.5,1.5-2.5c-0.9-2.5-4.1-10-4.3-10.5c-0.5-1.4-1.4-2.7-2.4-3.3l-16.6-9.5
					c-0.9-0.5-1.9-0.6-2.1,0.3c-0.1,0.4,0.1,0.9,0.3,1.3c0.1,0.3,5,10.6,5,10.6C498.9,212.8,500.1,214.8,501.6,215.7z"/>
			</g>
			<g>
				<polygon class="st25" points="512.8,223.5 515.2,224.9 514.3,222.7 511.9,221.4 				"/>
				<polygon class="st18" points="511.9,221.4 512.3,221.1 514.7,222.5 514.3,222.7 				"/>
				<polygon class="st26" points="515.2,224.9 515.5,224.7 514.7,222.5 514.3,222.7 				"/>
			</g>
			<g>
				<polygon class="st25" points="502.6,217.6 505,219 504.1,216.8 501.7,215.5 				"/>
				<polygon class="st18" points="501.7,215.5 502.1,215.2 504.5,216.6 504.1,216.8 				"/>
				<polygon class="st26" points="505,219 505.4,218.8 504.5,216.6 504.1,216.8 				"/>
			</g>
		</g>
		<g>
			<path class="st9" d="M449.5,248.4c1.1-0.6,2-2.9,3.8-4.6c1.7-1.7,2.2-2.3,2.7-2.3s1.1,0.7,0,1.8s-1.5,2.2-1.5,2.2
				s1.8-0.1,3.8-1.3s3-2.2,4-1.3c1.1,0.9-1,4.4-3,5.5s-5.2,1.4-5.9,1.9c-0.7,0.4-2.7,1-2.7,1L449.5,248.4z"/>
			<path class="st18" d="M417.7,323.9c-0.3,1-1.1,2.9-2.2,4.6c-1.3,2.2,0.1,3.9,1.9,4.4c1.8,0.6,4.4,0.2,8.7-2.1
				c4.3-2.3,6.2-4.6,6.3-6c0.2-1.5-2-3.6-5.7-2.5c-3.7,1.2-5.6,2-5.6,2L417.7,323.9z"/>
			<path class="st18" d="M392.4,303.5c0,0-3.8,2.3-5.1,3.1c0,0.6,0.7,2.4,2.8,6.1c2.1,3.7,5.8,5.7,8.9,3.7s5.1-5.2,2.6-6
				c-2.6-0.9-4.8,0-4.8,0s-0.9-2-1.8-4.3C394,303.8,392.4,303.5,392.4,303.5z"/>
			<path class="st5" d="M387.2,306.6c0,0,3.3,0.3,4.4,3.7c1,3.5,2.9,6,3.8,6.7c-3-0.4-4-1.4-5.8-4.9
				C388,309.1,386.4,307.1,387.2,306.6z"/>
			<path class="st5" d="M396.2,309c-0.2,0,0.3,1.3,0,2.4c-0.3,1.3-0.2,2.1,0.7,1.3c0.8-0.8,0.4-2.5,0.4-2.5S397,308.9,396.2,309z"/>
			<path class="st5" d="M423.7,323.4c0.4,0.3,2.2,1,3.2,2.4c1.1,1.3,2.2,0.2,1.5-1.1c-0.8-1.4-2.7-1.9-2.7-1.9
				S424.1,323,423.7,323.4z"/>
			<path class="st5" d="M403.6,257.7c0,0-3.5,1.6-4.7,8.2c-0.5,3,0.4,7.3,1.7,11.2c1.5,4.8,3.5,8.8,3.5,8.8s-3.8,1.7-7.1,6.4
				c-2.1,3-6.4,12.3-6.4,12.3s0.5,1.2,1.9,2.4c1.4,1.2,3.4,1.2,3.4,1.2s8.2-9.8,12-14.6c3.8-4.8,5.4-4.4,5.3-7.9
				c-0.1-2.9,0.1-17.5,0.1-17.5L403.6,257.7z"/>
			<path class="st6" d="M421.4,266c0,0,4.4,6.1,7.5,13.5c2.2,5.3,4.2,11.8,5.2,15.1c0.4,1.3,0.2,3-0.4,4.4c-1.5,3.2-4.3,9.4-6.4,14
				c-3,6.6-3.5,10.2-4.4,12.7c-1.3,1.6-4.8,1.5-5.8,0c0-4.4-0.7-5.4,0-13.5c1-11.3,7.1-14.4,7.1-14.4s-3-3.3-3.8-8.4
				c-4.7-2.1-7.4-6.6-8.9-9.6c-6.9-2.2-15.7-6.6-12.6-16.4c0.6-2,2.9-7,4.5-7.5C410,254.1,421.4,266,421.4,266z"/>
			<path class="st9" d="M430.7,210.5c-1.8-2-4.5-2.5-7.1-1.6c-2.5,0.8-3.8,2.2-4.3,3.9c-0.2,0.6-0.6,3.1-0.6,3.9
				c0.3,2.3,2,5.3,2.7,6.9c0.9,2,2.8,3.3,5.3,3c3.4-0.5,4.1-4.7,5.1-7.5C432.9,215.9,433.1,213.1,430.7,210.5z"/>
			<path class="st24" d="M415.4,224.5c0,0-4.3-5.1-8.5-2.4c-5.2,3.4-5.9,8.9-8.7,12.1c-2.8,3.3-3.3,4.1-4,6.3
				c-0.4,1.5,0.2,2.3,1.1,3c0.5,0.3,1.4,3.6,2,4.5c1.2,1.9,4.6,4.6,4.6,4.6S416.4,227.5,415.4,224.5z"/>
			<path class="st27" d="M421.1,226.7c-6.2-3.7-7.9-5.4-12.9-2.4c-3.1,1.8-5.3,9.4-5.7,13.4c-0.4,4.1-2.8,12.4-2.2,14.4
				c0.5,1.6,2.4,2.1-0.1,3.8c-2,1.4-0.5,2.3,0.1,4c1.1,3.2,5.8,8.1,11.5,9.1c5.6,1,10.1,0.7,11.3-0.6c1.2-1.3,1.4-2.6,0-4.7
				c-0.9-1.4,0.7-3.3,1.7-5c1-1.8,6.3-12.8,7.8-18.9C434.1,233.7,428.1,230.9,421.1,226.7z"/>
			<path class="st9" d="M420.4,215.1c0,0-0.9,3.5-1.7,5.1c-1.1,2.3-3.3,3.6-3.3,3.6s-2.6,2.9,0.7,4.9c3.3,2,7.9-0.4,7.9-0.4
				s0.3-1.9,2.1-5C427.5,220.9,420.4,215.1,420.4,215.1z"/>
			<path class="st5" d="M432.6,209.9c0.3-2.9-3.2-4.2-4.9-2.5c-0.9-3.3-5.8-4-8.5-2.7c-1.1,0.5-2,1.8-2,3c-1.2-0.3-3,0.6-3.3,2.1
				c-0.2,1,0.4,2.1,0.9,2.8c-0.5,0.4-1.3,1.1-1.2,2.5c0.5,3.7,4.6,6,4.5,9.5c1.5-0.1,3.8-0.7,5.8-1.3c2.3-0.7,5.8-3.3,6.5-5.3
				c1.7,0.2,2.4-1,2.4-2.3C435.2,215.1,435.7,211.2,432.6,209.9z"/>
			<path class="st9" d="M425.3,219.5c-1.5,2.5,1.1,4,1.1,4l2.3-2.6C428.7,221,426.9,216.7,425.3,219.5z"/>
			<path class="st24" d="M406.1,258.5c0,0,3.4,5.1,7.2,6.1c3.9,1.1,5.4,1,5.4,1s-2.2-2.5-5-3.6C410.8,261,406.1,258.5,406.1,258.5z"
				/>
			<path class="st24" d="M425.6,233.1c-2.1,1.7-3.8,6-4.7,9.9c-0.8,3.9-0.6,7.7,1.2,9c1.9,1.3,2.7,1.6,5.3,1.1
				c0.7,1.5,3.7,4,8.2,6.6c7.6,0,12.7-7.1,17-9c0.7-1.4,0-4.2-1.7-4.2c-2.3,0.7-4.2,1.2-7.3,1.8c-2.4,0.5-4,0.9-5.6,1.7
				c0,0-3-12.4-4.2-14.4C430.9,230.6,427.9,231.2,425.6,233.1z"/>
			<path class="st24" d="M415.2,222.7c-1.4,0.3-3.5,2.7-0.7,5.7s7.8,1.5,9.2,1.1c1.4-0.4,1.4-0.4,1.4-0.4s0.1-2.2-3.1-2.6
				c-1.9-0.3-4.7-1.3-5.3-2.5C416,222.5,416,222.5,415.2,222.7z"/>
		</g>
		<g>
			<path class="st13" d="M358.4,268.2c0,0,1.7-2.2,4.5-0.4c2.8,1.8,12,7.1,12,7.1l0.4,5.9L358.4,268.2z"/>
			<path class="st11" d="M358.4,318.4c3-2,6.1-3.8,9.1-5.7c1.7-1.1,3.6-2.7,5.5-3.4c0.8-0.3,1.7-0.3,2.2,0.5c0.6,1-0.1,1.5-0.9,2
				c-2.1,1.2-4.3,2.4-6.4,3.6c-3.2,1.8-6.3,3.7-9.4,5.7L358.4,318.4z"/>
			<path class="st11" d="M377.6,312c0.4-0.8,1.4-0.9,2.2-0.7c2,0.5,3.9,2,5.7,3c3.9,2.1,8.1,4.1,11.8,6.6v2.5
				c-4-2.2-8.1-4.3-12.2-6.4c-2.2-1.1-4.4-2.1-6.6-3.2C377.8,313.5,377.1,313,377.6,312z"/>
			<path class="st4" d="M355.3,318.8c0.2-6.5,0.7-12.9,1.5-19.2c0-0.3,0.2-0.4,0.4-0.3c0.5,0.4,1,0.7,1.5,1.1c0.1,0,0.1,0.1,0.1,0.2
				c0.1-0.2,0.3-0.2,0.3,0.1c0.5,6.7,0.6,13.5,0.8,20.3c0.1,3.1,1.3,8.1-2.7,8C354.1,329.1,355.2,321.8,355.3,318.8z"/>
			<path class="st4" d="M399.7,320.9c-0.2-6.5-0.7-12.9-1.5-19.2c0-0.3-0.2-0.4-0.4-0.3c-0.5,0.4-1,0.7-1.5,1.1
				c-0.1,0-0.1,0.1-0.1,0.2c-0.1-0.2-0.3-0.2-0.3,0.1c-0.5,6.7-0.6,13.5-0.8,20.3c-0.1,3.1-1.3,8.1,2.7,8
				C400.8,331.1,399.8,323.9,399.7,320.9z"/>
			<path class="st11" d="M357.7,321.7c0.4-0.8,1.4-0.9,2.2-0.7c2,0.5,3.9,2,5.7,3c3.9,2.1,8.1,4.1,11.8,6.6v2.5
				c-4-2.2-8.1-4.3-12.2-6.4c-2.2-1.1-4.4-2.1-6.6-3.2C357.9,323.2,357.2,322.7,357.7,321.7z"/>
			<path class="st11" d="M380.1,330.3c3-2,6.1-3.8,9.1-5.7c1.7-1.1,3.6-2.7,5.5-3.4c0.8-0.3,1.7-0.3,2.2,0.5c0.6,1-0.1,1.5-0.9,2
				c-2.1,1.2-4.3,2.4-6.4,3.6c-3.2,1.8-6.3,3.7-9.4,5.7L380.1,330.3z"/>
			<path class="st4" d="M377.5,312.9l2.6-2.1c0.5,6.7,1.1,15.9,1.3,22.6c0.1,3.1,1.3,8.1-2.7,8c-3,0-2-7.3-1.9-10.3
				C376.9,325.1,376.8,318.8,377.5,312.9z"/>
			<g>
				<path class="st11" d="M355.7,299.1h2.2l14-8.1c1.9-1.1,5.2-0.9,7.3,0.3l16.3,9.4l3.1,0.3v2.6c0,0.1,0,0.2,0,0.3v0.3l0,0
					c-0.1,0.6-0.5,1.1-1.2,1.5l-15,8.6c-1.9,1.1-5.2,0.9-7.3-0.3l-17.6-10.1c-1.3-0.7-1.8-1.7-1.8-2.6l0,0
					C355.7,301.3,355.8,299.4,355.7,299.1z"/>
				<path class="st12" d="M382.5,311.5l15-8.6c1.9-1.1,1.6-3-0.5-4.2l-17.6-10.1c-2.2-1.2-5.5-1.4-7.3-0.3l-15,8.6
					c-1.9,1.1-1.6,3,0.5,4.2l17.6,10.1C377.3,312.5,380.6,312.6,382.5,311.5z"/>
			</g>
			<g>
				<path class="st13" d="M387.9,303.7c-3.5,1.9-7.4,4.9-11.6,3.6c-3.6-1.2-7.1-3.7-10.3-5.7c-2.2-1.4-4.3-2.8-6-4.7
					c1.1-1.6,3.1-2.9,4.4-3.8c3.4-2.4,12.5-7,13.7-6.9c0.5,0,1.1,0.1,1.7,0.3c2.2,0.6,4.6,1.8,6.5,2.7c2.9,1.3,5.6,2.8,8,4.9
					c0.8,0.6,1.8,1.4,2.3,2.3C396.6,300.2,390.7,302.2,387.9,303.7z"/>
				<path class="st14" d="M396.6,301.6c-2.2,1.6-6.1,3.2-8.1,4.4c-2.1,1.3-6.2,4.2-8.5,4.7c-1.4,0.3-4-0.3-5.8-1.2
					c-2.6-1.3-5.1-2.9-7.7-4.4c-2.1-1.2-5-2.3-6.6-4.2c-1.1-1.4-0.8-2.8,0.1-4c1.6,1.9,3.8,3.3,6,4.7c3.2,2,6.6,4.5,10.3,5.7
					c4.1,1.3,8.1-1.7,11.6-3.6c2.8-1.5,8.7-3.6,8.8-7.3c0.1,0.1,0.1,0.2,0.2,0.3C397.4,297.9,397.8,300.7,396.6,301.6z"/>
			</g>
			<path class="st11" d="M354.3,261.2c-1.3,0.7-0.8,2.9,0.2,7.6c0.5,2.3,1.1,10.9,1.2,14.8c0.1,3.8-0.2,15.4,0,17.8
				c0.2,2.3,2.1,2.5,2.3,0.5c0.1-2,1-15.5,1-19.7s-0.6-14.2-1.4-17.7C356.7,260.9,355.4,260.6,354.3,261.2z"/>
			<path class="st4" d="M356.2,267l18.2,10.5l0.8,14.1l-17.6-10.2c0,0,0.2-4.7-0.3-8.3C356.9,270.4,356.2,267,356.2,267z"/>
			<polygon class="st12" points="357.7,266.1 356.2,267 374.5,277.5 375.9,276.6 			"/>
			<path class="st11" d="M373.3,272c-1.3,0.7-0.8,2.9,0.2,7.6c0.5,2.3,1.1,10.9,1.2,14.8c0.1,3.8-0.2,15.4,0,17.8
				c0.2,2.3,2.1,2.5,2.3,0.5c0.1-2,1-15.5,1-19.7s-0.6-14.2-1.4-17.7C375.7,271.7,374.4,271.4,373.3,272z"/>
		</g>
		<g>
			<path class="st13" d="M561.7,269c0,0-1.7-2.2-4.5-0.4c-2.8,1.8-12,7.1-12,7.1l-0.4,5.9L561.7,269z"/>
			<path class="st11" d="M561.7,319.2c-3-2-6.1-3.8-9.1-5.7c-1.7-1.1-3.6-2.7-5.5-3.4c-0.8-0.3-1.7-0.3-2.2,0.5
				c-0.6,1,0.1,1.5,0.9,2c2.1,1.2,4.3,2.4,6.4,3.6c3.2,1.8,6.3,3.7,9.4,5.7L561.7,319.2z"/>
			<path class="st11" d="M542.5,312.7c-0.4-0.8-1.4-0.9-2.2-0.7c-2,0.5-3.9,2-5.7,3c-3.9,2.1-8.1,4.1-11.8,6.6v2.5
				c4-2.2,8.1-4.3,12.2-6.4c2.2-1.1,4.4-2.1,6.6-3.2C542.3,314.2,543,313.7,542.5,312.7z"/>
			<path class="st4" d="M564.8,319.6c-0.2-6.5-0.7-12.9-1.5-19.2c0-0.3-0.2-0.4-0.4-0.3c-0.5,0.4-1,0.7-1.5,1.1
				c-0.1,0-0.1,0.1-0.1,0.2c-0.1-0.2-0.3-0.2-0.3,0.1c-0.5,6.7-0.6,13.5-0.8,20.3c-0.1,3.1-1.3,8.1,2.7,8
				C566,329.8,564.9,322.5,564.8,319.6z"/>
			<path class="st4" d="M520.4,321.6c0.2-6.5,0.7-12.9,1.5-19.2c0-0.3,0.2-0.4,0.4-0.3c0.5,0.4,1,0.7,1.5,1.1c0.1,0,0.1,0.1,0.1,0.2
				c0.1-0.2,0.3-0.2,0.3,0.1c0.5,6.7,0.6,13.5,0.8,20.3c0.1,3.1,1.3,8.1-2.7,8C519.3,331.8,520.3,324.6,520.4,321.6z"/>
			<path class="st11" d="M562.3,322.4c-0.4-0.8-1.4-0.9-2.2-0.7c-2,0.5-3.9,2-5.7,3c-3.9,2.1-8.1,4.1-11.8,6.6v2.5
				c4-2.2,8.1-4.3,12.2-6.4c2.2-1.1,4.4-2.1,6.6-3.2C562.2,323.9,562.9,323.4,562.3,322.4z"/>
			<path class="st11" d="M539.9,331c-3-2-6.1-3.8-9.1-5.7c-1.7-1.1-3.6-2.7-5.5-3.4c-0.8-0.3-1.7-0.3-2.2,0.5c-0.6,1,0.1,1.5,0.9,2
				c2.1,1.2,4.3,2.4,6.4,3.6c3.2,1.8,6.3,3.7,9.4,5.7L539.9,331z"/>
			<path class="st4" d="M542.6,313.6l-2.6-2.1c-0.5,6.7-1.1,15.9-1.3,22.6c-0.1,3.1-1.3,8.1,2.7,8c3,0,2-7.3,1.9-10.3
				C543.1,325.8,543.3,319.6,542.6,313.6z"/>
			<g>
				<path class="st11" d="M564.3,299.9h-2.2l-14-8.1c-1.9-1.1-5.2-0.9-7.3,0.3l-16.3,9.4l-3.1,0.3v2.6c0,0.1,0,0.2,0,0.3v0.3l0,0
					c0.1,0.6,0.5,1.1,1.2,1.5l15,8.6c1.9,1.1,5.2,0.9,7.3-0.3l17.6-10.1c1.3-0.7,1.8-1.7,1.8-2.6l0,0
					C564.3,302.1,564.3,300.1,564.3,299.9z"/>
				<path class="st12" d="M537.6,312.2l-15-8.6c-1.9-1.1-1.6-3,0.5-4.2l17.6-10.1c2.2-1.2,5.5-1.4,7.3-0.3l15,8.6
					c1.9,1.1,1.6,3-0.5,4.2l-17.6,10.1C542.7,313.2,539.4,313.3,537.6,312.2z"/>
			</g>
			<g>
				<path class="st13" d="M532.2,304.5c3.5,1.9,7.4,4.9,11.6,3.6c3.6-1.2,7.1-3.7,10.3-5.7c2.2-1.4,4.3-2.8,6-4.7
					c-1.1-1.6-3.1-2.9-4.4-3.8c-3.4-2.4-12.5-7-13.7-6.9c-0.5,0-1.1,0.1-1.7,0.3c-2.2,0.6-4.6,1.8-6.5,2.7c-2.9,1.3-5.6,2.8-8,4.9
					c-0.8,0.6-1.8,1.4-2.3,2.3C523.5,300.9,529.4,303,532.2,304.5z"/>
				<path class="st14" d="M523.5,302.3c2.2,1.6,6.1,3.2,8.1,4.4c2.1,1.3,6.2,4.2,8.5,4.7c1.4,0.3,4-0.3,5.8-1.2
					c2.6-1.3,5.1-2.9,7.7-4.4c2.1-1.2,5-2.3,6.6-4.2c1.1-1.4,0.8-2.8-0.1-4c-1.6,1.9-3.8,3.3-6,4.7c-3.2,2-6.6,4.5-10.3,5.7
					c-4.1,1.3-8.1-1.7-11.6-3.6c-2.8-1.5-8.7-3.6-8.8-7.3c-0.1,0.1-0.1,0.2-0.2,0.3C522.7,298.6,522.3,301.5,523.5,302.3z"/>
			</g>
			<path class="st11" d="M565.8,261.9c1.3,0.7,0.8,2.9-0.2,7.6c-0.5,2.3-1.1,10.9-1.2,14.8c-0.1,3.8,0.2,15.4,0,17.8
				c-0.2,2.3-2.1,2.5-2.3,0.5c-0.1-2-1-15.5-1-19.7s0.6-14.2,1.4-17.7C563.4,261.7,564.7,261.3,565.8,261.9z"/>
			<path class="st4" d="M563.8,267.7l-18.2,10.5l-0.8,14.1l17.6-10.2c0,0-0.2-4.7,0.3-8.3C563.2,271.1,563.8,267.7,563.8,267.7z"/>
			<polygon class="st12" points="562.4,266.8 563.8,267.7 545.6,278.2 544.1,277.3 			"/>
			<path class="st11" d="M546.8,272.7c1.3,0.7,0.8,2.9-0.2,7.6c-0.5,2.3-1.1,10.9-1.2,14.8c-0.1,3.8,0.2,15.4,0,17.8
				c-0.2,2.3-2.1,2.5-2.3,0.5c-0.1-2-1-15.5-1-19.7s0.6-14.2,1.4-17.7C544.4,272.5,545.7,272.1,546.8,272.7z"/>
		</g>
		<g>
			<polygon class="st19" points="499,233.5 505.1,229.8 498,225.6 491.9,229.3 			"/>
			<polygon class="st28" points="499,237.1 499,233.5 505.1,229.8 505.1,233.5 			"/>
			<polygon class="st20" points="491.9,232.9 491.9,229.3 499,233.5 499,237.1 			"/>
			<path class="st19" d="M500.7,232.4l-1.7,1l-1.7-1c0,0,1.1,0.2,1.8,0.2C499.8,232.6,500.7,232.4,500.7,232.4z"/>
			<path class="st29" d="M500.7,232.4c0,0-0.7,0.1-1.2,0c-0.5-0.2-0.7-0.6-0.7-0.6s-0.2,0.3-0.6,0.5c-0.2,0.1-1,0.2-1,0.2
				s0.6,0.3,1.6,0.3C500,232.7,500.7,232.4,500.7,232.4z"/>
		</g>
		<g>
			<polygon class="st15" points="472.1,206.7 466,203.1 473.1,198.9 479.2,202.5 			"/>
			<polygon class="st13" points="472.1,210.4 472.1,206.7 466,203.1 466,206.7 			"/>
			<polygon class="st14" points="479.2,206.2 479.2,202.5 472.1,206.7 472.1,210.4 			"/>
			<path class="st30" d="M470.4,205.7l1.7,1l1.7-1c0,0-1.1,0.2-1.8,0.2C471.3,205.9,470.4,205.7,470.4,205.7z"/>
			<path class="st31" d="M470.4,205.7c0,0,0.7,0.1,1.2,0c0.5-0.2,0.7-0.6,0.7-0.6s0.2,0.3,0.6,0.5c0.2,0.1,1,0.2,1,0.2
				s-0.6,0.3-1.6,0.3C471.1,206,470.4,205.7,470.4,205.7z"/>
		</g>
		<g>
			<path class="st22" d="M467.2,230.5c0-0.8-0.4-1.5-1-1.8c-0.5-0.3-0.9-0.2-1.3,0.1l-1.2-2.1c0.7-0.7,1.7-0.8,2.8-0.2
				c1.6,0.9,2.8,2.6,2.8,5s-2.2,1.9-2,4.3l-1.9-1.1C465,231.9,467.2,232,467.2,230.5z M465,237.5c0-1,0.5-1.5,1.3-1.1
				s1.3,1.5,1.3,2.6c0,1-0.6,1.5-1.3,1C465.5,239.6,465,238.5,465,237.5z"/>
		</g>
		<g>
			<path class="st25" d="M517.4,231.2c0-0.3-0.2-0.6-0.4-0.7c-0.1-0.1-0.2,0-0.2,0l0,0l-1.2,0.7l0.5,1l1.2-0.7
				C517.4,231.4,517.4,231.3,517.4,231.2z"/>
			<path class="st7" d="M515.5,231.4c0,0.3,0.2,0.6,0.4,0.7c0.2,0.1,0.4,0,0.4-0.3s-0.2-0.6-0.4-0.7
				C515.7,231,515.5,231.1,515.5,231.4z"/>
			<polygon class="st7" points="507.2,236 515.7,231.1 516.1,232.2 507.7,237 			"/>
			<g>
				<path class="st25" d="M507.7,237c0.1,0,0.1-0.1,0.1-0.3c0-0.3-0.2-0.6-0.4-0.7c-0.1-0.1-0.2-0.1-0.3,0l0,0l0,0
					c0,0-0.8,0.6-1.5,1.2c0.1,0.1,0.2,0.3,0.2,0.4L507.7,237L507.7,237z"/>
				<path class="st7" d="M505.7,237.2c-0.5,0.4-1,0.8-1,0.8l1.3-0.4C506,237.4,506,237.2,505.7,237.2z"/>
			</g>
		</g>
		<g>
			<path class="st25" d="M476.8,251.5c0-0.3,0.2-0.6,0.4-0.7c0.1-0.1,0.2,0,0.2,0l0,0l1.2,0.7l-0.5,1l-1.2-0.7
				C476.9,251.8,476.8,251.7,476.8,251.5z"/>
			<path class="st7" d="M478.8,251.8c0,0.3-0.2,0.6-0.4,0.7c-0.2,0.1-0.4,0-0.4-0.3s0.2-0.6,0.4-0.7
				C478.6,251.4,478.8,251.5,478.8,251.8z"/>
			<polygon class="st7" points="487.1,256.3 478.6,251.5 478.2,252.5 486.6,257.4 			"/>
			<g>
				<path class="st25" d="M486.6,257.4c-0.1,0-0.1-0.1-0.1-0.3c0-0.3,0.2-0.6,0.4-0.7c0.1-0.1,0.2-0.1,0.3,0l0,0l0,0
					c0,0,0.8,0.6,1.5,1.2c-0.1,0.1-0.2,0.3-0.2,0.4L486.6,257.4L486.6,257.4z"/>
				<path class="st7" d="M488.5,257.5c0.5,0.4,1,0.8,1,0.8l-1.3-0.4C488.3,257.8,488.3,257.6,488.5,257.5z"/>
			</g>
		</g>
		<g>
			<path class="st25" d="M449.4,195.6c0-0.3,0.2-0.6,0.4-0.7c0.1-0.1,0.2,0,0.2,0l0,0l1.2,0.7l-0.5,1l-1.2-0.7
				C449.4,195.9,449.4,195.8,449.4,195.6z"/>
			<path class="st7" d="M451.3,195.9c0,0.3-0.2,0.6-0.4,0.7c-0.2,0.1-0.4,0-0.4-0.3s0.2-0.6,0.4-0.7
				C451.1,195.5,451.3,195.6,451.3,195.9z"/>
			<polygon class="st7" points="459.6,200.4 451.1,195.6 450.7,196.6 459.1,201.5 			"/>
			<g>
				<path class="st25" d="M459.1,201.5c-0.1,0-0.1-0.1-0.1-0.3c0-0.3,0.2-0.6,0.4-0.7c0.1-0.1,0.2-0.1,0.3,0l0,0l0,0
					c0,0,0.8,0.6,1.5,1.2c-0.1,0.1-0.2,0.3-0.2,0.4L459.1,201.5L459.1,201.5z"/>
				<path class="st7" d="M461.1,201.6c0.5,0.4,1,0.8,1,0.8l-1.3-0.4C460.9,201.9,460.9,201.7,461.1,201.6z"/>
			</g>
		</g>
	</g>
</g>
</svg>
