<?xml version="1.0" encoding="utf-8"?>
<!-- Generator: Adobe Illustrator 24.0.2, SVG Export Plug-In . SVG Version: 6.00 Build 0)  -->
<svg version="1.1" id="Layer_1" xmlns="http://www.w3.org/2000/svg" xmlns:xlink="http://www.w3.org/1999/xlink" x="0px" y="0px"
	 viewBox="0 0 635 613.8" style="enable-background:new 0 0 635 613.8;" xml:space="preserve">
<style type="text/css">
	.st0{display:none;fill:#E8ECF8;}
	.st1{filter:url(#Adobe_OpacityMaskFilter);}
	.st2{display:none;mask:url(#SVGID_1_);}
	.st3{fill:url(#SVGID_2_);}
	.st4{fill:url(#SVGID_3_);}
	.st5{fill:url(#SVGID_4_);}
	.st6{fill:url(#SVGID_5_);}
</style>
<rect x="0" class="st0" width="635" height="435"/>
<defs>
	<filter id="Adobe_OpacityMaskFilter" filterUnits="userSpaceOnUse" x="22.4" y="28.7" width="591.4" height="381.1">
		<feFlood  style="flood-color:white;flood-opacity:1" result="back"/>
		<feBlend  in="SourceGraphic" in2="back" mode="normal"/>
	</filter>
</defs>
<mask maskUnits="userSpaceOnUse" x="22.4" y="28.7" width="591.4" height="381.1" id="SVGID_1_">
	<g class="st1">
		
			<image style="overflow:visible;" width="591" height="380.6" xlink:href="F5984D45.png"  transform="matrix(1 0 0 1 22.5 28.9451)"/>
	</g>
</mask>
<g class="st2">
	<g style="display:inline;">
		
			<image style="overflow:visible;" width="1232" height="794" xlink:href="6F51A04B.png"  transform="matrix(0.48 0 0 0.48 22.3889 28.66)">
		</image>
	</g>
</g>
<g>
	<linearGradient id="SVGID_2_" gradientUnits="userSpaceOnUse" x1="346.7021" y1="556.785" x2="346.7021" y2="186.3284">
		<stop  offset="0" style="stop-color:#778DFD"/>
		<stop  offset="3.827727e-02" style="stop-color:#7792F9"/>
		<stop  offset="0.3048" style="stop-color:#76B3E0"/>
		<stop  offset="0.5603" style="stop-color:#75CBCE"/>
		<stop  offset="0.7979" style="stop-color:#74D9C3"/>
		<stop  offset="1" style="stop-color:#74DEBF"/>
	</linearGradient>
	<path class="st3" d="M635,266.4c0,0-15.2,12.1-33.1,15.3c-18.4,3.3-34.8,3.5-61.7-26c-23-25.3-42.4-49.1-140.8-66.3
		c-50.6-8.8-104.6,1.2-129.7,25.9c-36.1,35.5-29.6,76.2-17.2,103.8c9.9,21.8,2.2,48.4-46.5,40.9s-86.2-13.4-119.5,22
		c-21.3,22.6-27.4,53.2-27.4,53.2c-1.3,10.4-1.5,25.5,5.8,40c23.3,46.3,115.1,27,287.8,38.5c50.2,3.3,85.7,7.7,124.4,26.8
		c18,8.9,23.5,14.5,35.1,15.8c26.6,3.2,66-18,122.8-121.2C635,379,635,322.7,635,266.4z"/>
	<linearGradient id="SVGID_3_" gradientUnits="userSpaceOnUse" x1="140.9512" y1="517.7317" x2="140.9512" y2="517.7317">
		<stop  offset="0" style="stop-color:#778DFD"/>
		<stop  offset="3.827727e-02" style="stop-color:#7792F9"/>
		<stop  offset="0.3048" style="stop-color:#76B3E0"/>
		<stop  offset="0.5603" style="stop-color:#75CBCE"/>
		<stop  offset="0.7979" style="stop-color:#74D9C3"/>
		<stop  offset="1" style="stop-color:#74DEBF"/>
	</linearGradient>
	<path class="st4" d="M141,517.7"/>
	<linearGradient id="SVGID_4_" gradientUnits="userSpaceOnUse" x1="557.5366" y1="533.3414" x2="557.5366" y2="533.3414">
		<stop  offset="0" style="stop-color:#778DFD"/>
		<stop  offset="3.827727e-02" style="stop-color:#7792F9"/>
		<stop  offset="0.3048" style="stop-color:#76B3E0"/>
		<stop  offset="0.5603" style="stop-color:#75CBCE"/>
		<stop  offset="0.7979" style="stop-color:#74D9C3"/>
		<stop  offset="1" style="stop-color:#74DEBF"/>
	</linearGradient>
	<path class="st5" d="M557.5,533.3"/>
	<linearGradient id="SVGID_5_" gradientUnits="userSpaceOnUse" x1="565.8292" y1="580.6586" x2="565.8292" y2="580.6586">
		<stop  offset="0" style="stop-color:#778DFD"/>
		<stop  offset="3.827727e-02" style="stop-color:#7792F9"/>
		<stop  offset="0.3048" style="stop-color:#76B3E0"/>
		<stop  offset="0.5603" style="stop-color:#75CBCE"/>
		<stop  offset="0.7979" style="stop-color:#74D9C3"/>
		<stop  offset="1" style="stop-color:#74DEBF"/>
	</linearGradient>
	<path class="st6" d="M565.8,580.7"/>
</g>
</svg>
