<?xml version="1.0" encoding="utf-8"?>
<!-- Generator: Adobe Illustrator 24.0.2, SVG Export Plug-In . SVG Version: 6.00 Build 0)  -->
<svg version="1.1" id="Ñëîé_1" xmlns="http://www.w3.org/2000/svg" xmlns:xlink="http://www.w3.org/1999/xlink" x="0px" y="0px"
	 viewBox="0 0 3211.7 1951" style="enable-background:new 0 0 3211.7 1951;" xml:space="preserve">
<style type="text/css">
	.st0{fill:#3A3077;}
	.st1{fill:#C0D3F8;}
	.st2{fill:#F24B46;}
	.st3{fill:#F9795A;}
	.st4{fill:#FFB65F;}
	.st5{display:none;fill:#EB3668;}
	.st6{opacity:0.4;fill:#F24B46;enable-background:new    ;}
	.st7{fill:#F28D00;}
	.st8{fill:url(#SVGID_1_);}
	.st9{fill:#1B2251;}
	.st10{fill:#DCE7FB;}
	.st11{fill:#242E6C;}
	.st12{fill:#7E6BC1;}
	.st13{fill:#EB3668;}
	.st14{fill:#EFECEA;}
	.st15{fill:#CDDCF9;}
	.st16{fill:#FFC9B6;}
	.st17{fill:#FD8857;}
	.st18{fill:#1D2453;}
	.st19{fill:#363F78;}
	.st20{fill:#5E489D;}
	.st21{fill:#FFB9A4;}
	.st22{fill:#222956;}
	.st23{fill:#FFB9B6;}
	.st24{fill:#FF9792;}
	.st25{fill:#FFA9A5;}
	.st26{fill:#B1C9F6;}
	.st27{fill:#313B75;}
	.st28{fill:#2C1D1B;}
	.st29{fill:#3F2A28;}
	.st30{opacity:0.5;}
</style>
<g>
	<g>
		<path class="st0" d="M1322.1,1475.6c0,0-59.4,12.5-56.4,23.4s65.2-18.7,65.2-18.7s45.9,41,52.3,62c0,0-67-9.5-61.4,0.3
			c5.6,9.9,74.9,22.9,74.9,22.9s31.5,48.5,3.9,69.8c-27.7,21.3-48.9,14.1-54,7.2c-5.2-7-25.2-57.2-31.1-53.2s-2.3,42,11.3,58.4
			c0,0-59.8,0.5-68.6-27.9c-8.7-28.3,4.7-43.8-1-61.2c-5.7-17.4-15.3-27.9-16.4-17.5c-1.1,10.3,13.8,37.6,7.9,56s-8.5,32.4-24.2,9.3
			s-31.2-69.9-15.5-87c0.7-0.7,1.3-1.5,1.9-2.1c-1.4,1.2-1.9,2.1-1.9,2.1c-4.7-3.5-20.5-5.1-32.5-5.9c-2,0-4.8-0.1-8.7-0.4l0,0
			c-1.7-0.1-3.1-0.1-4.1-0.1c-26,0.3-62.6,21-62.6,21l-3.7-4.8c33.9-28.1,74.5-20.3,74.5-20.3c30.9,3.1,52.8-6.7,52.8-6.7
			s7.1-60,53.5-52.6C1278,1449.8,1308.2,1458.5,1322.1,1475.6z"/>
		<path class="st0" d="M538.3,970.4c15.8-58.5,114.5-40.2,114.5-40.2s67,102.4,86.4,104.9S699,936.4,699,936.4
			c37.8-3.7,134,42.6,134,42.6s-6.1,119.4,13.4,116.9s0-106,0-106c36.6,10.9,70.6,53.6,70.6,53.6c42.6,69.4-48.8,120.6-48.8,120.6
			s-1.2,41.4,24.3,88.9l0,0c0,0,5.8,8.8,11.7,23.7h-9.9c-0.8-2.7-1.7-5.3-2.7-7.7c0,0,0,0,0-0.1s0-0.1-0.1-0.1
			c-0.7-1.5-1.7-3.7-2.9-6.4l0,0l0,0c-3.1-5.9-5.1-10.3-6.4-13.5l0,0c-9.1-18.7-22.3-43.1-31-48.2c0,0,1.1-1.5,2.1-4.6
			c-0.7,1.5-1.4,3-2.1,4.6c-17.1,36.6-102.3,42.6-149.9,32.9c-47.5-9.7-26.8-23.1-1.2-44.9s79.2-16,95-24.5s-7.3-17.1-39-14.6
			s-47.5,34.1-98.6,39s-90.2-91.4-90.2-91.4c35.4,10.9,98.6-8.5,101.1-20.7s-91.4-10.9-106-14.6
			C548,1058.2,522.4,1028.9,538.3,970.4z"/>
		<path class="st0" d="M1484.3,974.8c-21.8-34.9-82.4-3.6-82.4-3.6s-23.4,79.8-35.6,85.2s6.7-72.1,6.7-72.1
			c-25.3,5.1-78.8,54.1-78.8,54.1s27.5,76.4,14.3,78.7c-13.1,2.3-20.9-69-20.9-69c-21.6,14.3-35.4,48.8-35.4,48.8
			c-14.1,53.6,55.4,68.8,55.4,68.8s8.9,26.7,1.7,62.6l0,0c0,0-2,6.9-2.9,17.7l6.5-1.9c0-1.9,0.1-3.7,0.3-5.5l0,0v-0.1
			c0.1-1.1,0.3-2.7,0.6-4.7l0,0l0,0c0.8-4.5,1.3-7.7,1.5-10.1l0,0c2.3-13.9,6-32.4,10.7-37.5c0,0-1-0.8-2.3-2.5
			c0.7,0.8,1.5,1.7,2.3,2.5c18.3,20.4,75,7.6,103.9-8.1c29-15.7,12.9-20.3-8.1-29.4c-20.9-9.1-54.6,5.2-66.6,2.7
			c-12-2.4,1.4-12.5,22.5-17.2s37.6,12.8,71.8,5.9c34.2-6.9,40.6-77.2,40.6-77.2c-20.8,14.1-65.8,13.9-69.8,6.5
			c-4-7.5,57.3-25.1,66-30.3C1495.3,1033.7,1506.1,1009.7,1484.3,974.8z"/>
		<path class="st0" d="M972,970.6c15.3-25.4,59.3-3.7,59.3-3.7s17.9,57.2,26.7,60.9c8.9,3.7-5.7-51.8-5.7-51.8
			c18.3,3.3,57.4,38,57.4,38s-18.8,55.4-9.3,56.9s14.1-49.9,14.1-49.9c15.7,10.1,26.1,34.7,26.1,34.7c10.8,38.4-39.1,50.3-39.1,50.3
			s-6.1,19.3-0.4,45.2l0,0c0,0,1.5,4.9,2.3,12.7l-4.7-1.3c0-1.3-0.1-2.7-0.3-4l0,0v-0.1c-0.1-0.8-0.3-2-0.5-3.4l0,0l0,0
			c-0.7-3.2-1-5.5-1.2-7.2l0,0c-1.8-10-4.7-23.3-8.2-26.8c0,0,0.7-0.6,1.6-1.9c-0.5,0.6-1.1,1.2-1.6,1.9c-12.9,14.9-53.9,6.4-75-4.5
			s-9.5-14.5,5.4-21.3s39.4,3,48,1.1s-1.1-9-16.4-12.1s-26.9,9.7-51.7,5.2c-24.7-4.5-30.3-55.1-30.3-55.1
			c15.2,9.9,47.6,9.1,50.4,3.7s-41.6-17.3-48-21C964.9,1013.2,956.8,996,972,970.6z"/>
		<path class="st1" d="M1715.5,1642.8c0.5,0.1,1.1,0.3,1.9,0.4C1716.8,1643,1716.2,1642.9,1715.5,1642.8z"/>
		<g>
			<g>
				<path class="st2" d="M1093,1290.2l29.9,356.3c0,0,3.1,21.6-12.9,21.6c-26.4,0.1-131.5,0-131.5,0s19.9-4.5,19.6-14.6
					c-0.3-11.9-35-366.6-35-366.6L1093,1290.2z"/>
				<path class="st3" d="M970.1,1661.6c5.2,0,105.5,0.3,131.3,0c11.2-0.1,13.2-9.9,13.3-16.3c0.1-3.1-0.3-5.3-0.3-5.3l-0.8-9.3
					l-2-23.6l-1.7-20.9l-2.3-26.8l-1.9-22.6l-21.3-253.2l-129.8-3.4c0,0,14.6,148.5,25,256.5c1.1,12.1,2.3,23.6,3.3,34.3
					c0.3,3.5,0.7,6.8,0.9,10.1c0.9,10.2,1.9,19.6,2.6,27.9c0.4,4.4,0.8,8.4,1.1,12.1c1.3,14.5,2.1,23.9,2.1,25.7c0,1-0.1,2-0.3,2.9
					C987.1,1661.2,972,1661.6,970.1,1661.6z"/>
				<polygon class="st4" points="1408.3,1096.3 1335.3,1389.4 1325.3,1429.6 1291.3,1566.2 659.7,1566.2 785.1,1096.3 				"/>
				<polygon class="st3" points="1408.3,1096.3 1418.4,1099.7 1304.8,1576.4 1291.3,1566.2 				"/>
				<polygon class="st2" points="1304.8,1576.4 677.1,1576.4 659.7,1566.2 1291.3,1566.2 				"/>
				<rect x="948.4" y="1661.8" class="st3" width="135.9" height="6.5"/>
				<polygon class="st5" points="690.4,1479.6 792.8,1102.5 1406.7,1102.5 1408.3,1096.3 785.1,1096.3 683,1478.7 				"/>
				<polygon class="st2" points="983,1576.4 983.7,1581.3 1111.5,1607.1 1109.8,1586.3 1108.9,1576.4 				"/>
				<path class="st6" d="M970.1,1661.6c5.2,0,105.5,0.3,131.3,0c11.2-0.1,13.2-9.9,13.3-16.3l-127.2-23.9
					c1.3,14.5,2.1,23.9,2.1,25.7c0,1-0.1,2-0.3,2.9C987.1,1661.2,972,1661.6,970.1,1661.6z"/>
				<polygon class="st7" points="1013.9,1471.1 1291.3,1566.2 1325.3,1429.6 				"/>
				
					<linearGradient id="SVGID_1_" gradientUnits="userSpaceOnUse" x1="8053.1807" y1="-68.9" x2="8777.4805" y2="-68.9" gradientTransform="matrix(-1 0 0 1 9461.4805 1354)">
					<stop  offset="0" style="stop-color:#F9795A"/>
					<stop  offset="1" style="stop-color:#EB3668"/>
				</linearGradient>
				<polygon class="st8" points="1408.3,1096.3 785.1,1096.3 684,1473.9 1314.3,1473.9 				"/>
			</g>
			<path class="st2" d="M958.8,1521.6c1.8-9.3,10.7-16.7,20-16.7s15.3,7.5,13.5,16.7c-1.8,9.3-10.7,16.7-20,16.7
				C963,1538.4,957,1530.9,958.8,1521.6z"/>
			<polygon class="st4" points="713.4,1457.5 1296.8,1457.5 1362.9,1194.3 1368,1174.1 1372.3,1156.9 1382.5,1116.5 807.3,1116.5 
				796.2,1156.9 791.5,1174.1 785.9,1194.3 			"/>
			<polygon class="st9" points="796.2,1156.9 1372.3,1156.9 1382.5,1116.5 807.3,1116.5 			"/>
			<g>
				<path class="st10" d="M1358.7,1134.8c0.7-2.8-1-5.1-3.8-5.1s-5.6,2.3-6.3,5.1c-0.7,2.8,1,5.1,3.8,5.1
					C1355.1,1139.8,1357.9,1137.6,1358.7,1134.8z"/>
				<path class="st10" d="M1341.9,1134.8c0.7-2.8-1-5.1-3.8-5.1s-5.6,2.3-6.3,5.1c-0.7,2.8,1,5.1,3.8,5.1
					C1338.4,1139.8,1341.2,1137.6,1341.9,1134.8z"/>
				<path class="st10" d="M1323.9,1134.8c0.7-2.8-1-5.1-3.8-5.1s-5.6,2.3-6.3,5.1c-0.7,2.8,1,5.1,3.8,5.1
					S1323.1,1137.6,1323.9,1134.8z"/>
			</g>
			<polygon class="st11" points="841.9,1434.2 1274.1,1434.2 1339.9,1176.1 913.7,1176.1 			"/>
			<polygon class="st12" points="786,1236.2 883.9,1236.2 901.9,1176.1 802.7,1176.1 			"/>
			<polygon class="st2" points="1050.3,1201.2 1106.4,1201.2 1108.6,1192.5 1052.6,1192.5 			"/>
			<polygon class="st3" points="950.9,1201.2 1042.6,1201.2 1044.9,1192.5 953.2,1192.5 			"/>
			<polygon class="st3" points="1040.9,1224.5 1140.2,1224.5 1142.6,1215.9 1043.2,1215.9 			"/>
			<polygon class="st13" points="980.4,1224.5 1031.9,1224.5 1034.2,1215.9 982.7,1215.9 			"/>
			<polygon class="st12" points="1033.4,1264.6 1089.4,1264.6 1091.7,1256 1035.7,1256 			"/>
			<polygon class="st3" points="934,1264.6 1025.7,1264.6 1028,1256 936.3,1256 			"/>
			<polygon class="st14" points="1023.9,1287.9 1123.4,1287.9 1125.6,1279.2 1026.3,1279.2 			"/>
			<polygon class="st14" points="963.5,1287.9 1015,1287.9 1017.3,1279.2 965.8,1279.2 			"/>
			<polygon class="st2" points="1084.1,1323.9 1273.8,1323.9 1276,1315.3 1086.4,1315.3 			"/>
			<polygon class="st12" points="1016,1323.9 1072,1323.9 1074.3,1315.3 1018.2,1315.3 			"/>
			<polygon class="st3" points="916.6,1323.9 1008.2,1323.9 1010.6,1315.3 918.9,1315.3 			"/>
			<polygon class="st14" points="1211.5,1347.2 1267.6,1347.2 1269.8,1338.5 1213.8,1338.5 			"/>
			<polygon class="st13" points="1006.5,1347.2 1106,1347.2 1108.2,1338.5 1008.8,1338.5 			"/>
			<polygon class="st3" points="1112.1,1347.2 1203.8,1347.2 1206.1,1338.5 1114.4,1338.5 			"/>
			<polygon class="st3" points="946.1,1347.2 997.6,1347.2 999.9,1338.5 948.3,1338.5 			"/>
			<polygon class="st2" points="1062.6,1388.2 1252.2,1388.2 1254.6,1379.6 1064.9,1379.6 			"/>
			<polygon class="st12" points="994.4,1388.2 1050.5,1388.2 1052.8,1379.6 996.7,1379.6 			"/>
			<polygon class="st14" points="1190,1411.4 1246,1411.4 1248.4,1402.8 1192.3,1402.8 			"/>
			<polygon class="st13" points="985,1411.4 1084.4,1411.4 1086.7,1402.8 987.3,1402.8 			"/>
			<polygon class="st3" points="1090.6,1411.4 1182.3,1411.4 1184.6,1402.8 1092.9,1402.8 			"/>
			<polygon class="st3" points="924.5,1411.4 976.1,1411.4 978.4,1402.8 926.9,1402.8 			"/>
			<g>
				<polygon class="st14" points="834.8,1254.7 877.8,1254.8 878.8,1251 835.7,1250.8 				"/>
				<polygon class="st14" points="812,1254.6 828.2,1254.7 829.2,1250.8 812.9,1250.7 				"/>
				<polygon class="st14" points="779.1,1254.6 807.8,1254.6 808.7,1250.7 780.1,1250.6 				"/>
				<polygon class="st14" points="851.8,1264.7 875.4,1264.8 876.4,1260.8 852.8,1260.8 				"/>
				<polygon class="st14" points="817.4,1264.6 847.9,1264.6 848.8,1260.8 818.3,1260.6 				"/>
				<polygon class="st14" points="776.7,1264.4 811.7,1264.6 812.7,1260.6 777.7,1260.5 				"/>
			</g>
			<g>
				<polygon class="st14" points="829.6,1275.8 872.7,1276 873.6,1272.1 830.6,1272 				"/>
				<polygon class="st14" points="806.9,1275.8 823.1,1275.8 824,1271.9 807.8,1271.9 				"/>
				<polygon class="st14" points="774,1275.7 802.7,1275.8 803.6,1271.8 774.9,1271.8 				"/>
				<polygon class="st14" points="846.6,1285.8 870.3,1285.9 871.2,1282 847.6,1281.9 				"/>
				<polygon class="st14" points="812.2,1285.7 842.7,1285.8 843.7,1281.9 813.1,1281.8 				"/>
				<polygon class="st14" points="771.6,1285.6 806.5,1285.7 807.5,1281.8 772.5,1281.7 				"/>
			</g>
			<g>
				<polygon class="st14" points="863.4,1184.4 889.4,1184.5 889.9,1182.1 864,1182.1 				"/>
				<polygon class="st14" points="849.7,1184.4 859.5,1184.4 860,1182.1 850.3,1182 				"/>
				<polygon class="st14" points="830,1184.3 847.2,1184.3 847.8,1182 830.5,1181.9 				"/>
				<polygon class="st14" points="873.7,1190.4 887.9,1190.5 888.5,1188.1 874.2,1188.1 				"/>
				<polygon class="st14" points="852.9,1190.3 871.3,1190.4 871.9,1188.1 853.5,1188 				"/>
				<polygon class="st14" points="828.5,1190.3 849.6,1190.3 850.1,1188 829,1187.9 				"/>
			</g>
			<g>
				<polygon class="st14" points="860.3,1197.1 886.2,1197.2 886.9,1194.9 860.9,1194.8 				"/>
				<polygon class="st14" points="846.6,1197.1 856.4,1197.1 857,1194.8 847.2,1194.7 				"/>
				<polygon class="st14" points="826.8,1197.1 844.1,1197.1 844.6,1194.7 827.4,1194.7 				"/>
				<polygon class="st14" points="870.6,1203.1 884.8,1203.2 885.4,1200.8 871.2,1200.8 				"/>
				<polygon class="st14" points="849.8,1203.1 868.2,1203.1 868.8,1200.8 850.4,1200.7 				"/>
				<polygon class="st14" points="825.4,1203 846.4,1203.1 847,1200.7 826,1200.7 				"/>
			</g>
			<g>
				<polygon class="st14" points="820.8,1312 863.9,1312.1 864.8,1308.3 821.8,1308.1 				"/>
				<polygon class="st14" points="798.1,1311.9 814.3,1312 815.2,1308.1 799,1308 				"/>
				<polygon class="st14" points="765.2,1311.9 793.9,1311.9 794.8,1308 766.1,1307.9 				"/>
				<polygon class="st14" points="837.8,1322 861.5,1322.1 862.4,1318.1 838.8,1318.1 				"/>
				<polygon class="st14" points="803.4,1321.9 833.9,1321.9 834.9,1318.1 804.3,1317.9 				"/>
				<polygon class="st14" points="762.8,1321.7 797.7,1321.9 798.7,1317.9 763.7,1317.8 				"/>
			</g>
			<g>
				<polygon class="st14" points="812.1,1347.4 855.2,1347.5 856.2,1343.7 813.1,1343.5 				"/>
				<polygon class="st14" points="789.4,1347.3 805.6,1347.4 806.6,1343.5 790.3,1343.5 				"/>
				<polygon class="st14" points="756.6,1347.3 785.2,1347.3 786.1,1343.4 757.5,1343.3 				"/>
				<polygon class="st14" points="829.2,1357.4 852.8,1357.5 853.8,1353.5 830.2,1353.5 				"/>
				<polygon class="st14" points="794.7,1357.3 825.3,1357.4 826.2,1353.5 795.7,1353.3 				"/>
				<polygon class="st14" points="754.1,1357.2 789.1,1357.3 790.1,1353.3 755.1,1353.2 				"/>
			</g>
			<g>
				<polygon class="st14" points="804.3,1379.4 847.5,1379.5 848.4,1375.6 805.3,1375.4 				"/>
				<polygon class="st14" points="781.7,1379.3 797.9,1379.3 798.8,1375.4 782.6,1375.4 				"/>
				<polygon class="st14" points="748.8,1379.2 777.4,1379.3 778.4,1375.4 749.7,1375.3 				"/>
				<polygon class="st14" points="821.4,1389.3 845.1,1389.4 846,1385.5 822.4,1385.4 				"/>
				<polygon class="st14" points="787,1389.2 817.5,1389.3 818.5,1385.4 787.9,1385.3 				"/>
				<polygon class="st14" points="746.4,1389.1 781.3,1389.2 782.3,1385.3 747.3,1385.2 				"/>
			</g>
			<g>
				<g>
					<g>
						<path class="st11" d="M775.2,1414.2c2-6.9,9.3-12.5,16.2-12.5s10.9,5.6,8.9,12.5s-9.3,12.5-16.2,12.5
							S773.1,1421.2,775.2,1414.2z M777.5,1414.2c-1.7,5.7,1.6,10.3,7.3,10.3s11.6-4.6,13.3-10.3c1.7-5.7-1.6-10.3-7.3-10.3
							C785.1,1404,779.1,1408.6,777.5,1414.2z"/>
					</g>
					<g>
						<path class="st11" d="M786.1,1420.6c0.5-0.1,1-0.3,1.4-0.6l7.1-5.7c0.9-0.7,1.3-2,0.7-2.7c-0.5-0.7-1.7-0.7-2.7,0.1l-5,4
							l-2.5-5.9c-0.4-0.9-1.5-1.1-2.5-0.4c-1.1,0.6-1.6,1.8-1.2,2.7l3.3,7.7c0.2,0.5,0.7,0.7,1.2,0.8
							C785.9,1420.6,786,1420.6,786.1,1420.6z"/>
					</g>
				</g>
				<g>
					<g>
						<path class="st13" d="M740.4,1414.2c2-6.9,9.3-12.5,16.2-12.5s10.9,5.6,8.9,12.5s-9.3,12.5-16.2,12.5
							S738.4,1421.2,740.4,1414.2z M742.8,1414.2c-1.7,5.7,1.6,10.3,7.3,10.3s11.6-4.6,13.3-10.3c1.7-5.7-1.6-10.3-7.3-10.3
							C750.4,1404,744.4,1408.6,742.8,1414.2z"/>
					</g>
					<g>
						<path class="st13" d="M752.5,1416.3L752.5,1416.3c1,0,2-0.8,2.3-1.8l1.5-5.3c0.3-1-0.3-1.8-1.3-1.8l0,0c-1,0-2,0.8-2.3,1.8
							l-1.5,5.3C750.9,1415.5,751.5,1416.3,752.5,1416.3z"/>
						<path class="st13" d="M751.1,1420.5h0.4c0.9,0,1.8-0.7,2.1-1.6l0,0c0.3-0.9-0.3-1.6-1.1-1.6H752c-0.9,0-1.8,0.7-2.1,1.6l0,0
							C749.7,1419.8,750.2,1420.5,751.1,1420.5z"/>
					</g>
				</g>
			</g>
			<g>
				<g>
					<g>
						<path class="st15" d="M817.8,1223.5c1.1-3.8,5.1-6.9,8.9-6.9c3.8,0,6,3.1,4.9,6.9s-5.1,6.9-8.9,6.9S816.7,1227.3,817.8,1223.5
							z M819.1,1223.5c-0.9,3.1,0.9,5.6,4,5.6s6.3-2.5,7.3-5.6c0.9-3.1-0.9-5.6-4-5.6C823.3,1217.8,820,1220.4,819.1,1223.5z"/>
					</g>
					<g>
						<path class="st15" d="M823.8,1227c0.3,0,0.5-0.1,0.8-0.3l3.9-3.1c0.5-0.4,0.7-1.1,0.4-1.5s-1-0.4-1.5,0l-2.7,2.2l-1.4-3.3
							c-0.2-0.5-0.8-0.6-1.4-0.3c-0.6,0.3-0.9,1-0.7,1.5l1.9,4.3C823.2,1226.8,823.4,1226.9,823.8,1227L823.8,1227z"/>
					</g>
				</g>
				<g>
					<g>
						<path class="st15" d="M837.6,1223.5c1.1-3.8,5.1-6.9,8.9-6.9c3.8,0,6,3.1,4.9,6.9s-5.1,6.9-8.9,6.9
							C838.6,1230.4,836.4,1227.3,837.6,1223.5z M838.8,1223.5c-0.9,3.1,0.9,5.6,4,5.6s6.3-2.5,7.3-5.6c0.9-3.1-0.9-5.6-4-5.6
							C843,1217.8,839.7,1220.4,838.8,1223.5z"/>
					</g>
					<g>
						<path class="st15" d="M843.6,1227c0.3,0,0.5-0.1,0.8-0.3l3.9-3.1c0.5-0.4,0.7-1.1,0.4-1.5s-1-0.4-1.5,0l-2.7,2.2l-1.4-3.3
							c-0.2-0.5-0.8-0.6-1.4-0.3c-0.6,0.3-0.9,1-0.7,1.5l1.9,4.3C843,1226.8,843.2,1226.9,843.6,1227
							C843.4,1227,843.5,1227,843.6,1227z"/>
					</g>
				</g>
				<g>
					<g>
						<path class="st15" d="M858,1223.5c1.1-3.8,5.1-6.9,8.9-6.9c3.8,0,6,3.1,4.9,6.9s-5.1,6.9-8.9,6.9
							C859,1230.4,856.8,1227.3,858,1223.5z M859.2,1223.5c-0.9,3.1,0.9,5.6,4,5.6s6.3-2.5,7.3-5.6c0.9-3.1-0.9-5.6-4-5.6
							C863.4,1217.8,860.1,1220.4,859.2,1223.5z"/>
					</g>
					<g>
						<path class="st15" d="M864,1227c0.3,0,0.5-0.1,0.8-0.3l3.9-3.1c0.5-0.4,0.7-1.1,0.4-1.5s-1-0.4-1.5,0l-2.7,2.2l-1.4-3.3
							c-0.2-0.5-0.8-0.6-1.4-0.3c-0.6,0.3-0.9,1-0.7,1.5l1.9,4.3C863.4,1226.8,863.6,1226.9,864,1227
							C863.8,1227,863.9,1227,864,1227z"/>
					</g>
				</g>
				<g>
					<g>
						<path class="st13" d="M798.8,1223.5c1.1-3.8,5.1-6.9,8.9-6.9s6,3.1,4.9,6.9s-5.1,6.9-8.9,6.9
							C799.9,1230.4,797.7,1227.3,798.8,1223.5z M800.1,1223.5c-0.9,3.1,0.9,5.6,4,5.6s6.3-2.5,7.3-5.6c0.9-3.1-0.9-5.6-4-5.6
							C804.3,1217.8,801,1220.4,800.1,1223.5z"/>
					</g>
					<g>
						<path class="st13" d="M805.3,1224.6L805.3,1224.6c0.5,0,1.1-0.5,1.3-1l0.9-2.9c0.1-0.5-0.1-1-0.7-1l0,0c-0.5,0-1.1,0.5-1.3,1
							l-0.9,2.9C804.5,1224.2,804.8,1224.6,805.3,1224.6z"/>
						<path class="st13" d="M804.6,1226.9h0.2c0.5,0,1-0.4,1.1-0.9l0,0c0.1-0.5-0.1-0.9-0.6-0.9h-0.2c-0.5,0-1,0.4-1.1,0.9l0,0
							C803.9,1226.5,804.1,1226.9,804.6,1226.9z"/>
					</g>
				</g>
			</g>
		</g>
		<g>
			<g>
				<path class="st16" d="M1467.2,1421.2c0,0-10.4,2.7-17,0.7s-17.9,1.3-19.8,3.7c-1.8,2.4-1.1,3.3,2.1,4.2
					c3.3,0.8,14.8,5.7,22.4,2.9c7.6-2.9,17.5-2.9,17.5-2.9L1467.2,1421.2z"/>
				<path class="st12" d="M1556.9,1331c0,0-11.7,82.9-31,90.3c-9.5,3.7-51.6,11.9-64.1,12.8c0,0-3.1-2.5-2.3-12.5
					c0,0,44.2-16.2,50.4-25c9.3-13.1-5.8-53.6,5.9-65.9C1527.6,1318.3,1547.2,1313.1,1556.9,1331z"/>
			</g>
			<path class="st17" d="M1549.8,1659.7h-4.9c-3.1,0-5.6-2.5-5.6-5.6v-129.9c0-3.1,2.5-5.6,5.6-5.6h4.9c3.1,0,5.6,2.5,5.6,5.6v129.9
				C1555.4,1657.2,1552.9,1659.7,1549.8,1659.7z"/>
			<path class="st17" d="M1597.1,1669c-5.2-10.8-25.5-18.9-49.8-18.9s-44.6,8.1-49.8,18.9H1597.1z"/>
			<path class="st17" d="M1583.8,1632.3H1511c-0.8,0-1.5-0.7-1.5-1.5v-2.7c0-0.8,0.7-1.5,1.5-1.5h72.8c0.8,0,1.5,0.7,1.5,1.5v2.7
				C1585.3,1631.7,1584.7,1632.3,1583.8,1632.3z"/>
			<path class="st18" d="M1553,1505.6c-3.4,5.8-7.3,11.2-11.4,16.3c-12.5,15.8-26.2,28.9-28.5,41.2c-0.5,2.5-1.2,5.1-2.2,7.9
				s-2.2,5.8-3.7,8.9c-5.3,11.5-13.3,24.5-21.2,36.3c-13.7,20.3-26.7,37.4-26.7,37.4l-23.7-1c0.9-2.4,11.3-30.5,25.1-64.8
				c5.6-13.9,11.6-28.7,17.3-43.1c0.7-1.9,1.5-3.8,2.3-5.7c1.7-4.4,3.5-8.7,5.2-12.9c13-32.2,23.3-57.9,23.3-57.9
				s51.8-19.7,57.2-6.9C1570.5,1471.7,1566.9,1482,1553,1505.6z"/>
			<path class="st18" d="M1458.6,1649.2c0,0-1.2,19.5-5,19.8c-0.5,0.1-19.2,0.1-19.2,0.1l-23.8-0.1c0,0,0.1-5.7,7.1-6.9
				c6.9-1.2,18.6-6.1,22.9-15.3C1445,1637,1458.6,1649.2,1458.6,1649.2z"/>
			<path class="st18" d="M1513.4,1593.4c0,0,16.5,10.6,14.9,14c-0.2,0.5-9.3,16.7-9.3,16.7l-11.7,20.7c0,0-4.9-2.9-2.6-9.6
				s3.7-19.3-2.3-27.4C1496.1,1599.3,1513.4,1593.4,1513.4,1593.4z"/>
			<path class="st19" d="M1490.2,1459.5c0,0-64.2,40-71.4,67.2c-7.3,27.3,86.6,85.4,86.6,85.4s10.3-9.1,12.1-15.7
				c0,0-42.4-50.8-51.6-62.2c-5.7-7,83.6-24.2,94.4-41.2s7-31.2,7-31.2L1490.2,1459.5z"/>
			<path class="st2" d="M1613.7,1547.2h-132.5c-2.9,0-5.2-2.3-5.2-5.2v-25.9c0-2.9,2.3-5.2,5.2-5.2h132.5c2.9,0,5.2,2.3,5.2,5.2
				v25.9C1618.8,1544.9,1616.5,1547.2,1613.7,1547.2z"/>
			<path class="st16" d="M1521.2,1316.7c-6.4,3.9-9.9,9-9.9,9c15.6,4,41.4-10.4,41.4-10.4s-10-6.7-13.7-21.5
				c-0.2-0.7-0.3-1.5-0.5-2.3c-0.5-2.5-0.8-5.2-0.9-8.1l-7.1,6.4l-11.9,10.7c0,0,0.3,4.4,1.7,12.1
				C1520.6,1313.8,1520.9,1315.3,1521.2,1316.7z"/>
			<path class="st12" d="M1569.2,1390.4c-2.2,30,0.7,75.7-1.8,83.6c-2.2,6.8-27.1,2.8-37,0.5c-3.7-0.9-8.1-2.1-12.7-3.5
				c-12.9-4-26.8-9.7-28.3-13.9c-0.1-0.1-0.1-0.3-0.1-0.5c-0.1-0.6-0.1-1.2,0-1.7c0.5-2.1,2.4-4.5,2.7-9.8
				c0.3-5.9,0.2-12.9,0.5-20.5c0-0.9,0-1.8,0.1-2.6v-0.3c0-0.1,0-0.3,0-0.5c0.2-8.4,0.7-17.2,1.1-25.9c0.3-5.5,0.7-10.9,1.1-16.1
				c1.1-13.5,2.6-25.4,4.6-33c3.3-12.3,10.5-20.4,17-26.3l4.7-4.1c5.3,1.1,11.5,0.4,17.2-2.3c6.1-2.9,8.2-5,9.3-4.2
				C1561.8,1320.2,1571.9,1353.7,1569.2,1390.4z"/>
			<path class="st20" d="M1517.6,1471.1c-12.9-4-26.8-9.7-28.3-13.9c-0.1-0.1-0.1-0.3-0.1-0.5c0-0.6,0-1.2,0-1.7
				c0.5-2.1,2.4-4.5,2.7-9.8c0.3-5.9,0.2-12.9,0.5-20.5c0-0.9,0-1.8,0.1-2.6v-0.3c0-0.1,0-0.3,0-0.5l48.5-22
				C1541,1399.2,1543.8,1438.3,1517.6,1471.1z"/>
			<path class="st21" d="M1518.6,1300.5c0,0,0.3,4.4,1.7,12.1c11.6-3.7,16.9-14.3,18.7-18.7c0.5-1.3,0.7-2.1,0.7-2.1
				s-0.5-0.1-1.2-0.3c-1.7-0.3-4.7-1-8-1.7L1518.6,1300.5z"/>
			<path class="st16" d="M1513.9,1300.3c0,0,25.5,2.9,27.1-13.1c1.5-15.9,5.9-26.3-10.3-28.8c-16.3-2.5-20,3.3-21.8,8.5
				C1506.9,1272.1,1507.3,1299.2,1513.9,1300.3z"/>
			<path class="st18" d="M1540.8,1288.4c0,0-1.6-21.1-24.9-23.3c-15.9-1.5-7.1-15.2-5.3-17.4c0,0,12.2,1.7,24.7,3.7
				C1561.6,1255.7,1543.4,1285,1540.8,1288.4z"/>
			<g>
				
					<rect x="1405.4" y="1382.2" transform="matrix(0.9511 -0.3089 0.3089 0.9511 -367.686 503.5858)" class="st11" width="2.3" height="61.6"/>
				
					<rect x="1414.9" y="1438.1" transform="matrix(0.9998 -2.134865e-02 2.134865e-02 0.9998 -30.4142 31.2248)" class="st11" width="64.6" height="3.9"/>
			</g>
			<g>
				<path class="st16" d="M1472.5,1433.9c0,0-10,3.8-16.8,2.5s-17.7,3.3-19.3,5.9c-1.5,2.6-0.8,3.5,2.5,3.9
					c3.3,0.5,15.4,4.1,22.6,0.4c7.3-3.7,17.1-4.9,17.1-4.9L1472.5,1433.9z"/>
				<path class="st0" d="M1551.8,1334.4c0,0-2.5,83.7-20.8,93.2c-9.1,4.7-50,17.6-62.3,19.8c0,0-3.3-2.1-3.7-12.2
					c0,0,42.1-20.9,47.4-30.4c7.8-14.1-11.7-52.6-1.4-66.2C1521.2,1325.1,1540.2,1317.6,1551.8,1334.4z"/>
			</g>
		</g>
		<g>
			<path class="st22" d="M853.5,1666.4c0,0-0.9-7.3-3.1-11.7c-2.2-4.3-16-1.6-16-1.6s-2.7,2.4-3.3,13.4L853.5,1666.4z"/>
			<path class="st22" d="M900.6,1666.3c-3.3-2-1.4-16.8-1.4-16.8s15.1-12.1,17.2-2.9c2.1,9.3,14.4,13.4,21.4,14.6
				c4.8,0.8,6.3,3.5,6.8,5.1L900.6,1666.3L900.6,1666.3z"/>
			<path class="st11" d="M869.2,1558.7c0.6,3.4,1,6.2,1.1,8.2c1.4,27.5,23.1,90.2,27,91.7c6,2.3,15.5-2.5,20.4-4.1
				c2.1-0.7,3.4-2.7,3-4.8c-10.7-49.4-14.7-120.6-16.1-162.7c-0.7-21.2-4.3-35.9-4.3-35.9s-53-14.1-53.2,3.7
				C846.7,1470.6,864.5,1532.6,869.2,1558.7z"/>
			<path class="st9" d="M869.2,1558.7l35.4-71.8c-0.7-21.2-4.3-35.9-4.3-35.9s-53-14.1-53.2,3.7
				C846.7,1470.6,864.5,1532.6,869.2,1558.7z"/>
			<path class="st11" d="M881,1454.9l-28,202.8c0,0-12.3,2.9-21.9,0.6c0,0-8.2-107.9-7.5-133.9c0.7-26.1-5.9-69.8,1.5-74.6
				C832.6,1444.9,881,1454.9,881,1454.9z"/>
			<path class="st12" d="M823.2,1402.8l-3.5,48.7c-0.1,1.8,1.1,3.5,2.8,4c3.9,1.1,8.4,1.9,17.1,3.7c8.1,1.7,19.1,3.2,32.6,3.3
				c21.4,0.1,29.5-7.3,29.5-7.3c0.9,0-0.5-4.5-1.7-25.8c-0.4-7.2-0.9-16.4-1.1-27.9c-0.3-10.4-0.5-22.8-0.5-37.5
				c0-17.7-27.3-36.7-27.9-36.7l0,0c0,2.5-4,7.2-10.2,7.7c-7.3,0.5-16.3-3.1-16.3-7.4c0-0.1-13.3,21.2-17.9,43.8
				c-0.6,2.9-1.1,5.9-1.4,9.1c0,0.1,0,0.1,0,0.1c-0.1,0.6-0.1,1.1-0.2,1.7c0,0.1,0,0.2,0,0.3c-0.1,0.5-0.1,1.1-0.1,1.6
				c0,0.1,0,0.3-0.1,0.5c-0.1,0.5-0.1,1-0.1,1.5c0,0.1,0,0.1,0,0.1c0,0.4-0.1,0.7-0.1,1.1c0,0.3-0.1,0.5-0.1,0.8
				c0,0.5-0.1,0.9-0.1,1.3c0,0.2,0,0.5-0.1,0.7c0,0.4-0.1,0.9-0.1,1.3c0,0.2,0,0.4-0.1,0.6c-0.1,0.6-0.1,1.3-0.1,1.9
				c0,0.1,0,0.1,0,0.1c0,0.6-0.1,1.2-0.1,1.8c0,0.1,0,0.3,0,0.5c0,0.6-0.1,1.1-0.1,1.7c0,0.1,0,0.2,0,0.3
				C823.3,1399.9,823.3,1401.3,823.2,1402.8C823.2,1402.9,823.2,1402.9,823.2,1402.8L823.2,1402.8z"/>
			<path class="st12" d="M870.5,1327.3c0,0,25.4-0.2,31.5,8.3c6.1,8.6,19.5,54.8,12.5,70.1c-7,15.3-20.1-6.3-27.3-15.7
				C879.9,1380.6,870.5,1327.3,870.5,1327.3z"/>
			<path class="st23" d="M870.8,1323.5v2.6c0,0,0.7,8.2-9.4,9.4c-10.1,1.2-17.8-3.2-17.5-9.5c0.9-4.9,1.9-8.3,2-12.3
				c0-1.5-0.1-3.1-0.3-4.9l19.6-0.4l5.8,0.9L870.8,1323.5z"/>
			<path class="st24" d="M870.8,1309.3l-0.1,14.2c-2.1,1-4.4,1.5-7.1,1.5c-9,0-14.8-6.6-17.9-11.4c0-1.5-0.1-3.1-0.3-4.9l19.6-0.4
				L870.8,1309.3z"/>
			<path class="st23" d="M844,1305.5c2.3,12.3,18.1,11.9,24.9,11.1c1.9-0.2,3.1-0.5,3.1-0.5c2.1-0.6,3.4-4,3.9-8.5
				c1.1-8.9-0.3-21.8-1.8-25.1c-2.3-5-6.5-10.4-22.4-6.5C835.8,1280,841,1289.9,844,1305.5z"/>
			<path class="st20" d="M896.5,1361.8c0,0,9.8,21.7,9.5,28.2c0,0-4.9-0.2-9.5,1.2C888.8,1393.5,896.5,1361.8,896.5,1361.8z"/>
			<path class="st22" d="M879,1270.9c0,0-7-0.5-15.3-4.1c-6.7-2.9-15.1,0.3-17.9,1.7c0.1-0.5,0.3-1.1,0.7-1.7c0,0-1.2,0.9-1.4,2.1
				c-0.1,0.1-0.2,0.1-0.1,0.2c0,0-1.4-0.3-2.3,0.1c0,0,0.6-0.1,0.9,0.3c0,0.1,0.1,0.1,0.1,0.1c-10.5,5.1-11.4,21.6-8.1,25.4
				c4.1,4.6,8.9,14.9,8.9,14.9s1.8-2.5,1.1-6.5c-0.7-4.1,2.7-4.1,7.2-5.9c4.4-1.9,0.7-7,4.6-10.1c3.9-3.1,18-1.3,17.9-3.7
				C880.4,1282,879,1271.4,879,1270.9z"/>
			<path class="st20" d="M840.8,1402.4c4.1,16.7,49,25.3,59.2,27c-0.4-7.2-0.9-16.4-1.1-27.9L840.8,1402.4z"/>
			<path class="st23" d="M850.6,1407.8c-0.4,0-10-1.4-11.7-2.3s-9.5-11.9-4.4-14.8s18.9,8.5,18.9,8.5L850.6,1407.8z"/>
			<path class="st12" d="M908.7,1411.1c0,0-37,2-61.7-3.3c0,0-0.6-7.1,7.1-10.3c0,0,38.6-8.2,47.9-5.9
				C911.3,1393.8,908.7,1411.1,908.7,1411.1z"/>
			<path class="st12" d="M823.9,1382.2c7.7,9.3,17.7,16.8,28.7,18.5l0,0c0.1-0.1,3.3-5.1,2.7-12.3c-0.3-3.3-1.4-7.2-4-11.3
				c-0.8-1.3-1.5-2.7-2.2-4.4c-6-15.4-5.1-45-5.1-45s-25.6,2.7-33.6,14.1C805.5,1348.7,811.7,1367.6,823.9,1382.2z"/>
			<path class="st24" d="M868.8,1316.6c1.9-0.2,3.1-0.5,3.1-0.5c2.1-0.6,3.4-4,3.9-8.5c-4.1,1-5.9,4.1-6.7,5.5
				C868.9,1313.8,868.8,1315.1,868.8,1316.6z"/>
			<path class="st23" d="M879.2,1323.5c0,0,8.9-14.6,1.9-15.2c-6.9-0.7-9.7,4-10.6,5.7c-1,1.7,0.3,9.4,0.3,9.4L879.2,1323.5z"/>
			<path class="st12" d="M845.5,1387.9c0.3,1.9,0.8,3.5,1.5,5.1c2.1,4.8,5.6,7.7,5.6,7.7l0,0c22.9-10.3,27.6-46,28.4-65.6
				c0.3-7.9,0-13.1,0-13.1c-10.3-3.4-13.3,2.5-13.3,2.5s-12.2,29.1-18.6,48.1C846.7,1380,845.2,1385.8,845.5,1387.9z"/>
			<path class="st20" d="M823.9,1382.2c7.7,9.3,17.7,16.8,28.7,18.5l0,0c22.9-10.3,27.6-46,28.4-65.6c0,0-10.9,39.4-25.7,53.2
				c-2.7,2.5-5.5,4.1-8.3,4.6c0,0-18.7-5.3-22.5-10.3C824.2,1382.4,824,1382.2,823.9,1382.2z"/>
		</g>
		<g>
			<path class="st4" d="M445,1633c-4.5,16.7-37.6,26.6-73.8,32.4H236.1c-32.5-15.9-32.5-35-35.2-87.5
				c-5.4-108.5,51.7-160.8,77.1-152.2c1.1,0.3,2.1,0.7,3.2,1.2c7.4,3,15.7,8.2,23.7,20.7c0,0,25.3,42.2,46.1,67.3
				c6.7,8.1,12.9,14.4,17.7,17c0.1,0,0.1,0.1,0.2,0.1c0.3,0.1,0.5,0.3,0.7,0.4c11,5.1,26.5,15.6,40.8,28.9l0,0
				C432.6,1582.1,451.3,1609.4,445,1633z"/>
			<path class="st7" d="M410.6,1561.4c-18.9,5.8-116.5,33.9-139.4,4.1c-16.6-21.6-6.3-77,2.9-112.9c3.7-14.7,22.5-18,30.7-5.4
				c0.1,0.1,0.1,0.3,0.3,0.4c0,0,25.3,42.2,46.1,67.3c6,7.9,11.9,14.1,17.7,17c0.1,0,0.1,0.1,0.2,0.1c0.3,0.1,0.5,0.3,0.7,0.4
				C380.8,1537.5,396.3,1548,410.6,1561.4z"/>
			<g>
				<path class="st16" d="M338,1424.6c0,0,6.7,10,10.6,31c3.4,18.4,6.3,25.2,11.2,29c4.9,3.8,32,14.9,32,14.9l-2,4.7
					c0,0-39.8-5.4-44.3-12.1s-21.5-46-20.2-55S338,1424.6,338,1424.6z"/>
				<g>
					<path class="st16" d="M435.5,1644.2c-0.3,3.9,5.1,4.8,11.3,5.1c6.3,0.3,4.3,1.6,12.9,3.1s12-0.8,12.6-1.9
						c0.5-1-3.5-2.7-7.7-4.5c-0.5-0.2-1.1-0.5-1.6-0.7c-4.8-2.1-7.5-6.4-11.2-10.3c-3.5-3.7-6.9-15.8-6.9-15.8l-11.7-2.5
						c0,0,3.3,10.9,4.4,15.5c0.7,2.7-0.3,5.8-1.2,8.1C436.1,1641.5,435.6,1642.8,435.5,1644.2z"/>
					<path class="st18" d="M446.8,1649.3c6.3,0.3,4.3,1.6,12.9,3.1s12-0.8,12.6-1.9c0.5-1-3.5-2.7-7.7-4.5l-0.1,0.1
						c0,0-6,2.1-13,0.1c-5.7-1.5-11.1-4.9-15.1-6c-0.5,1.3-0.9,2.5-1.1,3.9C435.1,1648,440.5,1649,446.8,1649.3z"/>
				</g>
				<path class="st18" d="M319.4,1505.9c0,0,77.4-5.8,92,3.4c14.6,9.2,38,116.4,38,116.4s-1.5,1.1-4.7,1.5c-3,0.3-9.6-1.5-9.6-1.5
					s-33.6-48-36-60c-2.3-12.1-1.8-22.9-7.2-23.1c-5.4-0.3-72.6,8.1-82.8-9.7c-10.1-17.9-1.7-35.6-1.7-35.6L319.4,1505.9z"/>
				<g>
					<path class="st16" d="M405.8,1656.6c-0.3,3.9,5.1,4.8,11.3,5.1c6.3,0.3,4.3,1.6,12.9,3.1s12-0.8,12.6-1.9
						c0.5-1-3.5-2.7-7.7-4.5c-0.5-0.2-1.1-0.5-1.6-0.7c-4.8-2.1-7.5-6.4-11.2-10.3c-3.5-3.7-6.9-15.8-6.9-15.8l-11.7-2.5
						c0,0,3.3,10.9,4.4,15.5c0.7,2.7-0.3,5.8-1.2,8.1C406.4,1654,406,1655.2,405.8,1656.6z"/>
					<path class="st18" d="M417.2,1661.8c6.3,0.3,4.3,1.6,12.9,3.1s12-0.8,12.6-1.9c0.5-1-3.5-2.7-7.7-4.5l-0.1,0.1
						c0,0-6,2.1-13,0.1c-5.7-1.5-11.1-4.9-15.1-6c-0.5,1.3-0.9,2.5-1.1,3.9C405.5,1660.5,410.9,1661.4,417.2,1661.8z"/>
				</g>
				<path class="st19" d="M304.2,1510.7c0,0,68.8,3.3,83,13s33.4,117.8,33.4,117.8s-1.5,1.1-4.7,1.3c-3,0.2-9.5-1.8-9.5-1.8
					s-31.7-49.2-33.6-61.4c-1.9-12.1-0.9-22.9-6.3-23.4s-72.8,5.3-82.3-12.9C274.8,1525,304.2,1510.7,304.2,1510.7z"/>
				<path class="st18" d="M328.7,1359.3c-3.1-2-6.9-2.5-9.5-2.5c0.7-0.7,2.1-0.8,2.1-0.8c-1.6-0.3-5.4,1.1-5.4,1.1
					c-22.3-10.4-28.2,23.1-28.3,31.1c-0.1,7.9-0.6,16.9-12.5,23.2c-23.5,12.3-6.1,37.8-6.1,37.8c0.2,0.1,9.3,18.3,9.3,18.3
					c-0.1-6.4,31.3-37.9,47.3-46.9c4.1-5.2,6.1-14.8,6.2-15.5c-1.1,7.6-2.7,11.8-4.1,14.2C341.5,1408,336.9,1364.6,328.7,1359.3z"/>
				<path class="st16" d="M301.3,1413c0,0,6.4-0.6,12.8,0c4.3,0.4,8.7,1.7,11.1,2.8c6.1,2.5,5.4,13.3-7.3,11.3
					C305.2,1425.1,300.4,1416.2,301.3,1413z"/>
				<path class="st16" d="M324.7,1420.8c0.1,0.1,1.8,9.2-6.5,8.9c-5.5-0.3-17.3-6.9-16.2-11.5c0.5-2.2,4.6-8,5.5-21.2l1,0.3
					l16.7,4.5c0,0-0.7,5.3-1.1,10.3C323.8,1416.3,323.8,1420.4,324.7,1420.8z"/>
				<path class="st25" d="M325.2,1401.8c0,0-0.7,5.3-1.1,10.3c-9.5-0.9-13.9-9.9-15.7-14.8L325.2,1401.8z"/>
				<path class="st18" d="M306.8,1395.3c0,0-4.5-8.2-5.2-15c-0.5-4.9,3.1-22.5,20.8-18.7c0,0,5.1,0.9,9.8,4.5
					c3.7,2.9,8.9,8.9,1.6,24l-2,5.1L306.8,1395.3z"/>
				<path class="st16" d="M328,1406.8c0,0-22.5-1.1-21.5-15.1s-1.3-23.5,13-23.4s16.8,5.7,17.7,10.4
					C338,1383.4,333.9,1406.7,328,1406.8z"/>
				<path class="st18" d="M329.8,1368.6c0,0-7.3,16-16.9,17.8s-13.5-1-13.5-1s7.6-5.3,9.8-15.2
					C309.2,1370.2,325.6,1360.4,329.8,1368.6z"/>
				<path class="st18" d="M328.1,1369.8c0,0,4.3,4,5.2,7.6c0.9,3.7,0.9,11,3.1,10.9c0,0,5.4-10.9,0.6-17.5
					C331.9,1363.7,328.1,1369.8,328.1,1369.8z"/>
				<path class="st1" d="M350.5,1507.1c-1.8,2.2-7.5,2.9-13.6,3.9c-4.8,0.8-9.8,1.8-13.3,3.9c-8.1,4.7-34.6,20.9-42.4,20.1
					c-3-0.3-2.5-6-0.6-13.7c2.9-12,8.9-28.7,8.9-36c0-3.9,1.3-13.3,3.1-24.1c0.1-0.9,0.3-1.7,0.5-2.6c3.5-20.9,8.3-45.5,8.3-45.5
					s5.4,11.7,15.9,11.7s8.1-8.9,8.1-8.9s9.6,1.1,11.8,3.5c2.3,2.5,8,12.9,9.1,15.9c0,0,0.2,3.7-8.8,5.4c0,0,2.2,9.9,2.5,16.5
					c0.2,4.9-3.3,20.2-4.3,29.7c-0.3,3.4-0.4,6,0.1,7.2c0.7,1.5,2.9,3.1,5.5,4.5C346.3,1501.6,352.7,1504.5,350.5,1507.1z"/>
				<path class="st26" d="M341.3,1498.7c5.8,9.9-15.7,12.9-19.3,15c-8.1,4.7-32.9,22-40.7,21.3c-3-0.3-2.5-6-0.6-13.7
					c2.9-12,8.9-28.7,8.9-36c0-3.9,1.3-13.3,3.1-24.1l9.3-9c0,0,10,25.9,19.5,30.1c5,2.2,10.2,3.7,14.1,4.6c-0.3,3.4-0.4,6,0.1,7.2
					C336.4,1495.6,338.7,1497.2,341.3,1498.7z"/>
				<path class="st21" d="M298.4,1420.8c0,0-8-4.9-15.7,4.3c-7.7,9.2,5.5,75,16.9,78.4c12.7,3.7,49.4-0.6,49.4-0.6l-0.7-5.7
					c0,0-39.1-7.5-40.8-9.6C306,1485.5,302.5,1421.8,298.4,1420.8z"/>
				<path class="st1" d="M301.3,1413c0,0-16.4,1.5-21.1,6.9s-6.1,20-6.1,20s14.5,11.7,31.9,7.1L301.3,1413z"/>
				<g>
					<rect x="352.9" y="1506" class="st12" width="21.7" height="2.5"/>
					<path class="st20" d="M370,1508.2c0.2-0.9,19.9-31.8,19.9-31.8h43.9l-22,30.9L370,1508.2z"/>
					<path class="st12" d="M371.9,1508.6c0.2-0.9,20-32.1,20-32.1h42l-20.9,32.1H371.9z"/>
					<path class="st14" d="M408.8,1492.6c-0.4,1.3-1.8,2.3-3.1,2.3s-1.9-1-1.5-2.3s1.8-2.3,3.1-2.3
						C408.6,1490.3,409.3,1491.3,408.8,1492.6z"/>
				</g>
				<path class="st23" d="M345.2,1496.8c0,0,12.7-2.5,14.1-1.9c1.5,0.6,9.5,7.8,8.6,9.3c-0.8,1.5-4.1,2.5-7.8,1.2
					c-3.7-1.2-11.7-1.9-13.1-3.7C345.7,1500,345.2,1496.8,345.2,1496.8z"/>
			</g>
		</g>
		<g>
			<polygon class="st26" points="616.7,1140 1017.2,1140 1047.9,1039.5 647.3,1039.5 			"/>
			<g>
				<path class="st14" d="M662.6,1073.5l-3.7,12c-1.6,5.3,1.4,9.6,6.7,9.6h331.9c5.3,0,10.9-4.3,12.5-9.6l3.7-12
					c1.6-5.3-1.4-9.6-6.7-9.6H675.1C669.9,1063.9,664.2,1068.2,662.6,1073.5z"/>
				<g>
					<path class="st27" d="M731,1084.6h-2l-1.9-8.8l0.4-1.3h7.1l-0.5,1.5H729L731,1084.6z"/>
					<path class="st27" d="M718.7,1084.8c-2.7,0-3.7-2.3-2.8-5.3c0.9-2.9,3.3-5.3,6-5.3s3.7,2.3,2.8,5.3
						C723.8,1082.4,721.4,1084.8,718.7,1084.8z M719.2,1083.2c1.6,0,3.1-1.7,3.7-3.6c0.6-2.1,0.1-3.6-1.5-3.6
						c-1.5,0-3.1,1.7-3.7,3.6C717.1,1081.6,717.6,1083.2,719.2,1083.2z"/>
					<path class="st27" d="M712,1079.5c-1.4,0-2.1-1.2-1.6-2.6c0.4-1.4,1.7-2.6,3.1-2.6s2.1,1.2,1.6,2.6
						C714.7,1078.3,713.4,1079.5,712,1079.5z M711.8,1084.6h-1.4l-4.3-10.1h1.4L711.8,1084.6z M712.3,1078.4c0.7,0,1.3-0.7,1.5-1.5
						c0.3-0.8,0.1-1.5-0.7-1.5c-0.7,0-1.3,0.7-1.5,1.5C711.4,1077.7,711.6,1078.4,712.3,1078.4z M704.3,1084.7
						c-1.4,0-2.1-1.2-1.6-2.6c0.4-1.4,1.7-2.6,3.1-2.6s2.1,1.2,1.6,2.6C707,1083.5,705.7,1084.7,704.3,1084.7z M704.6,1083.6
						c0.7,0,1.3-0.7,1.5-1.5c0.3-0.8,0.1-1.5-0.7-1.5c-0.7,0-1.3,0.7-1.5,1.5C703.7,1082.9,703.9,1083.6,704.6,1083.6z"/>
				</g>
				<g>
					<path class="st12" d="M782.6,1063.9l-9.5,31.3h224.4c4.4,0,9.1-3,11.4-7.1c0.5-0.8,0.9-1.7,1.1-2.5l3.7-12
						c1.6-5.3-1.4-9.6-6.7-9.6L782.6,1063.9L782.6,1063.9z"/>
					<path class="st11" d="M967.3,1063.9l9.5,31.3h20.7c4.4,0,9.1-3,11.4-7.1l-7.3-24.2L967.3,1063.9L967.3,1063.9z"/>
					<polygon class="st11" points="908.6,1063.9 918.1,1095.2 952.3,1095.2 942.9,1063.9 					"/>
					<polygon class="st11" points="849.8,1063.9 859.3,1095.2 893.6,1095.2 884.1,1063.9 					"/>
					<polygon class="st11" points="791.1,1063.9 800.6,1095.2 834.8,1095.2 825.4,1063.9 					"/>
				</g>
			</g>
			<g>
				<polygon class="st27" points="936.6,1113.6 996.6,1113.6 997.8,1109.5 937.9,1109.5 				"/>
				<polygon class="st27" points="949.5,1125.2 993,1125.2 994.3,1121.1 950.7,1121.1 				"/>
				<polygon class="st27" points="920.7,1125.2 946.8,1125.2 948.1,1121.1 922,1121.1 				"/>
				<polygon class="st27" points="876.5,1125.2 916.3,1125.2 917.5,1121.1 877.8,1121.1 				"/>
				<polygon class="st27" points="914,1113.6 932.1,1113.6 933.4,1109.5 915.3,1109.5 				"/>
				<polygon class="st27" points="841.8,1113.6 907.7,1113.6 909,1109.5 843,1109.5 				"/>
			</g>
		</g>
		<g>
			<polygon class="st26" points="1157.4,1291.8 1439.2,1291.8 1483,1148.3 1201.1,1148.3 			"/>
			<polygon class="st14" points="1197.1,1220.1 1443.2,1220.1 1461.8,1159.1 1215.7,1159.1 			"/>
			<g>
				<polygon class="st9" points="1402.8,1171.5 1444.5,1171.5 1445.4,1168.3 1403.8,1168.3 				"/>
				<polygon class="st9" points="1358.1,1171.5 1392.8,1171.5 1393.8,1168.3 1359.1,1168.3 				"/>
				<polygon class="st9" points="1277.5,1171.5 1349.1,1171.5 1350.1,1168.3 1278.4,1168.3 				"/>
				<polygon class="st9" points="1399.2,1183.1 1440.8,1183.1 1441.8,1179.9 1400.2,1179.9 				"/>
				<polygon class="st9" points="1354.6,1183.1 1389.3,1183.1 1390.3,1179.9 1355.6,1179.9 				"/>
				<polygon class="st9" points="1313.7,1183.1 1348.3,1183.1 1349.3,1179.9 1314.7,1179.9 				"/>
				<polygon class="st9" points="1231.5,1184.5 1303.2,1184.5 1304.2,1181.3 1232.5,1181.3 				"/>
			</g>
			<g>
				<polygon class="st9" points="1394.7,1197.9 1436.4,1197.9 1437.3,1194.7 1395.7,1194.7 				"/>
				<polygon class="st9" points="1350.1,1197.9 1384.8,1197.9 1385.8,1194.7 1351.1,1194.7 				"/>
				<polygon class="st9" points="1269.4,1197.9 1341.1,1197.9 1342.1,1194.7 1270.4,1194.7 				"/>
				<polygon class="st9" points="1391.1,1209.5 1432.8,1209.5 1433.8,1206.3 1392.1,1206.3 				"/>
				<polygon class="st9" points="1346.5,1209.5 1381.2,1209.5 1382.2,1206.3 1347.5,1206.3 				"/>
				<polygon class="st9" points="1305.6,1209.5 1340.3,1209.5 1341.3,1206.3 1306.6,1206.3 				"/>
				<polygon class="st9" points="1223.4,1210.9 1295.1,1210.9 1296.1,1207.7 1224.4,1207.7 				"/>
			</g>
			<g>
				<g>
					<g>
						<path class="st11" d="M1266.2,1253.2c2.9-9.5,13.1-17.3,22.6-17.3s14.9,7.7,12,17.3c-2.9,9.5-13.1,17.3-22.6,17.3
							C1268.6,1270.6,1263.2,1262.8,1266.2,1253.2z M1269.4,1253.2c-2.4,7.8,2,14.1,9.8,14.1s16.1-6.3,18.5-14.1
							c2.4-7.8-2-14.1-9.8-14.1S1271.7,1245.4,1269.4,1253.2z"/>
					</g>
					<g>
						<path class="st11" d="M1281.2,1262c0.7-0.1,1.3-0.3,1.9-0.8l9.8-7.8c1.3-1.1,1.8-2.7,1.1-3.7c-0.7-1-2.4-1-3.7,0.1l-6.9,5.5
							l-3.4-8.1c-0.5-1.2-2.1-1.5-3.5-0.6c-1.5,0.9-2.2,2.5-1.7,3.7l4.5,10.7c0.3,0.6,0.9,1,1.6,1.1
							C1280.9,1262,1281,1262,1281.2,1262z"/>
					</g>
				</g>
				<g>
					<g>
						<path class="st11" d="M1315.7,1253.2c2.9-9.5,13.1-17.3,22.6-17.3s14.9,7.7,12,17.3c-2.9,9.5-13.1,17.3-22.6,17.3
							S1312.8,1262.8,1315.7,1253.2z M1318.9,1253.2c-2.4,7.8,2,14.1,9.8,14.1s16.1-6.3,18.5-14.1c2.4-7.8-2-14.1-9.8-14.1
							S1321.3,1245.4,1318.9,1253.2z"/>
					</g>
					<g>
						<path class="st11" d="M1330.7,1262c0.7-0.1,1.3-0.3,1.9-0.8l9.8-7.8c1.3-1.1,1.8-2.7,1.1-3.7c-0.7-1-2.4-1-3.7,0.1l-6.9,5.5
							l-3.4-8.1c-0.5-1.2-2.1-1.5-3.5-0.6c-1.5,0.9-2.2,2.5-1.7,3.7l4.5,10.7c0.3,0.6,0.9,1,1.6,1.1
							C1330.5,1262,1330.6,1262,1330.7,1262z"/>
					</g>
				</g>
				<g>
					<g>
						<path class="st11" d="M1367.1,1253.2c2.9-9.5,13.1-17.3,22.6-17.3s14.9,7.7,12,17.3c-2.9,9.5-13.1,17.3-22.6,17.3
							S1364.1,1262.8,1367.1,1253.2z M1370.2,1253.2c-2.4,7.8,2,14.1,9.8,14.1s16.1-6.3,18.5-14.1s-2-14.1-9.8-14.1
							S1372.6,1245.4,1370.2,1253.2z"/>
					</g>
					<g>
						<path class="st11" d="M1382,1262c0.7-0.1,1.3-0.3,1.9-0.8l9.8-7.8c1.3-1.1,1.8-2.7,1.1-3.7c-0.7-1-2.4-1-3.7,0.1l-6.9,5.5
							l-3.4-8.1c-0.5-1.2-2.1-1.5-3.5-0.6c-1.5,0.9-2.2,2.5-1.7,3.7l4.5,10.7c0.3,0.6,0.9,1,1.6,1.1
							C1381.8,1262,1382,1262,1382,1262z"/>
					</g>
				</g>
				<g>
					<g>
						<path class="st13" d="M1218.3,1253.2c2.9-9.5,13.1-17.3,22.6-17.3s14.9,7.7,12,17.3c-2.9,9.5-13.1,17.3-22.6,17.3
							S1215.4,1262.8,1218.3,1253.2z M1221.5,1253.2c-2.4,7.8,2,14.1,9.8,14.1s16.1-6.3,18.5-14.1s-2-14.1-9.8-14.1
							S1223.9,1245.4,1221.5,1253.2z"/>
					</g>
					<g>
						<path class="st13" d="M1234.8,1256.1L1234.8,1256.1c1.3,0,2.8-1.1,3.2-2.5l2.3-7.3c0.4-1.3-0.3-2.5-1.7-2.5l0,0
							c-1.3,0-2.8,1.1-3.2,2.5l-2.3,7.3C1232.7,1255,1233.5,1256.1,1234.8,1256.1z"/>
						<path class="st13" d="M1232.8,1261.8h0.5c1.2,0,2.5-1,2.9-2.2l0,0c0.4-1.2-0.3-2.2-1.5-2.2h-0.5c-1.2,0-2.5,1-2.9,2.2l0,0
							C1230.9,1260.8,1231.6,1261.8,1232.8,1261.8z"/>
					</g>
				</g>
			</g>
		</g>
		<g>
			<path class="st7" d="M557,1263.2c0,0-35.6,37-37.4,50.9c-1.7,13.9,17.1,35.6,17.1,35.6L557,1263.2z"/>
			<path class="st18" d="M573,1646.2c0,0,1.3,19.6,5.1,19.9c0.5,0.1,19.2,0,19.2,0l23.9-0.2c0,0-0.2-5.7-7.1-6.9
				c-7-1.2-18.7-6.1-22.9-15.3C586.6,1633.9,573,1646.2,573,1646.2z"/>
			<path class="st18" d="M519.8,1646.4c0,0,1.3,19.6,5.1,19.9c0.5,0.1,19.2,0,19.2,0l23.9-0.2c0,0-0.2-5.7-7.1-6.9
				c-7-1.2-18.7-6.1-22.9-15.3C533.4,1634,519.8,1646.4,519.8,1646.4z"/>
			<path class="st28" d="M599.1,1435.5c0,0-6.1,40-29.3,111.1c-23.1,71-26.3,101.8-26.3,101.8l-25-0.7c0,0-0.4-77.6,10.3-113.3
				c10.7-35.8,2.1-128.7,2.1-128.7L599.1,1435.5z"/>
			<path class="st29" d="M611.2,1407.6c0,0,1,60.3-9.3,134.3s-6.7,105.5-6.7,105.5l-24.9,0.9c0,0-15.1-74-10.9-111.1
				c4.2-37.1-20.7-127.1-20.7-127.1L611.2,1407.6z"/>
			<path class="st21" d="M562.6,1266.7l13.3,8.7l19.2-3.6c-0.3-1.5-1.5-8-2.7-13.8c-0.1-0.3-0.1-0.7-0.2-1c-1-4.9-1.9-9.2-1.9-9.2
				l-18-7.9l-6.7-2.9c0,0.1,0.5,5.5,0.6,6.3C567.5,1257.2,562.6,1266.7,562.6,1266.7z"/>
			<path class="st7" d="M590.2,1262.2c-0.4-0.1-23.1-6.8-25.7-6c-2.5,0.8-3.9,5.6-3.9,5.6l37.3,8.3
				C597.8,1270.2,594.9,1264.2,590.2,1262.2z"/>
			<path class="st4" d="M529.1,1415.2c3.9,17.6,68.2,19.5,84.7,3.5c1.9-1.8,1.9-10.3,1.2-21.7c-1.5-22.3-6-56-6.2-73.1
				c-0.1-8.3-1.3-16.7-2.8-24.5c-3.3-16.4-8.2-29.3-8.2-29.3s-31.4-10.1-37.3-8.3C532.3,1270.2,525.2,1397.6,529.1,1415.2z"/>
			<path class="st7" d="M615.1,1397c-1.5-22.3-6-56-6.2-73.1c-0.1-8.3-1.3-16.7-2.8-24.5l-18.9-3.3
				C587.2,1296.2,568.9,1371.6,615.1,1397z"/>
			<path class="st16" d="M604.8,1366c0,0-1.3,3.1,1.4,5.1c2.7,2.1,4.5,5.4,3.9,7.9s-6.5,6.5-8.6,5.8s-6.3-3.9-5.8-5.1
				c0.5-1.3-2.9-11.3,2.1-15.2C602.8,1360.5,604.8,1366,604.8,1366z"/>
			<path class="st4" d="M583.4,1265.7c0,0,18.4,3.4,33.1,25s24.4,37.7,21.7,45.5s-27.3,34.9-31.5,34.9c-4.3,0-11.1-3.1-11.5-10
				c0,0,17.3-26,13.9-29.9c-1.5-1.7-22.5-18.7-25.5-11C578.6,1332.9,583.4,1265.7,583.4,1265.7z"/>
			<path class="st16" d="M567.6,1243.4c3.9,6.7,18.7,12.4,24.8,14.5c-0.1-0.3-0.1-0.7-0.2-1c-1-4.9-1.9-9.2-1.9-9.2l-18-7.9
				C568.4,1239.8,566,1240.7,567.6,1243.4z"/>
			<path class="st16" d="M597,1246.6c0,0-28.9,9.1-34.3-9c-5.4-18.1-12.7-29.1,5.5-35.7c18.2-6.5,23.9-0.7,27.1,4.9
				C598.7,1212.4,604.4,1243.8,597,1246.6z"/>
			<path class="st18" d="M594.3,1205c0,0-1.8,21.1-6.1,20.1c-4.3-0.9-8.3-1.6-7.7,4.8c0.7,6.3,6.7,13.7-6.7,14.8
				c-13.4,1.1-32.8-33.4-29.1-40C555.2,1185.9,609.6,1181.9,594.3,1205z"/>
		</g>
		<g>
			<g>
				<g class="st30">
					<path class="st17" d="M1681.6,1585.8v-7h7.2v7H1681.6z"/>
					<path class="st17" d="M1681.6,1571.8v-7h7.2v7H1681.6z"/>
					<path class="st17" d="M1681.6,1557.6v-7h7.2v7H1681.6z"/>
					<path class="st17" d="M1681.6,1543.4v-7h7.2v7H1681.6z"/>
					<path class="st17" d="M1681.6,1529.4v-7h7.2v7H1681.6z"/>
					<path class="st17" d="M1681.6,1515.2v-7h7.2v7H1681.6z"/>
					<path class="st17" d="M1681.6,1501.1v-7h7.2v7H1681.6z"/>
					<path class="st17" d="M1681.6,1487v-7h7.2v7H1681.6z"/>
					<path class="st17" d="M1681.6,1472.8v-7h7.2v7H1681.6z"/>
					<path class="st17" d="M1681.6,1458.7v-7h7.2v7H1681.6z"/>
					<path class="st17" d="M1681.6,1444.5v-7h7.2v7H1681.6z"/>
					<path class="st17" d="M1681.6,1430.4v-7h7.2v7H1681.6z"/>
					<path class="st17" d="M1681.6,1416.3v-7h7.2v7H1681.6z"/>
					<path class="st17" d="M1681.6,1402.1v-7h7.2v7H1681.6z"/>
					<path class="st17" d="M1681.6,1388v-7h7.2v7H1681.6z"/>
					<path class="st17" d="M1681.6,1373.9v-7h7.2v7H1681.6z"/>
					<path class="st17" d="M1681.6,1359.7v-7h7.2v7H1681.6z"/>
					<path class="st17" d="M1681.6,1345.6v-7h7.2v7H1681.6z"/>
				</g>
				<g class="st30">
					<path class="st17" d="M1703.6,1501.1v-7h7.2v7H1703.6z"/>
					<path class="st17" d="M1703.6,1487v-7h7.2v7H1703.6z"/>
					<path class="st17" d="M1703.6,1472.8v-7h7.2v7H1703.6z"/>
					<path class="st17" d="M1703.6,1458.7v-7h7.2v7H1703.6z"/>
					<path class="st17" d="M1703.6,1444.5v-7h7.2v7H1703.6z"/>
					<path class="st17" d="M1703.6,1430.4v-7h7.2v7H1703.6z"/>
					<path class="st17" d="M1703.6,1416.3v-7h7.2v7H1703.6z"/>
					<path class="st17" d="M1703.6,1402.1v-7h7.2v7H1703.6z"/>
					<path class="st17" d="M1703.6,1388v-7h7.2v7H1703.6z"/>
					<path class="st17" d="M1703.6,1373.9v-7h7.2v7H1703.6z"/>
					<path class="st17" d="M1703.6,1359.7v-7h7.2v7H1703.6z"/>
					<path class="st17" d="M1703.6,1345.6v-7h7.2v7H1703.6z"/>
				</g>
				<g class="st30">
					<path class="st17" d="M1726,1585.8v-7h7.2v7H1726z"/>
					<path class="st17" d="M1726,1571.8v-7h7.2v7H1726z"/>
					<path class="st17" d="M1726,1557.6v-7h7.2v7H1726z"/>
					<path class="st17" d="M1726,1543.4v-7h7.2v7H1726z"/>
					<path class="st17" d="M1726,1529.4v-7h7.2v7H1726z"/>
					<path class="st17" d="M1726,1515.2v-7h7.2v7H1726z"/>
					<path class="st17" d="M1726,1501.1v-7h7.2v7H1726z"/>
					<path class="st17" d="M1726,1487v-7h7.2v7H1726z"/>
					<path class="st17" d="M1726,1472.8v-7h7.2v7H1726z"/>
					<path class="st17" d="M1726,1458.7v-7h7.2v7H1726z"/>
					<path class="st17" d="M1726,1444.5v-7h7.2v7H1726z"/>
					<path class="st17" d="M1726,1430.4v-7h7.2v7H1726z"/>
					<path class="st17" d="M1726,1416.3v-7h7.2v7H1726z"/>
					<path class="st17" d="M1726,1402.1v-7h7.2v7H1726z"/>
					<path class="st17" d="M1726,1388v-7h7.2v7H1726z"/>
					<path class="st17" d="M1726,1373.9v-7h7.2v7H1726z"/>
					<path class="st17" d="M1726,1359.7v-7h7.2v7H1726z"/>
					<path class="st17" d="M1726,1345.6v-7h7.2v7H1726z"/>
				</g>
				<g class="st30">
					<path class="st17" d="M1744.9,1614.2v-7h7.2v7H1744.9z"/>
					<path class="st17" d="M1744.9,1600v-7h7.2v7H1744.9z"/>
					<path class="st17" d="M1744.9,1585.8v-7h7.2v7H1744.9z"/>
					<path class="st17" d="M1744.9,1571.8v-7h7.2v7H1744.9z"/>
					<path class="st17" d="M1744.9,1557.6v-7h7.2v7H1744.9z"/>
					<path class="st17" d="M1744.9,1543.4v-7h7.2v7H1744.9z"/>
					<path class="st17" d="M1744.9,1529.4v-7h7.2v7H1744.9z"/>
					<path class="st17" d="M1744.9,1515.2v-7h7.2v7H1744.9z"/>
					<path class="st17" d="M1744.9,1501.1v-7h7.2v7H1744.9z"/>
					<path class="st17" d="M1744.9,1487v-7h7.2v7H1744.9z"/>
					<path class="st17" d="M1744.9,1472.8v-7h7.2v7H1744.9z"/>
					<path class="st17" d="M1744.9,1458.7v-7h7.2v7H1744.9z"/>
					<path class="st17" d="M1744.9,1444.5v-7h7.2v7H1744.9z"/>
					<path class="st17" d="M1744.9,1430.4v-7h7.2v7H1744.9z"/>
					<path class="st17" d="M1744.9,1416.3v-7h7.2v7H1744.9z"/>
					<path class="st17" d="M1744.9,1402.1v-7h7.2v7H1744.9z"/>
					<path class="st17" d="M1744.9,1388v-7h7.2v7H1744.9z"/>
					<path class="st17" d="M1744.9,1373.9v-7h7.2v7H1744.9z"/>
					<path class="st17" d="M1744.9,1359.7v-7h7.2v7H1744.9z"/>
					<path class="st17" d="M1744.9,1345.6v-7h7.2v7H1744.9z"/>
				</g>
				<g class="st30">
					<path class="st17" d="M1769.8,1487v-7h7.2v7H1769.8z"/>
					<path class="st17" d="M1769.8,1472.8v-7h7.2v7H1769.8z"/>
					<path class="st17" d="M1769.8,1458.7v-7h7.2v7H1769.8z"/>
					<path class="st17" d="M1769.8,1444.5v-7h7.2v7H1769.8z"/>
					<path class="st17" d="M1769.8,1430.4v-7h7.2v7H1769.8z"/>
					<path class="st17" d="M1769.8,1416.3v-7h7.2v7H1769.8z"/>
					<path class="st17" d="M1769.8,1402.1v-7h7.2v7H1769.8z"/>
					<path class="st17" d="M1769.8,1388v-7h7.2v7H1769.8z"/>
					<path class="st17" d="M1769.8,1373.9v-7h7.2v7H1769.8z"/>
					<path class="st17" d="M1769.8,1359.7v-7h7.2v7H1769.8z"/>
					<path class="st17" d="M1769.8,1345.6v-7h7.2v7H1769.8z"/>
				</g>
			</g>
		</g>
		<g>
			<g>
				<g class="st30">
					<path class="st14" d="M1009.5,704.4h10.9V715h-10.9V704.4z"/>
					<path class="st14" d="M1031.5,704.4h10.9V715h-10.9V704.4z"/>
					<path class="st14" d="M1053.5,704.4h10.9V715h-10.9V704.4z"/>
					<path class="st14" d="M1075.5,704.4h10.9V715h-10.9V704.4z"/>
					<path class="st14" d="M1097.6,704.4h10.9V715h-10.9V704.4z"/>
					<path class="st14" d="M1119.6,704.4h10.9V715h-10.9V704.4z"/>
					<path class="st14" d="M1141.6,704.4h10.9V715h-10.9V704.4z"/>
					<path class="st14" d="M1163.6,704.4h10.9V715h-10.9V704.4z"/>
					<path class="st14" d="M1185.6,704.4h10.9V715h-10.9V704.4z"/>
					<path class="st14" d="M1207.7,704.4h10.9V715h-10.9V704.4z"/>
					<path class="st14" d="M1229.7,704.4h10.9V715h-10.9V704.4z"/>
					<path class="st14" d="M1251.7,704.4h10.9V715h-10.9V704.4z"/>
					<path class="st14" d="M1273.7,704.4h10.9V715h-10.9V704.4z"/>
					<path class="st14" d="M1295.8,704.4h10.9V715h-10.9V704.4z"/>
					<path class="st14" d="M1317.8,704.4h10.9V715h-10.9V704.4z"/>
					<path class="st14" d="M1339.8,704.4h10.9V715h-10.9V704.4z"/>
					<path class="st14" d="M1361.9,704.4h10.9V715h-10.9V704.4z"/>
					<path class="st14" d="M1383.9,704.4h10.9V715h-10.9V704.4z"/>
				</g>
				<g class="st30">
					<path class="st14" d="M1141.6,736.6h10.9v10.6h-10.9V736.6z"/>
					<path class="st14" d="M1163.6,736.6h10.9v10.6h-10.9V736.6z"/>
					<path class="st14" d="M1185.6,736.6h10.9v10.6h-10.9V736.6z"/>
					<path class="st14" d="M1207.7,736.6h10.9v10.6h-10.9V736.6z"/>
					<path class="st14" d="M1229.7,736.6h10.9v10.6h-10.9V736.6z"/>
					<path class="st14" d="M1251.7,736.6h10.9v10.6h-10.9V736.6z"/>
					<path class="st14" d="M1273.7,736.6h10.9v10.6h-10.9V736.6z"/>
					<path class="st14" d="M1295.8,736.6h10.9v10.6h-10.9V736.6z"/>
					<path class="st14" d="M1317.8,736.6h10.9v10.6h-10.9V736.6z"/>
					<path class="st14" d="M1339.8,736.6h10.9v10.6h-10.9V736.6z"/>
					<path class="st14" d="M1361.9,736.6h10.9v10.6h-10.9V736.6z"/>
					<path class="st14" d="M1383.9,736.6h10.9v10.6h-10.9V736.6z"/>
				</g>
				<g class="st30">
					<path class="st14" d="M1009.5,769.3h10.9v10.6h-10.9V769.3z"/>
					<path class="st14" d="M1031.5,769.3h10.9v10.6h-10.9V769.3z"/>
					<path class="st14" d="M1053.5,769.3h10.9v10.6h-10.9V769.3z"/>
					<path class="st14" d="M1075.5,769.3h10.9v10.6h-10.9V769.3z"/>
					<path class="st14" d="M1097.6,769.3h10.9v10.6h-10.9V769.3z"/>
					<path class="st14" d="M1119.6,769.3h10.9v10.6h-10.9V769.3z"/>
					<path class="st14" d="M1141.6,769.3h10.9v10.6h-10.9V769.3z"/>
					<path class="st14" d="M1163.6,769.3h10.9v10.6h-10.9V769.3z"/>
					<path class="st14" d="M1185.6,769.3h10.9v10.6h-10.9V769.3z"/>
					<path class="st14" d="M1207.7,769.3h10.9v10.6h-10.9V769.3z"/>
					<path class="st14" d="M1229.7,769.3h10.9v10.6h-10.9V769.3z"/>
					<path class="st14" d="M1251.7,769.3h10.9v10.6h-10.9V769.3z"/>
					<path class="st14" d="M1273.7,769.3h10.9v10.6h-10.9V769.3z"/>
					<path class="st14" d="M1295.8,769.3h10.9v10.6h-10.9V769.3z"/>
					<path class="st14" d="M1317.8,769.3h10.9v10.6h-10.9V769.3z"/>
					<path class="st14" d="M1339.8,769.3h10.9v10.6h-10.9V769.3z"/>
					<path class="st14" d="M1361.9,769.3h10.9v10.6h-10.9V769.3z"/>
					<path class="st14" d="M1383.9,769.3h10.9v10.6h-10.9V769.3z"/>
				</g>
				<g class="st30">
					<path class="st14" d="M965.4,796.9h10.9v10.6h-10.9V796.9z"/>
					<path class="st14" d="M987.5,796.9h10.9v10.6h-10.9V796.9z"/>
					<path class="st14" d="M1009.5,796.9h10.9v10.6h-10.9V796.9z"/>
					<path class="st14" d="M1031.5,796.9h10.9v10.6h-10.9V796.9z"/>
					<path class="st14" d="M1053.5,796.9h10.9v10.6h-10.9V796.9z"/>
					<path class="st14" d="M1075.5,796.9h10.9v10.6h-10.9V796.9z"/>
					<path class="st14" d="M1097.6,796.9h10.9v10.6h-10.9V796.9z"/>
					<path class="st14" d="M1119.6,796.9h10.9v10.6h-10.9V796.9z"/>
					<path class="st14" d="M1141.6,796.9h10.9v10.6h-10.9V796.9z"/>
					<path class="st14" d="M1163.6,796.9h10.9v10.6h-10.9V796.9z"/>
					<path class="st14" d="M1185.6,796.9h10.9v10.6h-10.9V796.9z"/>
					<path class="st14" d="M1207.7,796.9h10.9v10.6h-10.9V796.9z"/>
					<path class="st14" d="M1229.7,796.9h10.9v10.6h-10.9V796.9z"/>
					<path class="st14" d="M1251.7,796.9h10.9v10.6h-10.9V796.9z"/>
					<path class="st14" d="M1273.7,796.9h10.9v10.6h-10.9V796.9z"/>
					<path class="st14" d="M1295.8,796.9h10.9v10.6h-10.9V796.9z"/>
					<path class="st14" d="M1317.8,796.9h10.9v10.6h-10.9V796.9z"/>
					<path class="st14" d="M1339.8,796.9h10.9v10.6h-10.9V796.9z"/>
					<path class="st14" d="M1361.9,796.9h10.9v10.6h-10.9V796.9z"/>
					<path class="st14" d="M1383.9,796.9h10.9v10.6h-10.9V796.9z"/>
				</g>
				<g class="st30">
					<path class="st14" d="M1163.6,833.3h10.9v10.6h-10.9V833.3z"/>
					<path class="st14" d="M1185.6,833.3h10.9v10.6h-10.9V833.3z"/>
					<path class="st14" d="M1207.7,833.3h10.9v10.6h-10.9V833.3z"/>
					<path class="st14" d="M1229.7,833.3h10.9v10.6h-10.9V833.3z"/>
					<path class="st14" d="M1251.7,833.3h10.9v10.6h-10.9V833.3z"/>
					<path class="st14" d="M1273.7,833.3h10.9v10.6h-10.9V833.3z"/>
					<path class="st14" d="M1295.8,833.3h10.9v10.6h-10.9V833.3z"/>
					<path class="st14" d="M1317.8,833.3h10.9v10.6h-10.9V833.3z"/>
					<path class="st14" d="M1339.8,833.3h10.9v10.6h-10.9V833.3z"/>
					<path class="st14" d="M1361.9,833.3h10.9v10.6h-10.9V833.3z"/>
					<path class="st14" d="M1383.9,833.3h10.9v10.6h-10.9V833.3z"/>
				</g>
			</g>
		</g>
		<g>
			<g class="st30">
				<path class="st2" d="M407.1,827.8V841h-13.6v-13.2H407.1z"/>
				<path class="st2" d="M407.1,854.5v13.2h-13.6v-13.2H407.1z"/>
				<path class="st2" d="M407.1,881.3v13.2h-13.6v-13.2H407.1z"/>
				<path class="st2" d="M407.1,908.1v13.2h-13.6v-13.2H407.1z"/>
				<path class="st2" d="M407.1,934.8V948h-13.6v-13.2H407.1z"/>
				<path class="st2" d="M407.1,961.6v13.2h-13.6v-13.2H407.1z"/>
				<path class="st2" d="M407.1,988.4v13.2h-13.6v-13.2H407.1z"/>
				<path class="st2" d="M407.1,1015.1v13.2h-13.6v-13.2L407.1,1015.1L407.1,1015.1z"/>
				<path class="st2" d="M407.1,1041.9v13.2h-13.6v-13.2H407.1z"/>
				<path class="st2" d="M407.1,1068.7v13.2h-13.6v-13.2H407.1z"/>
				<path class="st2" d="M407.1,1095.4v13.2h-13.6v-13.2H407.1z"/>
				<path class="st2" d="M407.1,1122.2v13.2h-13.6v-13.2H407.1z"/>
				<path class="st2" d="M407.1,1149v13.2h-13.6V1149H407.1z"/>
				<path class="st2" d="M407.1,1175.7v13.2h-13.6v-13.2H407.1z"/>
				<path class="st2" d="M407.1,1202.5v13.2h-13.6v-13.2H407.1z"/>
				<path class="st2" d="M407.1,1229.3v13.2h-13.6v-13.2H407.1z"/>
				<path class="st2" d="M407.1,1256.2v13.2h-13.6v-13.2H407.1z"/>
				<path class="st2" d="M407.1,1282.8v13.2h-13.6v-13.2H407.1z"/>
			</g>
			<g class="st30">
				<path class="st2" d="M365.5,988.4v13.2h-13.6v-13.2H365.5z"/>
				<path class="st2" d="M365.5,1015.1v13.2h-13.6v-13.2L365.5,1015.1L365.5,1015.1z"/>
				<path class="st2" d="M365.5,1041.9v13.2h-13.6v-13.2H365.5z"/>
				<path class="st2" d="M365.5,1068.7v13.2h-13.6v-13.2H365.5z"/>
				<path class="st2" d="M365.5,1095.4v13.2h-13.6v-13.2H365.5z"/>
				<path class="st2" d="M365.5,1122.2v13.2h-13.6v-13.2H365.5z"/>
				<path class="st2" d="M365.5,1149v13.2h-13.6V1149H365.5z"/>
				<path class="st2" d="M365.5,1175.7v13.2h-13.6v-13.2H365.5z"/>
				<path class="st2" d="M365.5,1202.5v13.2h-13.6v-13.2H365.5z"/>
				<path class="st2" d="M365.5,1229.3v13.2h-13.6v-13.2H365.5z"/>
				<path class="st2" d="M365.5,1256.2v13.2h-13.6v-13.2H365.5z"/>
				<path class="st2" d="M365.5,1282.8v13.2h-13.6v-13.2H365.5z"/>
			</g>
			<g class="st30">
				<path class="st2" d="M323,827.8V841h-13.6v-13.2H323z"/>
				<path class="st2" d="M323,854.5v13.2h-13.6v-13.2H323z"/>
				<path class="st2" d="M323,881.3v13.2h-13.6v-13.2H323z"/>
				<path class="st2" d="M323,908.1v13.2h-13.6v-13.2H323z"/>
				<path class="st2" d="M323,934.8V948h-13.6v-13.2H323z"/>
				<path class="st2" d="M323,961.6v13.2h-13.6v-13.2H323z"/>
				<path class="st2" d="M323,988.4v13.2h-13.6v-13.2H323z"/>
				<path class="st2" d="M323,1015.1v13.2h-13.6v-13.2L323,1015.1L323,1015.1z"/>
				<path class="st2" d="M323,1041.9v13.2h-13.6v-13.2H323z"/>
				<path class="st2" d="M323,1068.7v13.2h-13.6v-13.2H323z"/>
				<path class="st2" d="M323,1095.4v13.2h-13.6v-13.2H323z"/>
				<path class="st2" d="M323,1122.2v13.2h-13.6v-13.2H323z"/>
				<path class="st2" d="M323,1149v13.2h-13.6V1149H323z"/>
				<path class="st2" d="M323,1175.7v13.2h-13.6v-13.2H323z"/>
				<path class="st2" d="M323,1202.5v13.2h-13.6v-13.2H323z"/>
				<path class="st2" d="M323,1229.3v13.2h-13.6v-13.2H323z"/>
				<path class="st2" d="M323,1256.2v13.2h-13.6v-13.2H323z"/>
				<path class="st2" d="M323,1282.8v13.2h-13.6v-13.2H323z"/>
			</g>
			<g class="st30">
				<path class="st2" d="M287.2,774.2v13.2h-13.6v-13.2H287.2z"/>
				<path class="st2" d="M287.2,801v13.2h-13.6V801H287.2z"/>
				<path class="st2" d="M287.2,827.8V841h-13.6v-13.2H287.2z"/>
				<path class="st2" d="M287.2,854.5v13.2h-13.6v-13.2H287.2z"/>
				<path class="st2" d="M287.2,881.3v13.2h-13.6v-13.2H287.2z"/>
				<path class="st2" d="M287.2,908.1v13.2h-13.6v-13.2H287.2z"/>
				<path class="st2" d="M287.2,934.8V948h-13.6v-13.2H287.2z"/>
				<path class="st2" d="M287.2,961.6v13.2h-13.6v-13.2H287.2z"/>
				<path class="st2" d="M287.2,988.4v13.2h-13.6v-13.2H287.2z"/>
				<path class="st2" d="M287.2,1015.1v13.2h-13.6v-13.2L287.2,1015.1L287.2,1015.1z"/>
				<path class="st2" d="M287.2,1041.9v13.2h-13.6v-13.2H287.2z"/>
				<path class="st2" d="M287.2,1068.7v13.2h-13.6v-13.2H287.2z"/>
				<path class="st2" d="M287.2,1095.4v13.2h-13.6v-13.2H287.2z"/>
				<path class="st2" d="M287.2,1122.2v13.2h-13.6v-13.2H287.2z"/>
				<path class="st2" d="M287.2,1149v13.2h-13.6V1149H287.2z"/>
				<path class="st2" d="M287.2,1175.7v13.2h-13.6v-13.2H287.2z"/>
				<path class="st2" d="M287.2,1202.5v13.2h-13.6v-13.2H287.2z"/>
				<path class="st2" d="M287.2,1229.3v13.2h-13.6v-13.2H287.2z"/>
				<path class="st2" d="M287.2,1256.2v13.2h-13.6v-13.2H287.2z"/>
				<path class="st2" d="M287.2,1282.8v13.2h-13.6v-13.2H287.2z"/>
			</g>
			<g class="st30">
				<path class="st2" d="M240.1,1015.1v13.2h-13.6v-13.2L240.1,1015.1L240.1,1015.1z"/>
				<path class="st2" d="M240.1,1041.9v13.2h-13.6v-13.2H240.1z"/>
				<path class="st2" d="M240.1,1068.7v13.2h-13.6v-13.2H240.1z"/>
				<path class="st2" d="M240.1,1095.4v13.2h-13.6v-13.2H240.1z"/>
				<path class="st2" d="M240.1,1122.2v13.2h-13.6v-13.2H240.1z"/>
				<path class="st2" d="M240.1,1149v13.2h-13.6V1149H240.1z"/>
				<path class="st2" d="M240.1,1175.7v13.2h-13.6v-13.2H240.1z"/>
				<path class="st2" d="M240.1,1202.5v13.2h-13.6v-13.2H240.1z"/>
				<path class="st2" d="M240.1,1229.3v13.2h-13.6v-13.2H240.1z"/>
				<path class="st2" d="M240.1,1256.2v13.2h-13.6v-13.2H240.1z"/>
				<path class="st2" d="M240.1,1282.8v13.2h-13.6v-13.2H240.1z"/>
			</g>
		</g>
	</g>
</g>
</svg>
