<?xml version="1.0" encoding="utf-8"?>
<!-- Generator: Adobe Illustrator 24.0.2, SVG Export Plug-In . SVG Version: 6.00 Build 0)  -->
<svg version="1.1" xmlns="http://www.w3.org/2000/svg" xmlns:xlink="http://www.w3.org/1999/xlink" x="0px" y="0px"
	 viewBox="0 0 3211.7 1951" style="enable-background:new 0 0 3211.7 1951;" xml:space="preserve">
<style type="text/css">
	.st0{display:none;}
	.st1{display:inline;}
	.st2{fill:#242E6C;}
	.st3{fill:#C0D3F8;}
	.st4{fill:#F24B46;}
	.st5{fill:#F9795A;}
	.st6{fill:#EB3668;}
	.st7{opacity:0.4;fill:#F24B46;enable-background:new    ;}
	.st8{fill:url(#SVGID_1_);}
	.st9{fill:#FD8857;}
	.st10{fill:#1B2251;}
	.st11{fill:#DCE7FB;}
	.st12{fill:#6615B2;}
	.st13{fill:#C643DB;}
	.st14{fill:#EFECEA;}
	.st15{fill:#CDDCF9;}
	.st16{fill:#FF9E9A;}
	.st17{fill:#7F22BA;}
	.st18{fill:#1D2453;}
	.st19{fill:#363F78;}
	.st20{fill:#9E30CA;}
	.st21{fill:#FF7D78;}
	.st22{fill:#222956;}
	.st23{fill:#FFB9B6;}
	.st24{fill:#FF9792;}
	.st25{fill:#FFA9A5;}
	.st26{fill:#B1C9F6;}
	.st27{fill:#313B75;}
	.st28{fill:#FFAEAA;}
	.st29{opacity:0.5;}
	.st30{fill:#98D0DC;}
	.st31{fill:#5E489D;}
	.st32{display:inline;fill:#EABBE6;}
	.st33{display:inline;fill:#98D0DC;}
	.st34{fill:#7E6BC1;}
	.st35{fill:#ABE4ED;}
	.st36{display:inline;fill:#7EC3CE;}
	.st37{fill:#FFFFFF;}
	.st38{display:none;fill:#EF4335;}
	.st39{display:none;fill:#FF7469;}
	.st40{display:inline;fill:#FFFFFF;}
	.st41{opacity:0.6;fill:#EFDDDC;enable-background:new    ;}
	.st42{fill:#7D98D6;}
	.st43{fill:#7EC3CE;}
	.st44{fill:#00184A;}
	.st45{fill:#3A3077;}
	.st46{opacity:0.2;fill:#D9E0ED;enable-background:new    ;}
	.st47{opacity:0.22;fill:#FFFFFF;enable-background:new    ;}
	.st48{fill:#FFB989;}
	.st49{fill:#FF8751;}
	.st50{fill:#FFC9B6;}
	.st51{fill:#291D5B;}
	.st52{fill:#1C0F46;}
	.st53{fill:#2C1D1B;}
	.st54{fill:#3F2A28;}
	.st55{fill:#FFB9A4;}
	.st56{fill:#F28D00;}
	.st57{fill:#FFB65F;}
</style>
<g id="Layer_1">
	<g id="Ñëîé_1" class="st0">
		<g class="st1">
			<g>
				<path class="st2" d="M1322.1,1475.6c0,0-59.4,12.5-56.4,23.4s65.2-18.7,65.2-18.7s45.9,41,52.3,62c0,0-67-9.5-61.4,0.3
					c5.6,9.9,74.9,22.9,74.9,22.9s31.5,48.5,3.9,69.8c-27.7,21.3-48.9,14.1-54,7.2c-5.2-7-25.2-57.2-31.1-53.2s-2.3,42,11.3,58.4
					c0,0-59.8,0.5-68.6-27.9c-8.7-28.3,4.7-43.8-1-61.2c-5.7-17.4-15.3-27.9-16.4-17.5c-1.1,10.3,13.8,37.6,7.9,56
					s-8.5,32.4-24.2,9.3s-31.2-69.9-15.5-87c0.7-0.7,1.3-1.5,1.9-2.1c-1.4,1.2-1.9,2.1-1.9,2.1c-4.7-3.5-20.5-5.1-32.5-5.9
					c-2,0-4.8-0.1-8.7-0.4l0,0c-1.7-0.1-3.1-0.1-4.1-0.1c-26,0.3-62.6,21-62.6,21l-3.7-4.8c33.9-28.1,74.5-20.3,74.5-20.3
					c30.9,3.1,52.8-6.7,52.8-6.7s7.1-60,53.5-52.6C1278,1449.8,1308.2,1458.5,1322.1,1475.6z"/>
				<path class="st2" d="M538.3,970.4c15.8-58.5,114.5-40.2,114.5-40.2s67,102.4,86.4,104.9S699,936.4,699,936.4
					c37.8-3.7,134,42.6,134,42.6s-6.1,119.4,13.4,116.9s0-106,0-106c36.6,10.9,70.6,53.6,70.6,53.6c42.6,69.4-48.8,120.6-48.8,120.6
					s-1.2,41.4,24.3,88.9l0,0c0,0,5.8,8.8,11.7,23.7h-9.9c-0.8-2.7-1.7-5.3-2.7-7.7c0,0,0,0,0-0.1s0-0.1-0.1-0.1
					c-0.7-1.5-1.7-3.7-2.9-6.4l0,0l0,0c-3.1-5.9-5.1-10.3-6.4-13.5l0,0c-9.1-18.7-22.3-43.1-31-48.2c0,0,1.1-1.5,2.1-4.6
					c-0.7,1.5-1.4,3-2.1,4.6c-17.1,36.6-102.3,42.6-149.9,32.9c-47.5-9.7-26.8-23.1-1.2-44.9s79.2-16,95-24.5s-7.3-17.1-39-14.6
					s-47.5,34.1-98.6,39s-90.2-91.4-90.2-91.4c35.4,10.9,98.6-8.5,101.1-20.7s-91.4-10.9-106-14.6
					C548,1058.2,522.4,1028.9,538.3,970.4z"/>
				<path class="st2" d="M1484.3,974.8c-21.8-34.9-82.4-3.6-82.4-3.6s-23.4,79.8-35.6,85.2s6.7-72.1,6.7-72.1
					c-25.3,5.1-78.8,54.1-78.8,54.1s27.5,76.4,14.3,78.7c-13.1,2.3-20.9-69-20.9-69c-21.6,14.3-35.4,48.8-35.4,48.8
					c-14.1,53.6,55.4,68.8,55.4,68.8s8.9,26.7,1.7,62.6l0,0c0,0-2,6.9-2.9,17.7l6.5-1.9c0-1.9,0.1-3.7,0.3-5.5l0,0v-0.1
					c0.1-1.1,0.3-2.7,0.6-4.7l0,0l0,0c0.8-4.5,1.3-7.7,1.5-10.1l0,0c2.3-13.9,6-32.4,10.7-37.5c0,0-1-0.8-2.3-2.5
					c0.7,0.8,1.5,1.7,2.3,2.5c18.3,20.4,75,7.6,103.9-8.1c29-15.7,12.9-20.3-8.1-29.4c-20.9-9.1-54.6,5.2-66.6,2.7
					c-12-2.4,1.4-12.5,22.5-17.2s37.6,12.8,71.8,5.9c34.2-6.9,40.6-77.2,40.6-77.2c-20.8,14.1-65.8,13.9-69.8,6.5
					c-4-7.5,57.3-25.1,66-30.3C1495.3,1033.7,1506.1,1009.7,1484.3,974.8z"/>
				<path class="st2" d="M972,970.6c15.3-25.4,59.3-3.7,59.3-3.7s17.9,57.2,26.7,60.9c8.9,3.7-5.7-51.8-5.7-51.8
					c18.3,3.3,57.4,38,57.4,38s-18.8,55.4-9.3,56.9s14.1-49.9,14.1-49.9c15.7,10.1,26.1,34.7,26.1,34.7
					c10.8,38.4-39.1,50.3-39.1,50.3s-6.1,19.3-0.4,45.2l0,0c0,0,1.5,4.9,2.3,12.7l-4.7-1.3c0-1.3-0.1-2.7-0.3-4l0,0v-0.1
					c-0.1-0.8-0.3-2-0.5-3.4l0,0l0,0c-0.7-3.2-1-5.5-1.2-7.2l0,0c-1.8-10-4.7-23.3-8.2-26.8c0,0,0.7-0.6,1.6-1.9
					c-0.5,0.6-1.1,1.2-1.6,1.9c-12.9,14.9-53.9,6.4-75-4.5s-9.5-14.5,5.4-21.3s39.4,3,48,1.1s-1.1-9-16.4-12.1s-26.9,9.7-51.7,5.2
					c-24.7-4.5-30.3-55.1-30.3-55.1c15.2,9.9,47.6,9.1,50.4,3.7s-41.6-17.3-48-21C964.9,1013.2,956.8,996,972,970.6z"/>
				<path class="st3" d="M1715.5,1642.8c0.5,0.1,1.1,0.3,1.9,0.4C1716.8,1643,1716.2,1642.9,1715.5,1642.8z"/>
				<g>
					<g>
						<path class="st4" d="M1093,1290.2l29.9,356.3c0,0,3.1,21.6-12.9,21.6c-26.4,0.1-131.5,0-131.5,0s19.9-4.5,19.6-14.6
							c-0.3-11.9-35-366.6-35-366.6L1093,1290.2z"/>
						<path class="st5" d="M970.1,1661.6c5.2,0,105.5,0.3,131.3,0c11.2-0.1,13.2-9.9,13.3-16.3c0.1-3.1-0.3-5.3-0.3-5.3l-0.8-9.3
							l-2-23.6l-1.7-20.9l-2.3-26.8l-1.9-22.6l-21.3-253.2l-129.8-3.4c0,0,14.6,148.5,25,256.5c1.1,12.1,2.3,23.6,3.3,34.3
							c0.3,3.5,0.7,6.8,0.9,10.1c0.9,10.2,1.9,19.6,2.6,27.9c0.4,4.4,0.8,8.4,1.1,12.1c1.3,14.5,2.1,23.9,2.1,25.7
							c0,1-0.1,2-0.3,2.9C987.1,1661.2,972,1661.6,970.1,1661.6z"/>
						<polygon class="st5" points="1408.3,1096.3 1335.3,1389.4 1325.3,1429.6 1291.3,1566.2 659.7,1566.2 785.1,1096.3 						"/>
						<polygon class="st5" points="1408.3,1096.3 1418.4,1099.7 1304.8,1576.4 1291.3,1566.2 						"/>
						<polygon class="st4" points="1304.8,1576.4 677.1,1576.4 659.7,1566.2 1291.3,1566.2 						"/>
						<rect x="948.4" y="1661.8" class="st5" width="135.9" height="6.5"/>
						<polygon class="st6" points="690.4,1479.6 792.8,1102.5 1406.7,1102.5 1408.3,1096.3 785.1,1096.3 683,1478.7 						"/>
						<polygon class="st4" points="983,1576.4 983.7,1581.3 1111.5,1607.1 1109.8,1586.3 1108.9,1576.4 						"/>
						<path class="st7" d="M970.1,1661.6c5.2,0,105.5,0.3,131.3,0c11.2-0.1,13.2-9.9,13.3-16.3l-127.2-23.9
							c1.3,14.5,2.1,23.9,2.1,25.7c0,1-0.1,2-0.3,2.9C987.1,1661.2,972,1661.6,970.1,1661.6z"/>
						<polygon class="st4" points="1013.9,1471.1 1291.3,1566.2 1325.3,1429.6 						"/>
						
							<linearGradient id="SVGID_1_" gradientUnits="userSpaceOnUse" x1="15163.1807" y1="3372.176" x2="15887.4805" y2="3372.176" gradientTransform="matrix(-1 0 0 -1 16571.4805 4657.2759)">
							<stop  offset="0" style="stop-color:#F9795A"/>
							<stop  offset="1" style="stop-color:#EB3668"/>
						</linearGradient>
						<polygon class="st8" points="1408.3,1096.3 785.1,1096.3 684,1473.9 1314.3,1473.9 						"/>
					</g>
					<path class="st4" d="M958.8,1521.6c1.8-9.3,10.7-16.7,20-16.7s15.3,7.5,13.5,16.7c-1.8,9.3-10.7,16.7-20,16.7
						C963,1538.4,957,1530.9,958.8,1521.6z"/>
					<polygon class="st9" points="713.4,1457.5 1296.8,1457.5 1362.9,1194.3 1368,1174.1 1372.3,1156.9 1382.5,1116.5 807.3,1116.5 
						796.2,1156.9 791.5,1174.1 785.9,1194.3 					"/>
					<polygon class="st10" points="796.2,1156.9 1372.3,1156.9 1382.5,1116.5 807.3,1116.5 					"/>
					<g>
						<path class="st11" d="M1358.7,1134.8c0.7-2.8-1-5.1-3.8-5.1s-5.6,2.3-6.3,5.1c-0.7,2.8,1,5.1,3.8,5.1
							C1355.1,1139.8,1357.9,1137.6,1358.7,1134.8z"/>
						<path class="st11" d="M1341.9,1134.8c0.7-2.8-1-5.1-3.8-5.1s-5.6,2.3-6.3,5.1c-0.7,2.8,1,5.1,3.8,5.1
							C1338.4,1139.8,1341.2,1137.6,1341.9,1134.8z"/>
						<path class="st11" d="M1323.9,1134.8c0.7-2.8-1-5.1-3.8-5.1s-5.6,2.3-6.3,5.1c-0.7,2.8,1,5.1,3.8,5.1
							S1323.1,1137.6,1323.9,1134.8z"/>
					</g>
					<polygon class="st2" points="841.9,1434.2 1274.1,1434.2 1339.9,1176.1 913.7,1176.1 					"/>
					<polygon class="st12" points="786,1236.2 883.9,1236.2 901.9,1176.1 802.7,1176.1 					"/>
					<polygon class="st4" points="1050.3,1201.2 1106.4,1201.2 1108.6,1192.5 1052.6,1192.5 					"/>
					<polygon class="st5" points="950.9,1201.2 1042.6,1201.2 1044.9,1192.5 953.2,1192.5 					"/>
					<polygon class="st5" points="1040.9,1224.5 1140.2,1224.5 1142.6,1215.9 1043.2,1215.9 					"/>
					<polygon class="st6" points="980.4,1224.5 1031.9,1224.5 1034.2,1215.9 982.7,1215.9 					"/>
					<polygon class="st13" points="1033.4,1264.6 1089.4,1264.6 1091.7,1256 1035.7,1256 					"/>
					<polygon class="st5" points="934,1264.6 1025.7,1264.6 1028,1256 936.3,1256 					"/>
					<polygon class="st14" points="1023.9,1287.9 1123.4,1287.9 1125.6,1279.2 1026.3,1279.2 					"/>
					<polygon class="st14" points="963.5,1287.9 1015,1287.9 1017.3,1279.2 965.8,1279.2 					"/>
					<polygon class="st4" points="1084.1,1323.9 1273.8,1323.9 1276,1315.3 1086.4,1315.3 					"/>
					<polygon class="st13" points="1016,1323.9 1072,1323.9 1074.3,1315.3 1018.2,1315.3 					"/>
					<polygon class="st5" points="916.6,1323.9 1008.2,1323.9 1010.6,1315.3 918.9,1315.3 					"/>
					<polygon class="st14" points="1211.5,1347.2 1267.6,1347.2 1269.8,1338.5 1213.8,1338.5 					"/>
					<polygon class="st6" points="1006.5,1347.2 1106,1347.2 1108.2,1338.5 1008.8,1338.5 					"/>
					<polygon class="st5" points="1112.1,1347.2 1203.8,1347.2 1206.1,1338.5 1114.4,1338.5 					"/>
					<polygon class="st5" points="946.1,1347.2 997.6,1347.2 999.9,1338.5 948.3,1338.5 					"/>
					<polygon class="st4" points="1062.6,1388.2 1252.2,1388.2 1254.6,1379.6 1064.9,1379.6 					"/>
					<polygon class="st13" points="994.4,1388.2 1050.5,1388.2 1052.8,1379.6 996.7,1379.6 					"/>
					<polygon class="st14" points="1190,1411.4 1246,1411.4 1248.4,1402.8 1192.3,1402.8 					"/>
					<polygon class="st6" points="985,1411.4 1084.4,1411.4 1086.7,1402.8 987.3,1402.8 					"/>
					<polygon class="st5" points="1090.6,1411.4 1182.3,1411.4 1184.6,1402.8 1092.9,1402.8 					"/>
					<polygon class="st5" points="924.5,1411.4 976.1,1411.4 978.4,1402.8 926.9,1402.8 					"/>
					<g>
						<polygon class="st14" points="834.8,1254.7 877.8,1254.8 878.8,1251 835.7,1250.8 						"/>
						<polygon class="st14" points="812,1254.6 828.2,1254.7 829.2,1250.8 812.9,1250.7 						"/>
						<polygon class="st14" points="779.1,1254.6 807.8,1254.6 808.7,1250.7 780.1,1250.6 						"/>
						<polygon class="st14" points="851.8,1264.7 875.4,1264.8 876.4,1260.8 852.8,1260.8 						"/>
						<polygon class="st14" points="817.4,1264.6 847.9,1264.6 848.8,1260.8 818.3,1260.6 						"/>
						<polygon class="st14" points="776.7,1264.4 811.7,1264.6 812.7,1260.6 777.7,1260.5 						"/>
					</g>
					<g>
						<polygon class="st14" points="829.6,1275.8 872.7,1276 873.6,1272.1 830.6,1272 						"/>
						<polygon class="st14" points="806.9,1275.8 823.1,1275.8 824,1271.9 807.8,1271.9 						"/>
						<polygon class="st14" points="774,1275.7 802.7,1275.8 803.6,1271.8 774.9,1271.8 						"/>
						<polygon class="st14" points="846.6,1285.8 870.3,1285.9 871.2,1282 847.6,1281.9 						"/>
						<polygon class="st14" points="812.2,1285.7 842.7,1285.8 843.7,1281.9 813.1,1281.8 						"/>
						<polygon class="st14" points="771.6,1285.6 806.5,1285.7 807.5,1281.8 772.5,1281.7 						"/>
					</g>
					<g>
						<polygon class="st14" points="863.4,1184.4 889.4,1184.5 889.9,1182.1 864,1182.1 						"/>
						<polygon class="st14" points="849.7,1184.4 859.5,1184.4 860,1182.1 850.3,1182 						"/>
						<polygon class="st14" points="830,1184.3 847.2,1184.3 847.8,1182 830.5,1181.9 						"/>
						<polygon class="st14" points="873.7,1190.4 887.9,1190.5 888.5,1188.1 874.2,1188.1 						"/>
						<polygon class="st14" points="852.9,1190.3 871.3,1190.4 871.9,1188.1 853.5,1188 						"/>
						<polygon class="st14" points="828.5,1190.3 849.6,1190.3 850.1,1188 829,1187.9 						"/>
					</g>
					<g>
						<polygon class="st14" points="860.3,1197.1 886.2,1197.2 886.9,1194.9 860.9,1194.8 						"/>
						<polygon class="st14" points="846.6,1197.1 856.4,1197.1 857,1194.8 847.2,1194.7 						"/>
						<polygon class="st14" points="826.8,1197.1 844.1,1197.1 844.6,1194.7 827.4,1194.7 						"/>
						<polygon class="st14" points="870.6,1203.1 884.8,1203.2 885.4,1200.8 871.2,1200.8 						"/>
						<polygon class="st14" points="849.8,1203.1 868.2,1203.1 868.8,1200.8 850.4,1200.7 						"/>
						<polygon class="st14" points="825.4,1203 846.4,1203.1 847,1200.7 826,1200.7 						"/>
					</g>
					<g>
						<polygon class="st14" points="820.8,1312 863.9,1312.1 864.8,1308.3 821.8,1308.1 						"/>
						<polygon class="st14" points="798.1,1311.9 814.3,1312 815.2,1308.1 799,1308 						"/>
						<polygon class="st14" points="765.2,1311.9 793.9,1311.9 794.8,1308 766.1,1307.9 						"/>
						<polygon class="st14" points="837.8,1322 861.5,1322.1 862.4,1318.1 838.8,1318.1 						"/>
						<polygon class="st14" points="803.4,1321.9 833.9,1321.9 834.9,1318.1 804.3,1317.9 						"/>
						<polygon class="st14" points="762.8,1321.7 797.7,1321.9 798.7,1317.9 763.7,1317.8 						"/>
					</g>
					<g>
						<polygon class="st14" points="812.1,1347.4 855.2,1347.5 856.2,1343.7 813.1,1343.5 						"/>
						<polygon class="st14" points="789.4,1347.3 805.6,1347.4 806.6,1343.5 790.3,1343.5 						"/>
						<polygon class="st14" points="756.6,1347.3 785.2,1347.3 786.1,1343.4 757.5,1343.3 						"/>
						<polygon class="st14" points="829.2,1357.4 852.8,1357.5 853.8,1353.5 830.2,1353.5 						"/>
						<polygon class="st14" points="794.7,1357.3 825.3,1357.4 826.2,1353.5 795.7,1353.3 						"/>
						<polygon class="st14" points="754.1,1357.2 789.1,1357.3 790.1,1353.3 755.1,1353.2 						"/>
					</g>
					<g>
						<polygon class="st14" points="804.3,1379.4 847.5,1379.5 848.4,1375.6 805.3,1375.4 						"/>
						<polygon class="st14" points="781.7,1379.3 797.9,1379.3 798.8,1375.4 782.6,1375.4 						"/>
						<polygon class="st14" points="748.8,1379.2 777.4,1379.3 778.4,1375.4 749.7,1375.3 						"/>
						<polygon class="st14" points="821.4,1389.3 845.1,1389.4 846,1385.5 822.4,1385.4 						"/>
						<polygon class="st14" points="787,1389.2 817.5,1389.3 818.5,1385.4 787.9,1385.3 						"/>
						<polygon class="st14" points="746.4,1389.1 781.3,1389.2 782.3,1385.3 747.3,1385.2 						"/>
					</g>
					<g>
						<g>
							<g>
								<path class="st2" d="M775.2,1414.2c2-6.9,9.3-12.5,16.2-12.5s10.9,5.6,8.9,12.5s-9.3,12.5-16.2,12.5
									S773.1,1421.2,775.2,1414.2z M777.5,1414.2c-1.7,5.7,1.6,10.3,7.3,10.3s11.6-4.6,13.3-10.3c1.7-5.7-1.6-10.3-7.3-10.3
									C785.1,1404,779.1,1408.6,777.5,1414.2z"/>
							</g>
							<g>
								<path class="st2" d="M786.1,1420.6c0.5-0.1,1-0.3,1.4-0.6l7.1-5.7c0.9-0.7,1.3-2,0.7-2.7c-0.5-0.7-1.7-0.7-2.7,0.1l-5,4
									l-2.5-5.9c-0.4-0.9-1.5-1.1-2.5-0.4c-1.1,0.6-1.6,1.8-1.2,2.7l3.3,7.7c0.2,0.5,0.7,0.7,1.2,0.8
									C785.9,1420.6,786,1420.6,786.1,1420.6z"/>
							</g>
						</g>
						<g>
							<g>
								<path class="st6" d="M740.4,1414.2c2-6.9,9.3-12.5,16.2-12.5s10.9,5.6,8.9,12.5s-9.3,12.5-16.2,12.5
									S738.4,1421.2,740.4,1414.2z M742.8,1414.2c-1.7,5.7,1.6,10.3,7.3,10.3s11.6-4.6,13.3-10.3c1.7-5.7-1.6-10.3-7.3-10.3
									C750.4,1404,744.4,1408.6,742.8,1414.2z"/>
							</g>
							<g>
								<path class="st6" d="M752.5,1416.3L752.5,1416.3c1,0,2-0.8,2.3-1.8l1.5-5.3c0.3-1-0.3-1.8-1.3-1.8l0,0c-1,0-2,0.8-2.3,1.8
									l-1.5,5.3C750.9,1415.5,751.5,1416.3,752.5,1416.3z"/>
								<path class="st6" d="M751.1,1420.5h0.4c0.9,0,1.8-0.7,2.1-1.6l0,0c0.3-0.9-0.3-1.6-1.1-1.6H752c-0.9,0-1.8,0.7-2.1,1.6l0,0
									C749.7,1419.8,750.2,1420.5,751.1,1420.5z"/>
							</g>
						</g>
					</g>
					<g>
						<g>
							<g>
								<path class="st15" d="M817.8,1223.5c1.1-3.8,5.1-6.9,8.9-6.9c3.8,0,6,3.1,4.9,6.9s-5.1,6.9-8.9,6.9
									S816.7,1227.3,817.8,1223.5z M819.1,1223.5c-0.9,3.1,0.9,5.6,4,5.6s6.3-2.5,7.3-5.6c0.9-3.1-0.9-5.6-4-5.6
									C823.3,1217.8,820,1220.4,819.1,1223.5z"/>
							</g>
							<g>
								<path class="st15" d="M823.8,1227c0.3,0,0.5-0.1,0.8-0.3l3.9-3.1c0.5-0.4,0.7-1.1,0.4-1.5s-1-0.4-1.5,0l-2.7,2.2l-1.4-3.3
									c-0.2-0.5-0.8-0.6-1.4-0.3c-0.6,0.3-0.9,1-0.7,1.5l1.9,4.3C823.2,1226.8,823.4,1226.9,823.8,1227L823.8,1227z"/>
							</g>
						</g>
						<g>
							<g>
								<path class="st15" d="M837.6,1223.5c1.1-3.8,5.1-6.9,8.9-6.9c3.8,0,6,3.1,4.9,6.9s-5.1,6.9-8.9,6.9
									C838.6,1230.4,836.4,1227.3,837.6,1223.5z M838.8,1223.5c-0.9,3.1,0.9,5.6,4,5.6s6.3-2.5,7.3-5.6c0.9-3.1-0.9-5.6-4-5.6
									C843,1217.8,839.7,1220.4,838.8,1223.5z"/>
							</g>
							<g>
								<path class="st15" d="M843.6,1227c0.3,0,0.5-0.1,0.8-0.3l3.9-3.1c0.5-0.4,0.7-1.1,0.4-1.5s-1-0.4-1.5,0l-2.7,2.2l-1.4-3.3
									c-0.2-0.5-0.8-0.6-1.4-0.3c-0.6,0.3-0.9,1-0.7,1.5l1.9,4.3C843,1226.8,843.2,1226.9,843.6,1227
									C843.4,1227,843.5,1227,843.6,1227z"/>
							</g>
						</g>
						<g>
							<g>
								<path class="st15" d="M858,1223.5c1.1-3.8,5.1-6.9,8.9-6.9c3.8,0,6,3.1,4.9,6.9s-5.1,6.9-8.9,6.9
									C859,1230.4,856.8,1227.3,858,1223.5z M859.2,1223.5c-0.9,3.1,0.9,5.6,4,5.6s6.3-2.5,7.3-5.6c0.9-3.1-0.9-5.6-4-5.6
									C863.4,1217.8,860.1,1220.4,859.2,1223.5z"/>
							</g>
							<g>
								<path class="st15" d="M864,1227c0.3,0,0.5-0.1,0.8-0.3l3.9-3.1c0.5-0.4,0.7-1.1,0.4-1.5s-1-0.4-1.5,0l-2.7,2.2l-1.4-3.3
									c-0.2-0.5-0.8-0.6-1.4-0.3c-0.6,0.3-0.9,1-0.7,1.5l1.9,4.3C863.4,1226.8,863.6,1226.9,864,1227
									C863.8,1227,863.9,1227,864,1227z"/>
							</g>
						</g>
						<g>
							<g>
								<path class="st6" d="M798.8,1223.5c1.1-3.8,5.1-6.9,8.9-6.9s6,3.1,4.9,6.9s-5.1,6.9-8.9,6.9
									C799.9,1230.4,797.7,1227.3,798.8,1223.5z M800.1,1223.5c-0.9,3.1,0.9,5.6,4,5.6s6.3-2.5,7.3-5.6c0.9-3.1-0.9-5.6-4-5.6
									C804.3,1217.8,801,1220.4,800.1,1223.5z"/>
							</g>
							<g>
								<path class="st6" d="M805.3,1224.6L805.3,1224.6c0.5,0,1.1-0.5,1.3-1l0.9-2.9c0.1-0.5-0.1-1-0.7-1l0,0c-0.5,0-1.1,0.5-1.3,1
									l-0.9,2.9C804.5,1224.2,804.8,1224.6,805.3,1224.6z"/>
								<path class="st6" d="M804.6,1226.9h0.2c0.5,0,1-0.4,1.1-0.9l0,0c0.1-0.5-0.1-0.9-0.6-0.9h-0.2c-0.5,0-1,0.4-1.1,0.9l0,0
									C803.9,1226.5,804.1,1226.9,804.6,1226.9z"/>
							</g>
						</g>
					</g>
				</g>
				<g>
					<g>
						<path class="st16" d="M1467.2,1421.2c0,0-10.4,2.7-17,0.7s-17.9,1.3-19.8,3.7c-1.8,2.4-1.1,3.3,2.1,4.2
							c3.3,0.8,14.8,5.7,22.4,2.9c7.6-2.9,17.5-2.9,17.5-2.9L1467.2,1421.2z"/>
						<path class="st17" d="M1556.9,1331c0,0-11.7,82.9-31,90.3c-9.5,3.7-51.6,11.9-64.1,12.8c0,0-3.1-2.5-2.3-12.5
							c0,0,44.2-16.2,50.4-25c9.3-13.1-5.8-53.6,5.9-65.9C1527.6,1318.3,1547.2,1313.1,1556.9,1331z"/>
					</g>
					<path class="st9" d="M1549.8,1659.7h-4.9c-3.1,0-5.6-2.5-5.6-5.6v-129.9c0-3.1,2.5-5.6,5.6-5.6h4.9c3.1,0,5.6,2.5,5.6,5.6
						v129.9C1555.4,1657.2,1552.9,1659.7,1549.8,1659.7z"/>
					<path class="st9" d="M1597.1,1669c-5.2-10.8-25.5-18.9-49.8-18.9s-44.6,8.1-49.8,18.9H1597.1z"/>
					<path class="st9" d="M1583.8,1632.3H1511c-0.8,0-1.5-0.7-1.5-1.5v-2.7c0-0.8,0.7-1.5,1.5-1.5h72.8c0.8,0,1.5,0.7,1.5,1.5v2.7
						C1585.3,1631.7,1584.7,1632.3,1583.8,1632.3z"/>
					<path class="st18" d="M1553,1505.6c-3.4,5.8-7.3,11.2-11.4,16.3c-12.5,15.8-26.2,28.9-28.5,41.2c-0.5,2.5-1.2,5.1-2.2,7.9
						s-2.2,5.8-3.7,8.9c-5.3,11.5-13.3,24.5-21.2,36.3c-13.7,20.3-26.7,37.4-26.7,37.4l-23.7-1c0.9-2.4,11.3-30.5,25.1-64.8
						c5.6-13.9,11.6-28.7,17.3-43.1c0.7-1.9,1.5-3.8,2.3-5.7c1.7-4.4,3.5-8.7,5.2-12.9c13-32.2,23.3-57.9,23.3-57.9
						s51.8-19.7,57.2-6.9C1570.5,1471.7,1566.9,1482,1553,1505.6z"/>
					<path class="st18" d="M1458.6,1649.2c0,0-1.2,19.5-5,19.8c-0.5,0.1-19.2,0.1-19.2,0.1l-23.8-0.1c0,0,0.1-5.7,7.1-6.9
						c6.9-1.2,18.6-6.1,22.9-15.3C1445,1637,1458.6,1649.2,1458.6,1649.2z"/>
					<path class="st18" d="M1513.4,1593.4c0,0,16.5,10.6,14.9,14c-0.2,0.5-9.3,16.7-9.3,16.7l-11.7,20.7c0,0-4.9-2.9-2.6-9.6
						s3.7-19.3-2.3-27.4C1496.1,1599.3,1513.4,1593.4,1513.4,1593.4z"/>
					<path class="st19" d="M1490.2,1459.5c0,0-64.2,40-71.4,67.2c-7.3,27.3,86.6,85.4,86.6,85.4s10.3-9.1,12.1-15.7
						c0,0-42.4-50.8-51.6-62.2c-5.7-7,83.6-24.2,94.4-41.2s7-31.2,7-31.2L1490.2,1459.5z"/>
					<path class="st4" d="M1613.7,1547.2h-132.5c-2.9,0-5.2-2.3-5.2-5.2v-25.9c0-2.9,2.3-5.2,5.2-5.2h132.5c2.9,0,5.2,2.3,5.2,5.2
						v25.9C1618.8,1544.9,1616.5,1547.2,1613.7,1547.2z"/>
					<path class="st16" d="M1521.2,1316.7c-6.4,3.9-9.9,9-9.9,9c15.6,4,41.4-10.4,41.4-10.4s-10-6.7-13.7-21.5
						c-0.2-0.7-0.3-1.5-0.5-2.3c-0.5-2.5-0.8-5.2-0.9-8.1l-7.1,6.4l-11.9,10.7c0,0,0.3,4.4,1.7,12.1
						C1520.6,1313.8,1520.9,1315.3,1521.2,1316.7z"/>
					<path class="st20" d="M1569.2,1390.4c-2.2,30,0.7,75.7-1.8,83.6c-2.2,6.8-27.1,2.8-37,0.5c-3.7-0.9-8.1-2.1-12.7-3.5
						c-12.9-4-26.8-9.7-28.3-13.9c-0.1-0.1-0.1-0.3-0.1-0.5c-0.1-0.6-0.1-1.2,0-1.7c0.5-2.1,2.4-4.5,2.7-9.8
						c0.3-5.9,0.2-12.9,0.5-20.5c0-0.9,0-1.8,0.1-2.6v-0.3c0-0.1,0-0.3,0-0.5c0.2-8.4,0.7-17.2,1.1-25.9c0.3-5.5,0.7-10.9,1.1-16.1
						c1.1-13.5,2.6-25.4,4.6-33c3.3-12.3,10.5-20.4,17-26.3l4.7-4.1c5.3,1.1,11.5,0.4,17.2-2.3c6.1-2.9,8.2-5,9.3-4.2
						C1561.8,1320.2,1571.9,1353.7,1569.2,1390.4z"/>
					<path class="st17" d="M1517.6,1471.1c-12.9-4-26.8-9.7-28.3-13.9c-0.1-0.1-0.1-0.3-0.1-0.5c0-0.6,0-1.2,0-1.7
						c0.5-2.1,2.4-4.5,2.7-9.8c0.3-5.9,0.2-12.9,0.5-20.5c0-0.9,0-1.8,0.1-2.6v-0.3c0-0.1,0-0.3,0-0.5l48.5-22
						C1541,1399.2,1543.8,1438.3,1517.6,1471.1z"/>
					<path class="st21" d="M1518.6,1300.5c0,0,0.3,4.4,1.7,12.1c11.6-3.7,16.9-14.3,18.7-18.7c0.5-1.3,0.7-2.1,0.7-2.1
						s-0.5-0.1-1.2-0.3c-1.7-0.3-4.7-1-8-1.7L1518.6,1300.5z"/>
					<path class="st16" d="M1513.9,1300.3c0,0,25.5,2.9,27.1-13.1c1.5-15.9,5.9-26.3-10.3-28.8c-16.3-2.5-20,3.3-21.8,8.5
						C1506.9,1272.1,1507.3,1299.2,1513.9,1300.3z"/>
					<path class="st18" d="M1540.8,1288.4c0,0-1.6-21.1-24.9-23.3c-15.9-1.5-7.1-15.2-5.3-17.4c0,0,12.2,1.7,24.7,3.7
						C1561.6,1255.7,1543.4,1285,1540.8,1288.4z"/>
					<g>
						
							<rect x="1405.4" y="1382.2" transform="matrix(0.9511 -0.3089 0.3089 0.9511 -367.6881 503.5863)" class="st2" width="2.3" height="61.6"/>
						
							<rect x="1414.9" y="1438.1" transform="matrix(0.9998 -2.134685e-02 2.134685e-02 0.9998 -30.4116 31.2222)" class="st2" width="64.6" height="3.9"/>
					</g>
					<g>
						<path class="st16" d="M1472.5,1433.9c0,0-10,3.8-16.8,2.5s-17.7,3.3-19.3,5.9c-1.5,2.6-0.8,3.5,2.5,3.9
							c3.3,0.5,15.4,4.1,22.6,0.4c7.3-3.7,17.1-4.9,17.1-4.9L1472.5,1433.9z"/>
						<path class="st20" d="M1551.8,1334.4c0,0-2.5,83.7-20.8,93.2c-9.1,4.7-50,17.6-62.3,19.8c0,0-3.3-2.1-3.7-12.2
							c0,0,42.1-20.9,47.4-30.4c7.8-14.1-11.7-52.6-1.4-66.2C1521.2,1325.1,1540.2,1317.6,1551.8,1334.4z"/>
					</g>
				</g>
				<g>
					<path class="st22" d="M853.5,1666.4c0,0-0.9-7.3-3.1-11.7c-2.2-4.3-16-1.6-16-1.6s-2.7,2.4-3.3,13.4L853.5,1666.4z"/>
					<path class="st22" d="M900.6,1666.3c-3.3-2-1.4-16.8-1.4-16.8s15.1-12.1,17.2-2.9c2.1,9.3,14.4,13.4,21.4,14.6
						c4.8,0.8,6.3,3.5,6.8,5.1L900.6,1666.3L900.6,1666.3z"/>
					<path class="st2" d="M869.2,1558.7c0.6,3.4,1,6.2,1.1,8.2c1.4,27.5,23.1,90.2,27,91.7c6,2.3,15.5-2.5,20.4-4.1
						c2.1-0.7,3.4-2.7,3-4.8c-10.7-49.4-14.7-120.6-16.1-162.7c-0.7-21.2-4.3-35.9-4.3-35.9s-53-14.1-53.2,3.7
						C846.7,1470.6,864.5,1532.6,869.2,1558.7z"/>
					<path class="st10" d="M869.2,1558.7l35.4-71.8c-0.7-21.2-4.3-35.9-4.3-35.9s-53-14.1-53.2,3.7
						C846.7,1470.6,864.5,1532.6,869.2,1558.7z"/>
					<path class="st2" d="M881,1454.9l-28,202.8c0,0-12.3,2.9-21.9,0.6c0,0-8.2-107.9-7.5-133.9c0.7-26.1-5.9-69.8,1.5-74.6
						C832.6,1444.9,881,1454.9,881,1454.9z"/>
					<path class="st13" d="M823.2,1402.8l-3.5,48.7c-0.1,1.8,1.1,3.5,2.8,4c3.9,1.1,8.4,1.9,17.1,3.7c8.1,1.7,19.1,3.2,32.6,3.3
						c21.4,0.1,29.5-7.3,29.5-7.3c0.9,0-0.5-4.5-1.7-25.8c-0.4-7.2-0.9-16.4-1.1-27.9c-0.3-10.4-0.5-22.8-0.5-37.5
						c0-17.7-27.3-36.7-27.9-36.7l0,0c0,2.5-4,7.2-10.2,7.7c-7.3,0.5-16.3-3.1-16.3-7.4c0-0.1-13.3,21.2-17.9,43.8
						c-0.6,2.9-1.1,5.9-1.4,9.1c0,0.1,0,0.1,0,0.1c-0.1,0.6-0.1,1.1-0.2,1.7c0,0.1,0,0.2,0,0.3c-0.1,0.5-0.1,1.1-0.1,1.6
						c0,0.1,0,0.3-0.1,0.5c-0.1,0.5-0.1,1-0.1,1.5c0,0.1,0,0.1,0,0.1c0,0.4-0.1,0.7-0.1,1.1c0,0.3-0.1,0.5-0.1,0.8
						c0,0.5-0.1,0.9-0.1,1.3c0,0.2,0,0.5-0.1,0.7c0,0.4-0.1,0.9-0.1,1.3c0,0.2,0,0.4-0.1,0.6c-0.1,0.6-0.1,1.3-0.1,1.9
						c0,0.1,0,0.1,0,0.1c0,0.6-0.1,1.2-0.1,1.8c0,0.1,0,0.3,0,0.5c0,0.6-0.1,1.1-0.1,1.7c0,0.1,0,0.2,0,0.3
						C823.3,1399.9,823.3,1401.3,823.2,1402.8C823.2,1402.9,823.2,1402.9,823.2,1402.8L823.2,1402.8z"/>
					<path class="st13" d="M870.5,1327.3c0,0,25.4-0.2,31.5,8.3c6.1,8.6,19.5,54.8,12.5,70.1c-7,15.3-20.1-6.3-27.3-15.7
						C879.9,1380.6,870.5,1327.3,870.5,1327.3z"/>
					<path class="st23" d="M870.8,1323.5v2.6c0,0,0.7,8.2-9.4,9.4c-10.1,1.2-17.8-3.2-17.5-9.5c0.9-4.9,1.9-8.3,2-12.3
						c0-1.5-0.1-3.1-0.3-4.9l19.6-0.4l5.8,0.9L870.8,1323.5z"/>
					<path class="st24" d="M870.8,1309.3l-0.1,14.2c-2.1,1-4.4,1.5-7.1,1.5c-9,0-14.8-6.6-17.9-11.4c0-1.5-0.1-3.1-0.3-4.9l19.6-0.4
						L870.8,1309.3z"/>
					<path class="st23" d="M844,1305.5c2.3,12.3,18.1,11.9,24.9,11.1c1.9-0.2,3.1-0.5,3.1-0.5c2.1-0.6,3.4-4,3.9-8.5
						c1.1-8.9-0.3-21.8-1.8-25.1c-2.3-5-6.5-10.4-22.4-6.5C835.8,1280,841,1289.9,844,1305.5z"/>
					<path class="st17" d="M896.5,1361.8c0,0,9.8,21.7,9.5,28.2c0,0-4.9-0.2-9.5,1.2C888.8,1393.5,896.5,1361.8,896.5,1361.8z"/>
					<path class="st22" d="M879,1270.9c0,0-7-0.5-15.3-4.1c-6.7-2.9-15.1,0.3-17.9,1.7c0.1-0.5,0.3-1.1,0.7-1.7c0,0-1.2,0.9-1.4,2.1
						c-0.1,0.1-0.2,0.1-0.1,0.2c0,0-1.4-0.3-2.3,0.1c0,0,0.6-0.1,0.9,0.3c0,0.1,0.1,0.1,0.1,0.1c-10.5,5.1-11.4,21.6-8.1,25.4
						c4.1,4.6,8.9,14.9,8.9,14.9s1.8-2.5,1.1-6.5c-0.7-4.1,2.7-4.1,7.2-5.9c4.4-1.9,0.7-7,4.6-10.1c3.9-3.1,18-1.3,17.9-3.7
						C880.4,1282,879,1271.4,879,1270.9z"/>
					<path class="st17" d="M840.8,1402.4c4.1,16.7,49,25.3,59.2,27c-0.4-7.2-0.9-16.4-1.1-27.9L840.8,1402.4z"/>
					<path class="st23" d="M850.6,1407.8c-0.4,0-10-1.4-11.7-2.3s-9.5-11.9-4.4-14.8s18.9,8.5,18.9,8.5L850.6,1407.8z"/>
					<path class="st13" d="M908.7,1411.1c0,0-37,2-61.7-3.3c0,0-0.6-7.1,7.1-10.3c0,0,38.6-8.2,47.9-5.9
						C911.3,1393.8,908.7,1411.1,908.7,1411.1z"/>
					<path class="st13" d="M823.9,1382.2c7.7,9.3,17.7,16.8,28.7,18.5l0,0c0.1-0.1,3.3-5.1,2.7-12.3c-0.3-3.3-1.4-7.2-4-11.3
						c-0.8-1.3-1.5-2.7-2.2-4.4c-6-15.4-5.1-45-5.1-45s-25.6,2.7-33.6,14.1C805.5,1348.7,811.7,1367.6,823.9,1382.2z"/>
					<path class="st24" d="M868.8,1316.6c1.9-0.2,3.1-0.5,3.1-0.5c2.1-0.6,3.4-4,3.9-8.5c-4.1,1-5.9,4.1-6.7,5.5
						C868.9,1313.8,868.8,1315.1,868.8,1316.6z"/>
					<path class="st23" d="M879.2,1323.5c0,0,8.9-14.6,1.9-15.2c-6.9-0.7-9.7,4-10.6,5.7c-1,1.7,0.3,9.4,0.3,9.4L879.2,1323.5z"/>
					<path class="st13" d="M845.5,1387.9c0.3,1.9,0.8,3.5,1.5,5.1c2.1,4.8,5.6,7.7,5.6,7.7l0,0c22.9-10.3,27.6-46,28.4-65.6
						c0.3-7.9,0-13.1,0-13.1c-10.3-3.4-13.3,2.5-13.3,2.5s-12.2,29.1-18.6,48.1C846.7,1380,845.2,1385.8,845.5,1387.9z"/>
					<path class="st17" d="M823.9,1382.2c7.7,9.3,17.7,16.8,28.7,18.5l0,0c22.9-10.3,27.6-46,28.4-65.6c0,0-10.9,39.4-25.7,53.2
						c-2.7,2.5-5.5,4.1-8.3,4.6c0,0-18.7-5.3-22.5-10.3C824.2,1382.4,824,1382.2,823.9,1382.2z"/>
				</g>
				<g>
					<path class="st5" d="M445,1633c-4.5,16.7-37.6,26.6-73.8,32.4H236.1c-32.5-15.9-32.5-35-35.2-87.5
						c-5.4-108.5,51.7-160.8,77.1-152.2c1.1,0.3,2.1,0.7,3.2,1.2c7.4,3,15.7,8.2,23.7,20.7c0,0,25.3,42.2,46.1,67.3
						c6.7,8.1,12.9,14.4,17.7,17c0.1,0,0.1,0.1,0.2,0.1c0.3,0.1,0.5,0.3,0.7,0.4c11,5.1,26.5,15.6,40.8,28.9l0,0
						C432.6,1582.1,451.3,1609.4,445,1633z"/>
					<path class="st4" d="M410.6,1561.4c-18.9,5.8-116.5,33.9-139.4,4.1c-16.6-21.6-6.3-77,2.9-112.9c3.7-14.7,22.5-18,30.7-5.4
						c0.1,0.1,0.1,0.3,0.3,0.4c0,0,25.3,42.2,46.1,67.3c6,7.9,11.9,14.1,17.7,17c0.1,0,0.1,0.1,0.2,0.1c0.3,0.1,0.5,0.3,0.7,0.4
						C380.8,1537.5,396.3,1548,410.6,1561.4z"/>
					<g>
						<path class="st25" d="M338,1424.6c0,0,6.7,10,10.6,31c3.4,18.4,6.3,25.2,11.2,29c4.9,3.8,32,14.9,32,14.9l-2,4.7
							c0,0-39.8-5.4-44.3-12.1s-21.5-46-20.2-55S338,1424.6,338,1424.6z"/>
						<g>
							<path class="st23" d="M435.5,1644.2c-0.3,3.9,5.1,4.8,11.3,5.1c6.3,0.3,4.3,1.6,12.9,3.1s12-0.8,12.6-1.9
								c0.5-1-3.5-2.7-7.7-4.5c-0.5-0.2-1.1-0.5-1.6-0.7c-4.8-2.1-7.5-6.4-11.2-10.3c-3.5-3.7-6.9-15.8-6.9-15.8l-11.7-2.5
								c0,0,3.3,10.9,4.4,15.5c0.7,2.7-0.3,5.8-1.2,8.1C436.1,1641.5,435.6,1642.8,435.5,1644.2z"/>
							<path class="st18" d="M446.8,1649.3c6.3,0.3,4.3,1.6,12.9,3.1s12-0.8,12.6-1.9c0.5-1-3.5-2.7-7.7-4.5l-0.1,0.1
								c0,0-6,2.1-13,0.1c-5.7-1.5-11.1-4.9-15.1-6c-0.5,1.3-0.9,2.5-1.1,3.9C435.1,1648,440.5,1649,446.8,1649.3z"/>
						</g>
						<path class="st18" d="M319.4,1505.9c0,0,77.4-5.8,92,3.4c14.6,9.2,38,116.4,38,116.4s-1.5,1.1-4.7,1.5c-3,0.3-9.6-1.5-9.6-1.5
							s-33.6-48-36-60c-2.3-12.1-1.8-22.9-7.2-23.1c-5.4-0.3-72.6,8.1-82.8-9.7c-10.1-17.9-1.7-35.6-1.7-35.6L319.4,1505.9z"/>
						<g>
							<path class="st23" d="M405.8,1656.6c-0.3,3.9,5.1,4.8,11.3,5.1c6.3,0.3,4.3,1.6,12.9,3.1s12-0.8,12.6-1.9
								c0.5-1-3.5-2.7-7.7-4.5c-0.5-0.2-1.1-0.5-1.6-0.7c-4.8-2.1-7.5-6.4-11.2-10.3c-3.5-3.7-6.9-15.8-6.9-15.8l-11.7-2.5
								c0,0,3.3,10.9,4.4,15.5c0.7,2.7-0.3,5.8-1.2,8.1C406.4,1654,406,1655.2,405.8,1656.6z"/>
							<path class="st18" d="M417.2,1661.8c6.3,0.3,4.3,1.6,12.9,3.1s12-0.8,12.6-1.9c0.5-1-3.5-2.7-7.7-4.5l-0.1,0.1
								c0,0-6,2.1-13,0.1c-5.7-1.5-11.1-4.9-15.1-6c-0.5,1.3-0.9,2.5-1.1,3.9C405.5,1660.5,410.9,1661.4,417.2,1661.8z"/>
						</g>
						<path class="st19" d="M304.2,1510.7c0,0,68.8,3.3,83,13s33.4,117.8,33.4,117.8s-1.5,1.1-4.7,1.3c-3,0.2-9.5-1.8-9.5-1.8
							s-31.7-49.2-33.6-61.4c-1.9-12.1-0.9-22.9-6.3-23.4s-72.8,5.3-82.3-12.9C274.8,1525,304.2,1510.7,304.2,1510.7z"/>
						<path class="st18" d="M328.7,1359.3c-3.1-2-6.9-2.5-9.5-2.5c0.7-0.7,2.1-0.8,2.1-0.8c-1.6-0.3-5.4,1.1-5.4,1.1
							c-22.3-10.4-28.2,23.1-28.3,31.1c-0.1,7.9-0.6,16.9-12.5,23.2c-23.5,12.3-6.1,37.8-6.1,37.8c0.2,0.1,9.3,18.3,9.3,18.3
							c-0.1-6.4,31.3-37.9,47.3-46.9c4.1-5.2,6.1-14.8,6.2-15.5c-1.1,7.6-2.7,11.8-4.1,14.2C341.5,1408,336.9,1364.6,328.7,1359.3z"
							/>
						<path class="st23" d="M301.3,1413c0,0,6.4-0.6,12.8,0c4.3,0.4,8.7,1.7,11.1,2.8c6.1,2.5,5.4,13.3-7.3,11.3
							C305.2,1425.1,300.4,1416.2,301.3,1413z"/>
						<path class="st23" d="M324.7,1420.8c0.1,0.1,1.8,9.2-6.5,8.9c-5.5-0.3-17.3-6.9-16.2-11.5c0.5-2.2,4.6-8,5.5-21.2l1,0.3
							l16.7,4.5c0,0-0.7,5.3-1.1,10.3C323.8,1416.3,323.8,1420.4,324.7,1420.8z"/>
						<path class="st25" d="M325.2,1401.8c0,0-0.7,5.3-1.1,10.3c-9.5-0.9-13.9-9.9-15.7-14.8L325.2,1401.8z"/>
						<path class="st18" d="M306.8,1395.3c0,0-4.5-8.2-5.2-15c-0.5-4.9,3.1-22.5,20.8-18.7c0,0,5.1,0.9,9.8,4.5
							c3.7,2.9,8.9,8.9,1.6,24l-2,5.1L306.8,1395.3z"/>
						<path class="st23" d="M328,1406.8c0,0-22.5-1.1-21.5-15.1s-1.3-23.5,13-23.4s16.8,5.7,17.7,10.4
							C338,1383.4,333.9,1406.7,328,1406.8z"/>
						<path class="st18" d="M329.8,1368.6c0,0-7.3,16-16.9,17.8s-13.5-1-13.5-1s7.6-5.3,9.8-15.2
							C309.2,1370.2,325.6,1360.4,329.8,1368.6z"/>
						<path class="st18" d="M328.1,1369.8c0,0,4.3,4,5.2,7.6c0.9,3.7,0.9,11,3.1,10.9c0,0,5.4-10.9,0.6-17.5
							C331.9,1363.7,328.1,1369.8,328.1,1369.8z"/>
						<path class="st3" d="M350.5,1507.1c-1.8,2.2-7.5,2.9-13.6,3.9c-4.8,0.8-9.8,1.8-13.3,3.9c-8.1,4.7-34.6,20.9-42.4,20.1
							c-3-0.3-2.5-6-0.6-13.7c2.9-12,8.9-28.7,8.9-36c0-3.9,1.3-13.3,3.1-24.1c0.1-0.9,0.3-1.7,0.5-2.6c3.5-20.9,8.3-45.5,8.3-45.5
							s5.4,11.7,15.9,11.7s8.1-8.9,8.1-8.9s9.6,1.1,11.8,3.5c2.3,2.5,8,12.9,9.1,15.9c0,0,0.2,3.7-8.8,5.4c0,0,2.2,9.9,2.5,16.5
							c0.2,4.9-3.3,20.2-4.3,29.7c-0.3,3.4-0.4,6,0.1,7.2c0.7,1.5,2.9,3.1,5.5,4.5C346.3,1501.6,352.7,1504.5,350.5,1507.1z"/>
						<path class="st26" d="M341.3,1498.7c5.8,9.9-15.7,12.9-19.3,15c-8.1,4.7-32.9,22-40.7,21.3c-3-0.3-2.5-6-0.6-13.7
							c2.9-12,8.9-28.7,8.9-36c0-3.9,1.3-13.3,3.1-24.1l9.3-9c0,0,10,25.9,19.5,30.1c5,2.2,10.2,3.7,14.1,4.6
							c-0.3,3.4-0.4,6,0.1,7.2C336.4,1495.6,338.7,1497.2,341.3,1498.7z"/>
						<path class="st23" d="M298.4,1420.8c0,0-8-4.9-15.7,4.3c-7.7,9.2,5.5,75,16.9,78.4c12.7,3.7,49.4-0.6,49.4-0.6l-0.7-5.7
							c0,0-39.1-7.5-40.8-9.6C306,1485.5,302.5,1421.8,298.4,1420.8z"/>
						<path class="st3" d="M301.3,1413c0,0-16.4,1.5-21.1,6.9s-6.1,20-6.1,20s14.5,11.7,31.9,7.1L301.3,1413z"/>
						<g>
							<rect x="352.9" y="1506" class="st17" width="21.7" height="2.5"/>
							<path class="st17" d="M370,1508.2c0.2-0.9,19.9-31.8,19.9-31.8h43.9l-22,30.9L370,1508.2z"/>
							<path class="st20" d="M371.9,1508.6c0.2-0.9,20-32.1,20-32.1h42l-20.9,32.1H371.9z"/>
							<path class="st14" d="M408.8,1492.6c-0.4,1.3-1.8,2.3-3.1,2.3s-1.9-1-1.5-2.3s1.8-2.3,3.1-2.3
								C408.6,1490.3,409.3,1491.3,408.8,1492.6z"/>
						</g>
						<path class="st23" d="M345.2,1496.8c0,0,12.7-2.5,14.1-1.9c1.5,0.6,9.5,7.8,8.6,9.3c-0.8,1.5-4.1,2.5-7.8,1.2
							c-3.7-1.2-11.7-1.9-13.1-3.7C345.7,1500,345.2,1496.8,345.2,1496.8z"/>
					</g>
				</g>
				<g>
					<polygon class="st26" points="616.7,1140 1017.2,1140 1047.9,1039.5 647.3,1039.5 					"/>
					<g>
						<path class="st14" d="M662.6,1073.5l-3.7,12c-1.6,5.3,1.4,9.6,6.7,9.6h331.9c5.3,0,10.9-4.3,12.5-9.6l3.7-12
							c1.6-5.3-1.4-9.6-6.7-9.6H675.1C669.9,1063.9,664.2,1068.2,662.6,1073.5z"/>
						<g>
							<path class="st27" d="M731,1084.6h-2l-1.9-8.8l0.4-1.3h7.1l-0.5,1.5H729L731,1084.6z"/>
							<path class="st27" d="M718.7,1084.8c-2.7,0-3.7-2.3-2.8-5.3c0.9-2.9,3.3-5.3,6-5.3s3.7,2.3,2.8,5.3
								C723.8,1082.4,721.4,1084.8,718.7,1084.8z M719.2,1083.2c1.6,0,3.1-1.7,3.7-3.6c0.6-2.1,0.1-3.6-1.5-3.6
								c-1.5,0-3.1,1.7-3.7,3.6C717.1,1081.6,717.6,1083.2,719.2,1083.2z"/>
							<path class="st27" d="M712,1079.5c-1.4,0-2.1-1.2-1.6-2.6c0.4-1.4,1.7-2.6,3.1-2.6s2.1,1.2,1.6,2.6
								C714.7,1078.3,713.4,1079.5,712,1079.5z M711.8,1084.6h-1.4l-4.3-10.1h1.4L711.8,1084.6z M712.3,1078.4
								c0.7,0,1.3-0.7,1.5-1.5c0.3-0.8,0.1-1.5-0.7-1.5c-0.7,0-1.3,0.7-1.5,1.5C711.4,1077.7,711.6,1078.4,712.3,1078.4z
								 M704.3,1084.7c-1.4,0-2.1-1.2-1.6-2.6c0.4-1.4,1.7-2.6,3.1-2.6s2.1,1.2,1.6,2.6C707,1083.5,705.7,1084.7,704.3,1084.7z
								 M704.6,1083.6c0.7,0,1.3-0.7,1.5-1.5c0.3-0.8,0.1-1.5-0.7-1.5c-0.7,0-1.3,0.7-1.5,1.5
								C703.7,1082.9,703.9,1083.6,704.6,1083.6z"/>
						</g>
						<g>
							<path class="st17" d="M782.6,1063.9l-9.5,31.3h224.4c4.4,0,9.1-3,11.4-7.1c0.5-0.8,0.9-1.7,1.1-2.5l3.7-12
								c1.6-5.3-1.4-9.6-6.7-9.6L782.6,1063.9L782.6,1063.9z"/>
							<path class="st2" d="M967.3,1063.9l9.5,31.3h20.7c4.4,0,9.1-3,11.4-7.1l-7.3-24.2L967.3,1063.9L967.3,1063.9z"/>
							<polygon class="st2" points="908.6,1063.9 918.1,1095.2 952.3,1095.2 942.9,1063.9 							"/>
							<polygon class="st2" points="849.8,1063.9 859.3,1095.2 893.6,1095.2 884.1,1063.9 							"/>
							<polygon class="st2" points="791.1,1063.9 800.6,1095.2 834.8,1095.2 825.4,1063.9 							"/>
						</g>
					</g>
					<g>
						<polygon class="st27" points="936.6,1113.6 996.6,1113.6 997.8,1109.5 937.9,1109.5 						"/>
						<polygon class="st27" points="949.5,1125.2 993,1125.2 994.3,1121.1 950.7,1121.1 						"/>
						<polygon class="st27" points="920.7,1125.2 946.8,1125.2 948.1,1121.1 922,1121.1 						"/>
						<polygon class="st27" points="876.5,1125.2 916.3,1125.2 917.5,1121.1 877.8,1121.1 						"/>
						<polygon class="st27" points="914,1113.6 932.1,1113.6 933.4,1109.5 915.3,1109.5 						"/>
						<polygon class="st27" points="841.8,1113.6 907.7,1113.6 909,1109.5 843,1109.5 						"/>
					</g>
				</g>
				<g>
					<polygon class="st26" points="1157.4,1291.8 1439.2,1291.8 1483,1148.3 1201.1,1148.3 					"/>
					<polygon class="st14" points="1197.1,1220.1 1443.2,1220.1 1461.8,1159.1 1215.7,1159.1 					"/>
					<g>
						<polygon class="st10" points="1402.8,1171.5 1444.5,1171.5 1445.4,1168.3 1403.8,1168.3 						"/>
						<polygon class="st10" points="1358.1,1171.5 1392.8,1171.5 1393.8,1168.3 1359.1,1168.3 						"/>
						<polygon class="st10" points="1277.5,1171.5 1349.1,1171.5 1350.1,1168.3 1278.4,1168.3 						"/>
						<polygon class="st10" points="1399.2,1183.1 1440.8,1183.1 1441.8,1179.9 1400.2,1179.9 						"/>
						<polygon class="st10" points="1354.6,1183.1 1389.3,1183.1 1390.3,1179.9 1355.6,1179.9 						"/>
						<polygon class="st10" points="1313.7,1183.1 1348.3,1183.1 1349.3,1179.9 1314.7,1179.9 						"/>
						<polygon class="st10" points="1231.5,1184.5 1303.2,1184.5 1304.2,1181.3 1232.5,1181.3 						"/>
					</g>
					<g>
						<polygon class="st10" points="1394.7,1197.9 1436.4,1197.9 1437.3,1194.7 1395.7,1194.7 						"/>
						<polygon class="st10" points="1350.1,1197.9 1384.8,1197.9 1385.8,1194.7 1351.1,1194.7 						"/>
						<polygon class="st10" points="1269.4,1197.9 1341.1,1197.9 1342.1,1194.7 1270.4,1194.7 						"/>
						<polygon class="st10" points="1391.1,1209.5 1432.8,1209.5 1433.8,1206.3 1392.1,1206.3 						"/>
						<polygon class="st10" points="1346.5,1209.5 1381.2,1209.5 1382.2,1206.3 1347.5,1206.3 						"/>
						<polygon class="st10" points="1305.6,1209.5 1340.3,1209.5 1341.3,1206.3 1306.6,1206.3 						"/>
						<polygon class="st10" points="1223.4,1210.9 1295.1,1210.9 1296.1,1207.7 1224.4,1207.7 						"/>
					</g>
					<g>
						<g>
							<g>
								<path class="st2" d="M1266.2,1253.2c2.9-9.5,13.1-17.3,22.6-17.3s14.9,7.7,12,17.3c-2.9,9.5-13.1,17.3-22.6,17.3
									C1268.6,1270.6,1263.2,1262.8,1266.2,1253.2z M1269.4,1253.2c-2.4,7.8,2,14.1,9.8,14.1s16.1-6.3,18.5-14.1
									c2.4-7.8-2-14.1-9.8-14.1S1271.7,1245.4,1269.4,1253.2z"/>
							</g>
							<g>
								<path class="st2" d="M1281.2,1262c0.7-0.1,1.3-0.3,1.9-0.8l9.8-7.8c1.3-1.1,1.8-2.7,1.1-3.7c-0.7-1-2.4-1-3.7,0.1l-6.9,5.5
									l-3.4-8.1c-0.5-1.2-2.1-1.5-3.5-0.6c-1.5,0.9-2.2,2.5-1.7,3.7l4.5,10.7c0.3,0.6,0.9,1,1.6,1.1
									C1280.9,1262,1281,1262,1281.2,1262z"/>
							</g>
						</g>
						<g>
							<g>
								<path class="st2" d="M1315.7,1253.2c2.9-9.5,13.1-17.3,22.6-17.3s14.9,7.7,12,17.3c-2.9,9.5-13.1,17.3-22.6,17.3
									S1312.8,1262.8,1315.7,1253.2z M1318.9,1253.2c-2.4,7.8,2,14.1,9.8,14.1s16.1-6.3,18.5-14.1c2.4-7.8-2-14.1-9.8-14.1
									S1321.3,1245.4,1318.9,1253.2z"/>
							</g>
							<g>
								<path class="st2" d="M1330.7,1262c0.7-0.1,1.3-0.3,1.9-0.8l9.8-7.8c1.3-1.1,1.8-2.7,1.1-3.7c-0.7-1-2.4-1-3.7,0.1l-6.9,5.5
									l-3.4-8.1c-0.5-1.2-2.1-1.5-3.5-0.6c-1.5,0.9-2.2,2.5-1.7,3.7l4.5,10.7c0.3,0.6,0.9,1,1.6,1.1
									C1330.5,1262,1330.6,1262,1330.7,1262z"/>
							</g>
						</g>
						<g>
							<g>
								<path class="st2" d="M1367.1,1253.2c2.9-9.5,13.1-17.3,22.6-17.3s14.9,7.7,12,17.3c-2.9,9.5-13.1,17.3-22.6,17.3
									S1364.1,1262.8,1367.1,1253.2z M1370.2,1253.2c-2.4,7.8,2,14.1,9.8,14.1s16.1-6.3,18.5-14.1s-2-14.1-9.8-14.1
									S1372.6,1245.4,1370.2,1253.2z"/>
							</g>
							<g>
								<path class="st2" d="M1382,1262c0.7-0.1,1.3-0.3,1.9-0.8l9.8-7.8c1.3-1.1,1.8-2.7,1.1-3.7c-0.7-1-2.4-1-3.7,0.1l-6.9,5.5
									l-3.4-8.1c-0.5-1.2-2.1-1.5-3.5-0.6c-1.5,0.9-2.2,2.5-1.7,3.7l4.5,10.7c0.3,0.6,0.9,1,1.6,1.1
									C1381.8,1262,1382,1262,1382,1262z"/>
							</g>
						</g>
						<g>
							<g>
								<path class="st6" d="M1218.3,1253.2c2.9-9.5,13.1-17.3,22.6-17.3s14.9,7.7,12,17.3c-2.9,9.5-13.1,17.3-22.6,17.3
									S1215.4,1262.8,1218.3,1253.2z M1221.5,1253.2c-2.4,7.8,2,14.1,9.8,14.1s16.1-6.3,18.5-14.1s-2-14.1-9.8-14.1
									S1223.9,1245.4,1221.5,1253.2z"/>
							</g>
							<g>
								<path class="st6" d="M1234.8,1256.1L1234.8,1256.1c1.3,0,2.8-1.1,3.2-2.5l2.3-7.3c0.4-1.3-0.3-2.5-1.7-2.5l0,0
									c-1.3,0-2.8,1.1-3.2,2.5l-2.3,7.3C1232.7,1255,1233.5,1256.1,1234.8,1256.1z"/>
								<path class="st6" d="M1232.8,1261.8h0.5c1.2,0,2.5-1,2.9-2.2l0,0c0.4-1.2-0.3-2.2-1.5-2.2h-0.5c-1.2,0-2.5,1-2.9,2.2l0,0
									C1230.9,1260.8,1231.6,1261.8,1232.8,1261.8z"/>
							</g>
						</g>
					</g>
				</g>
				<g>
					<path class="st4" d="M557,1263.2c0,0-35.6,37-37.4,50.9c-1.7,13.9,17.1,35.6,17.1,35.6L557,1263.2z"/>
					<path class="st18" d="M573,1646.2c0,0,1.3,19.6,5.1,19.9c0.5,0.1,19.2,0,19.2,0l23.9-0.2c0,0-0.2-5.7-7.1-6.9
						c-7-1.2-18.7-6.1-22.9-15.3C586.6,1633.9,573,1646.2,573,1646.2z"/>
					<path class="st18" d="M519.8,1646.4c0,0,1.3,19.6,5.1,19.9c0.5,0.1,19.2,0,19.2,0l23.9-0.2c0,0-0.2-5.7-7.1-6.9
						c-7-1.2-18.7-6.1-22.9-15.3C533.4,1634,519.8,1646.4,519.8,1646.4z"/>
					<path class="st18" d="M599.1,1435.5c0,0-6.1,40-29.3,111.1c-23.1,71-26.3,101.8-26.3,101.8l-25-0.7c0,0-0.4-77.6,10.3-113.3
						c10.7-35.8,2.1-128.7,2.1-128.7L599.1,1435.5z"/>
					<path class="st19" d="M611.2,1407.6c0,0,1,60.3-9.3,134.3s-6.7,105.5-6.7,105.5l-24.9,0.9c0,0-15.1-74-10.9-111.1
						c4.2-37.1-20.7-127.1-20.7-127.1L611.2,1407.6z"/>
					<path class="st23" d="M562.6,1266.7l13.3,8.7l19.2-3.6c-0.3-1.5-1.5-8-2.7-13.8c-0.1-0.3-0.1-0.7-0.2-1c-1-4.9-1.9-9.2-1.9-9.2
						l-18-7.9l-6.7-2.9c0,0.1,0.5,5.5,0.6,6.3C567.5,1257.2,562.6,1266.7,562.6,1266.7z"/>
					<path class="st4" d="M590.2,1262.2c-0.4-0.1-23.1-6.8-25.7-6c-2.5,0.8-3.9,5.6-3.9,5.6l37.3,8.3
						C597.8,1270.2,594.9,1264.2,590.2,1262.2z"/>
					<path class="st5" d="M529.1,1415.2c3.9,17.6,68.2,19.5,84.7,3.5c1.9-1.8,1.9-10.3,1.2-21.7c-1.5-22.3-6-56-6.2-73.1
						c-0.1-8.3-1.3-16.7-2.8-24.5c-3.3-16.4-8.2-29.3-8.2-29.3s-31.4-10.1-37.3-8.3C532.3,1270.2,525.2,1397.6,529.1,1415.2z"/>
					<path class="st4" d="M615.1,1397c-1.5-22.3-6-56-6.2-73.1c-0.1-8.3-1.3-16.7-2.8-24.5l-18.9-3.3
						C587.2,1296.2,568.9,1371.6,615.1,1397z"/>
					<path class="st23" d="M604.8,1366c0,0-1.3,3.1,1.4,5.1c2.7,2.1,4.5,5.4,3.9,7.9s-6.5,6.5-8.6,5.8s-6.3-3.9-5.8-5.1
						c0.5-1.3-2.9-11.3,2.1-15.2C602.8,1360.5,604.8,1366,604.8,1366z"/>
					<path class="st5" d="M583.4,1265.7c0,0,18.4,3.4,33.1,25s24.4,37.7,21.7,45.5s-27.3,34.9-31.5,34.9c-4.3,0-11.1-3.1-11.5-10
						c0,0,17.3-26,13.9-29.9c-1.5-1.7-22.5-18.7-25.5-11C578.6,1332.9,583.4,1265.7,583.4,1265.7z"/>
					<path class="st28" d="M567.6,1243.4c3.9,6.7,18.7,12.4,24.8,14.5c-0.1-0.3-0.1-0.7-0.2-1c-1-4.9-1.9-9.2-1.9-9.2l-18-7.9
						C568.4,1239.8,566,1240.7,567.6,1243.4z"/>
					<path class="st23" d="M597,1246.6c0,0-28.9,9.1-34.3-9c-5.4-18.1-12.7-29.1,5.5-35.7c18.2-6.5,23.9-0.7,27.1,4.9
						C598.7,1212.4,604.4,1243.8,597,1246.6z"/>
					<path class="st18" d="M594.3,1205c0,0-1.8,21.1-6.1,20.1c-4.3-0.9-8.3-1.6-7.7,4.8c0.7,6.3,6.7,13.7-6.7,14.8
						c-13.4,1.1-32.8-33.4-29.1-40C555.2,1185.9,609.6,1181.9,594.3,1205z"/>
				</g>
				<g>
					<g>
						<g class="st29">
							<path class="st9" d="M1681.6,1585.8v-7h7.2v7H1681.6z"/>
							<path class="st9" d="M1681.6,1571.8v-7h7.2v7H1681.6z"/>
							<path class="st9" d="M1681.6,1557.6v-7h7.2v7H1681.6z"/>
							<path class="st9" d="M1681.6,1543.4v-7h7.2v7H1681.6z"/>
							<path class="st9" d="M1681.6,1529.4v-7h7.2v7H1681.6z"/>
							<path class="st9" d="M1681.6,1515.2v-7h7.2v7H1681.6z"/>
							<path class="st9" d="M1681.6,1501.1v-7h7.2v7H1681.6z"/>
							<path class="st9" d="M1681.6,1487v-7h7.2v7H1681.6z"/>
							<path class="st9" d="M1681.6,1472.8v-7h7.2v7H1681.6z"/>
							<path class="st9" d="M1681.6,1458.7v-7h7.2v7H1681.6z"/>
							<path class="st9" d="M1681.6,1444.5v-7h7.2v7H1681.6z"/>
							<path class="st9" d="M1681.6,1430.4v-7h7.2v7H1681.6z"/>
							<path class="st9" d="M1681.6,1416.3v-7h7.2v7H1681.6z"/>
							<path class="st9" d="M1681.6,1402.1v-7h7.2v7H1681.6z"/>
							<path class="st9" d="M1681.6,1388v-7h7.2v7H1681.6z"/>
							<path class="st9" d="M1681.6,1373.9v-7h7.2v7H1681.6z"/>
							<path class="st9" d="M1681.6,1359.7v-7h7.2v7H1681.6z"/>
							<path class="st9" d="M1681.6,1345.6v-7h7.2v7H1681.6z"/>
						</g>
						<g class="st29">
							<path class="st9" d="M1703.6,1501.1v-7h7.2v7H1703.6z"/>
							<path class="st9" d="M1703.6,1487v-7h7.2v7H1703.6z"/>
							<path class="st9" d="M1703.6,1472.8v-7h7.2v7H1703.6z"/>
							<path class="st9" d="M1703.6,1458.7v-7h7.2v7H1703.6z"/>
							<path class="st9" d="M1703.6,1444.5v-7h7.2v7H1703.6z"/>
							<path class="st9" d="M1703.6,1430.4v-7h7.2v7H1703.6z"/>
							<path class="st9" d="M1703.6,1416.3v-7h7.2v7H1703.6z"/>
							<path class="st9" d="M1703.6,1402.1v-7h7.2v7H1703.6z"/>
							<path class="st9" d="M1703.6,1388v-7h7.2v7H1703.6z"/>
							<path class="st9" d="M1703.6,1373.9v-7h7.2v7H1703.6z"/>
							<path class="st9" d="M1703.6,1359.7v-7h7.2v7H1703.6z"/>
							<path class="st9" d="M1703.6,1345.6v-7h7.2v7H1703.6z"/>
						</g>
						<g class="st29">
							<path class="st9" d="M1726,1585.8v-7h7.2v7H1726z"/>
							<path class="st9" d="M1726,1571.8v-7h7.2v7H1726z"/>
							<path class="st9" d="M1726,1557.6v-7h7.2v7H1726z"/>
							<path class="st9" d="M1726,1543.4v-7h7.2v7H1726z"/>
							<path class="st9" d="M1726,1529.4v-7h7.2v7H1726z"/>
							<path class="st9" d="M1726,1515.2v-7h7.2v7H1726z"/>
							<path class="st9" d="M1726,1501.1v-7h7.2v7H1726z"/>
							<path class="st9" d="M1726,1487v-7h7.2v7H1726z"/>
							<path class="st9" d="M1726,1472.8v-7h7.2v7H1726z"/>
							<path class="st9" d="M1726,1458.7v-7h7.2v7H1726z"/>
							<path class="st9" d="M1726,1444.5v-7h7.2v7H1726z"/>
							<path class="st9" d="M1726,1430.4v-7h7.2v7H1726z"/>
							<path class="st9" d="M1726,1416.3v-7h7.2v7H1726z"/>
							<path class="st9" d="M1726,1402.1v-7h7.2v7H1726z"/>
							<path class="st9" d="M1726,1388v-7h7.2v7H1726z"/>
							<path class="st9" d="M1726,1373.9v-7h7.2v7H1726z"/>
							<path class="st9" d="M1726,1359.7v-7h7.2v7H1726z"/>
							<path class="st9" d="M1726,1345.6v-7h7.2v7H1726z"/>
						</g>
						<g class="st29">
							<path class="st9" d="M1744.9,1614.2v-7h7.2v7H1744.9z"/>
							<path class="st9" d="M1744.9,1600v-7h7.2v7H1744.9z"/>
							<path class="st9" d="M1744.9,1585.8v-7h7.2v7H1744.9z"/>
							<path class="st9" d="M1744.9,1571.8v-7h7.2v7H1744.9z"/>
							<path class="st9" d="M1744.9,1557.6v-7h7.2v7H1744.9z"/>
							<path class="st9" d="M1744.9,1543.4v-7h7.2v7H1744.9z"/>
							<path class="st9" d="M1744.9,1529.4v-7h7.2v7H1744.9z"/>
							<path class="st9" d="M1744.9,1515.2v-7h7.2v7H1744.9z"/>
							<path class="st9" d="M1744.9,1501.1v-7h7.2v7H1744.9z"/>
							<path class="st9" d="M1744.9,1487v-7h7.2v7H1744.9z"/>
							<path class="st9" d="M1744.9,1472.8v-7h7.2v7H1744.9z"/>
							<path class="st9" d="M1744.9,1458.7v-7h7.2v7H1744.9z"/>
							<path class="st9" d="M1744.9,1444.5v-7h7.2v7H1744.9z"/>
							<path class="st9" d="M1744.9,1430.4v-7h7.2v7H1744.9z"/>
							<path class="st9" d="M1744.9,1416.3v-7h7.2v7H1744.9z"/>
							<path class="st9" d="M1744.9,1402.1v-7h7.2v7H1744.9z"/>
							<path class="st9" d="M1744.9,1388v-7h7.2v7H1744.9z"/>
							<path class="st9" d="M1744.9,1373.9v-7h7.2v7H1744.9z"/>
							<path class="st9" d="M1744.9,1359.7v-7h7.2v7H1744.9z"/>
							<path class="st9" d="M1744.9,1345.6v-7h7.2v7H1744.9z"/>
						</g>
						<g class="st29">
							<path class="st9" d="M1769.8,1487v-7h7.2v7H1769.8z"/>
							<path class="st9" d="M1769.8,1472.8v-7h7.2v7H1769.8z"/>
							<path class="st9" d="M1769.8,1458.7v-7h7.2v7H1769.8z"/>
							<path class="st9" d="M1769.8,1444.5v-7h7.2v7H1769.8z"/>
							<path class="st9" d="M1769.8,1430.4v-7h7.2v7H1769.8z"/>
							<path class="st9" d="M1769.8,1416.3v-7h7.2v7H1769.8z"/>
							<path class="st9" d="M1769.8,1402.1v-7h7.2v7H1769.8z"/>
							<path class="st9" d="M1769.8,1388v-7h7.2v7H1769.8z"/>
							<path class="st9" d="M1769.8,1373.9v-7h7.2v7H1769.8z"/>
							<path class="st9" d="M1769.8,1359.7v-7h7.2v7H1769.8z"/>
							<path class="st9" d="M1769.8,1345.6v-7h7.2v7H1769.8z"/>
						</g>
					</g>
				</g>
				<g>
					<g>
						<g class="st29">
							<path class="st14" d="M1009.5,704.4h10.9V715h-10.9V704.4z"/>
							<path class="st14" d="M1031.5,704.4h10.9V715h-10.9V704.4z"/>
							<path class="st14" d="M1053.5,704.4h10.9V715h-10.9V704.4z"/>
							<path class="st14" d="M1075.5,704.4h10.9V715h-10.9V704.4z"/>
							<path class="st14" d="M1097.6,704.4h10.9V715h-10.9V704.4z"/>
							<path class="st14" d="M1119.6,704.4h10.9V715h-10.9V704.4z"/>
							<path class="st14" d="M1141.6,704.4h10.9V715h-10.9V704.4z"/>
							<path class="st14" d="M1163.6,704.4h10.9V715h-10.9V704.4z"/>
							<path class="st14" d="M1185.6,704.4h10.9V715h-10.9V704.4z"/>
							<path class="st14" d="M1207.7,704.4h10.9V715h-10.9V704.4z"/>
							<path class="st14" d="M1229.7,704.4h10.9V715h-10.9V704.4z"/>
							<path class="st14" d="M1251.7,704.4h10.9V715h-10.9V704.4z"/>
							<path class="st14" d="M1273.7,704.4h10.9V715h-10.9V704.4z"/>
							<path class="st14" d="M1295.8,704.4h10.9V715h-10.9V704.4z"/>
							<path class="st14" d="M1317.8,704.4h10.9V715h-10.9V704.4z"/>
							<path class="st14" d="M1339.8,704.4h10.9V715h-10.9V704.4z"/>
							<path class="st14" d="M1361.9,704.4h10.9V715h-10.9V704.4z"/>
							<path class="st14" d="M1383.9,704.4h10.9V715h-10.9V704.4z"/>
						</g>
						<g class="st29">
							<path class="st14" d="M1141.6,736.6h10.9v10.6h-10.9V736.6z"/>
							<path class="st14" d="M1163.6,736.6h10.9v10.6h-10.9V736.6z"/>
							<path class="st14" d="M1185.6,736.6h10.9v10.6h-10.9V736.6z"/>
							<path class="st14" d="M1207.7,736.6h10.9v10.6h-10.9V736.6z"/>
							<path class="st14" d="M1229.7,736.6h10.9v10.6h-10.9V736.6z"/>
							<path class="st14" d="M1251.7,736.6h10.9v10.6h-10.9V736.6z"/>
							<path class="st14" d="M1273.7,736.6h10.9v10.6h-10.9V736.6z"/>
							<path class="st14" d="M1295.8,736.6h10.9v10.6h-10.9V736.6z"/>
							<path class="st14" d="M1317.8,736.6h10.9v10.6h-10.9V736.6z"/>
							<path class="st14" d="M1339.8,736.6h10.9v10.6h-10.9V736.6z"/>
							<path class="st14" d="M1361.9,736.6h10.9v10.6h-10.9V736.6z"/>
							<path class="st14" d="M1383.9,736.6h10.9v10.6h-10.9V736.6z"/>
						</g>
						<g class="st29">
							<path class="st14" d="M1009.5,769.3h10.9v10.6h-10.9V769.3z"/>
							<path class="st14" d="M1031.5,769.3h10.9v10.6h-10.9V769.3z"/>
							<path class="st14" d="M1053.5,769.3h10.9v10.6h-10.9V769.3z"/>
							<path class="st14" d="M1075.5,769.3h10.9v10.6h-10.9V769.3z"/>
							<path class="st14" d="M1097.6,769.3h10.9v10.6h-10.9V769.3z"/>
							<path class="st14" d="M1119.6,769.3h10.9v10.6h-10.9V769.3z"/>
							<path class="st14" d="M1141.6,769.3h10.9v10.6h-10.9V769.3z"/>
							<path class="st14" d="M1163.6,769.3h10.9v10.6h-10.9V769.3z"/>
							<path class="st14" d="M1185.6,769.3h10.9v10.6h-10.9V769.3z"/>
							<path class="st14" d="M1207.7,769.3h10.9v10.6h-10.9V769.3z"/>
							<path class="st14" d="M1229.7,769.3h10.9v10.6h-10.9V769.3z"/>
							<path class="st14" d="M1251.7,769.3h10.9v10.6h-10.9V769.3z"/>
							<path class="st14" d="M1273.7,769.3h10.9v10.6h-10.9V769.3z"/>
							<path class="st14" d="M1295.8,769.3h10.9v10.6h-10.9V769.3z"/>
							<path class="st14" d="M1317.8,769.3h10.9v10.6h-10.9V769.3z"/>
							<path class="st14" d="M1339.8,769.3h10.9v10.6h-10.9V769.3z"/>
							<path class="st14" d="M1361.9,769.3h10.9v10.6h-10.9V769.3z"/>
							<path class="st14" d="M1383.9,769.3h10.9v10.6h-10.9V769.3z"/>
						</g>
						<g class="st29">
							<path class="st14" d="M965.4,796.9h10.9v10.6h-10.9V796.9z"/>
							<path class="st14" d="M987.5,796.9h10.9v10.6h-10.9V796.9z"/>
							<path class="st14" d="M1009.5,796.9h10.9v10.6h-10.9V796.9z"/>
							<path class="st14" d="M1031.5,796.9h10.9v10.6h-10.9V796.9z"/>
							<path class="st14" d="M1053.5,796.9h10.9v10.6h-10.9V796.9z"/>
							<path class="st14" d="M1075.5,796.9h10.9v10.6h-10.9V796.9z"/>
							<path class="st14" d="M1097.6,796.9h10.9v10.6h-10.9V796.9z"/>
							<path class="st14" d="M1119.6,796.9h10.9v10.6h-10.9V796.9z"/>
							<path class="st14" d="M1141.6,796.9h10.9v10.6h-10.9V796.9z"/>
							<path class="st14" d="M1163.6,796.9h10.9v10.6h-10.9V796.9z"/>
							<path class="st14" d="M1185.6,796.9h10.9v10.6h-10.9V796.9z"/>
							<path class="st14" d="M1207.7,796.9h10.9v10.6h-10.9V796.9z"/>
							<path class="st14" d="M1229.7,796.9h10.9v10.6h-10.9V796.9z"/>
							<path class="st14" d="M1251.7,796.9h10.9v10.6h-10.9V796.9z"/>
							<path class="st14" d="M1273.7,796.9h10.9v10.6h-10.9V796.9z"/>
							<path class="st14" d="M1295.8,796.9h10.9v10.6h-10.9V796.9z"/>
							<path class="st14" d="M1317.8,796.9h10.9v10.6h-10.9V796.9z"/>
							<path class="st14" d="M1339.8,796.9h10.9v10.6h-10.9V796.9z"/>
							<path class="st14" d="M1361.9,796.9h10.9v10.6h-10.9V796.9z"/>
							<path class="st14" d="M1383.9,796.9h10.9v10.6h-10.9V796.9z"/>
						</g>
						<g class="st29">
							<path class="st14" d="M1163.6,833.3h10.9v10.6h-10.9V833.3z"/>
							<path class="st14" d="M1185.6,833.3h10.9v10.6h-10.9V833.3z"/>
							<path class="st14" d="M1207.7,833.3h10.9v10.6h-10.9V833.3z"/>
							<path class="st14" d="M1229.7,833.3h10.9v10.6h-10.9V833.3z"/>
							<path class="st14" d="M1251.7,833.3h10.9v10.6h-10.9V833.3z"/>
							<path class="st14" d="M1273.7,833.3h10.9v10.6h-10.9V833.3z"/>
							<path class="st14" d="M1295.8,833.3h10.9v10.6h-10.9V833.3z"/>
							<path class="st14" d="M1317.8,833.3h10.9v10.6h-10.9V833.3z"/>
							<path class="st14" d="M1339.8,833.3h10.9v10.6h-10.9V833.3z"/>
							<path class="st14" d="M1361.9,833.3h10.9v10.6h-10.9V833.3z"/>
							<path class="st14" d="M1383.9,833.3h10.9v10.6h-10.9V833.3z"/>
						</g>
					</g>
				</g>
				<g>
					<g class="st29">
						<path class="st4" d="M407.1,827.8V841h-13.6v-13.2H407.1z"/>
						<path class="st4" d="M407.1,854.5v13.2h-13.6v-13.2H407.1z"/>
						<path class="st4" d="M407.1,881.3v13.2h-13.6v-13.2H407.1z"/>
						<path class="st4" d="M407.1,908.1v13.2h-13.6v-13.2H407.1z"/>
						<path class="st4" d="M407.1,934.8V948h-13.6v-13.2H407.1z"/>
						<path class="st4" d="M407.1,961.6v13.2h-13.6v-13.2H407.1z"/>
						<path class="st4" d="M407.1,988.4v13.2h-13.6v-13.2H407.1z"/>
						<path class="st4" d="M407.1,1015.1v13.2h-13.6v-13.2L407.1,1015.1L407.1,1015.1z"/>
						<path class="st4" d="M407.1,1041.9v13.2h-13.6v-13.2H407.1z"/>
						<path class="st4" d="M407.1,1068.7v13.2h-13.6v-13.2H407.1z"/>
						<path class="st4" d="M407.1,1095.4v13.2h-13.6v-13.2H407.1z"/>
						<path class="st4" d="M407.1,1122.2v13.2h-13.6v-13.2H407.1z"/>
						<path class="st4" d="M407.1,1149v13.2h-13.6V1149H407.1z"/>
						<path class="st4" d="M407.1,1175.7v13.2h-13.6v-13.2H407.1z"/>
						<path class="st4" d="M407.1,1202.5v13.2h-13.6v-13.2H407.1z"/>
						<path class="st4" d="M407.1,1229.3v13.2h-13.6v-13.2H407.1z"/>
						<path class="st4" d="M407.1,1256.2v13.2h-13.6v-13.2H407.1z"/>
						<path class="st4" d="M407.1,1282.8v13.2h-13.6v-13.2H407.1z"/>
					</g>
					<g class="st29">
						<path class="st4" d="M365.5,988.4v13.2h-13.6v-13.2H365.5z"/>
						<path class="st4" d="M365.5,1015.1v13.2h-13.6v-13.2L365.5,1015.1L365.5,1015.1z"/>
						<path class="st4" d="M365.5,1041.9v13.2h-13.6v-13.2H365.5z"/>
						<path class="st4" d="M365.5,1068.7v13.2h-13.6v-13.2H365.5z"/>
						<path class="st4" d="M365.5,1095.4v13.2h-13.6v-13.2H365.5z"/>
						<path class="st4" d="M365.5,1122.2v13.2h-13.6v-13.2H365.5z"/>
						<path class="st4" d="M365.5,1149v13.2h-13.6V1149H365.5z"/>
						<path class="st4" d="M365.5,1175.7v13.2h-13.6v-13.2H365.5z"/>
						<path class="st4" d="M365.5,1202.5v13.2h-13.6v-13.2H365.5z"/>
						<path class="st4" d="M365.5,1229.3v13.2h-13.6v-13.2H365.5z"/>
						<path class="st4" d="M365.5,1256.2v13.2h-13.6v-13.2H365.5z"/>
						<path class="st4" d="M365.5,1282.8v13.2h-13.6v-13.2H365.5z"/>
					</g>
					<g class="st29">
						<path class="st4" d="M323,827.8V841h-13.6v-13.2H323z"/>
						<path class="st4" d="M323,854.5v13.2h-13.6v-13.2H323z"/>
						<path class="st4" d="M323,881.3v13.2h-13.6v-13.2H323z"/>
						<path class="st4" d="M323,908.1v13.2h-13.6v-13.2H323z"/>
						<path class="st4" d="M323,934.8V948h-13.6v-13.2H323z"/>
						<path class="st4" d="M323,961.6v13.2h-13.6v-13.2H323z"/>
						<path class="st4" d="M323,988.4v13.2h-13.6v-13.2H323z"/>
						<path class="st4" d="M323,1015.1v13.2h-13.6v-13.2L323,1015.1L323,1015.1z"/>
						<path class="st4" d="M323,1041.9v13.2h-13.6v-13.2H323z"/>
						<path class="st4" d="M323,1068.7v13.2h-13.6v-13.2H323z"/>
						<path class="st4" d="M323,1095.4v13.2h-13.6v-13.2H323z"/>
						<path class="st4" d="M323,1122.2v13.2h-13.6v-13.2H323z"/>
						<path class="st4" d="M323,1149v13.2h-13.6V1149H323z"/>
						<path class="st4" d="M323,1175.7v13.2h-13.6v-13.2H323z"/>
						<path class="st4" d="M323,1202.5v13.2h-13.6v-13.2H323z"/>
						<path class="st4" d="M323,1229.3v13.2h-13.6v-13.2H323z"/>
						<path class="st4" d="M323,1256.2v13.2h-13.6v-13.2H323z"/>
						<path class="st4" d="M323,1282.8v13.2h-13.6v-13.2H323z"/>
					</g>
					<g class="st29">
						<path class="st4" d="M287.2,774.2v13.2h-13.6v-13.2H287.2z"/>
						<path class="st4" d="M287.2,801v13.2h-13.6V801H287.2z"/>
						<path class="st4" d="M287.2,827.8V841h-13.6v-13.2H287.2z"/>
						<path class="st4" d="M287.2,854.5v13.2h-13.6v-13.2H287.2z"/>
						<path class="st4" d="M287.2,881.3v13.2h-13.6v-13.2H287.2z"/>
						<path class="st4" d="M287.2,908.1v13.2h-13.6v-13.2H287.2z"/>
						<path class="st4" d="M287.2,934.8V948h-13.6v-13.2H287.2z"/>
						<path class="st4" d="M287.2,961.6v13.2h-13.6v-13.2H287.2z"/>
						<path class="st4" d="M287.2,988.4v13.2h-13.6v-13.2H287.2z"/>
						<path class="st4" d="M287.2,1015.1v13.2h-13.6v-13.2L287.2,1015.1L287.2,1015.1z"/>
						<path class="st4" d="M287.2,1041.9v13.2h-13.6v-13.2H287.2z"/>
						<path class="st4" d="M287.2,1068.7v13.2h-13.6v-13.2H287.2z"/>
						<path class="st4" d="M287.2,1095.4v13.2h-13.6v-13.2H287.2z"/>
						<path class="st4" d="M287.2,1122.2v13.2h-13.6v-13.2H287.2z"/>
						<path class="st4" d="M287.2,1149v13.2h-13.6V1149H287.2z"/>
						<path class="st4" d="M287.2,1175.7v13.2h-13.6v-13.2H287.2z"/>
						<path class="st4" d="M287.2,1202.5v13.2h-13.6v-13.2H287.2z"/>
						<path class="st4" d="M287.2,1229.3v13.2h-13.6v-13.2H287.2z"/>
						<path class="st4" d="M287.2,1256.2v13.2h-13.6v-13.2H287.2z"/>
						<path class="st4" d="M287.2,1282.8v13.2h-13.6v-13.2H287.2z"/>
					</g>
					<g class="st29">
						<path class="st4" d="M240.1,1015.1v13.2h-13.6v-13.2L240.1,1015.1L240.1,1015.1z"/>
						<path class="st4" d="M240.1,1041.9v13.2h-13.6v-13.2H240.1z"/>
						<path class="st4" d="M240.1,1068.7v13.2h-13.6v-13.2H240.1z"/>
						<path class="st4" d="M240.1,1095.4v13.2h-13.6v-13.2H240.1z"/>
						<path class="st4" d="M240.1,1122.2v13.2h-13.6v-13.2H240.1z"/>
						<path class="st4" d="M240.1,1149v13.2h-13.6V1149H240.1z"/>
						<path class="st4" d="M240.1,1175.7v13.2h-13.6v-13.2H240.1z"/>
						<path class="st4" d="M240.1,1202.5v13.2h-13.6v-13.2H240.1z"/>
						<path class="st4" d="M240.1,1229.3v13.2h-13.6v-13.2H240.1z"/>
						<path class="st4" d="M240.1,1256.2v13.2h-13.6v-13.2H240.1z"/>
						<path class="st4" d="M240.1,1282.8v13.2h-13.6v-13.2H240.1z"/>
					</g>
				</g>
			</g>
		</g>
	</g>
	<g id="Layer_2_1_">
		<g class="st0">
			<g class="st1">
				<path class="st30" d="M1553.9,1429.3c0,0.2,0,0.3,0,0.4l0.9-0.4H1553.9z M975.8,1420.5C913,1485,837,1566,742.8,1566.3l0.8,96.4
					c-0.3,0.1-0.7,0.1-1,0.2v2.4l1-1.9v2.2c129.7-3.6,215.7-94.3,298.5-177.2L975.8,1420.5z"/>
				<path class="st30" d="M1233.3,1237.5l-16,83c-5.2,3.7-10.3,7.6-15.3,11.6c-34.2,26.9-65.3,59.4-93.6,88.5l-66.3-67.9
					c42.4-42.4,85.6-86.8,135-120.6c8-5.5,16.3-10.7,24.7-15.6L1233.3,1237.5z"/>
				<path class="st31" d="M1193.3,1592.6l17.2,38.5c-64-35.6-118.5-92.7-168.5-142.7l-66.3-67.9c-62.9-58.1-129-141.3-221.1-145.6
					l-20.5-26.3l36.7-72.3c103.5,9.9,184,88.7,254.7,159.7c5.6,5.6,11.1,11.1,16.5,16.5l49.8,51l16.5,16.9
					c38.2,35.4,77.7,80,123.5,110.5L1193.3,1592.6z"/>
				<path class="st31" d="M1587.1,1413.4l-32.3,15.9h-0.9c0,0.2,0,0.3,0,0.4l-51.8,25.5l-21.4-10.3l0,0c1.4-8,2.1-16.1,2.1-24.4
					c0-2,0-4-0.1-6c-2.7-81.4-61.5-139.8-140.7-139.8c-45.6,0-87,18.9-124.6,45.7l16-83l-31.6-21.1c43-24.9,90.9-41.1,146.8-41.1
					c134.9,0,230.3,94.3,238.1,227.4C1586.8,1406.3,1587,1409.8,1587.1,1413.4z"/>
				<path class="st31" d="M742.6,1665.3l1-1.9v2.2c-2.6,0.1-5.3,0.1-8,0.1c-127.2,0-221.2-85.8-236.4-209.5l103.1-51.7
					c-0.6,5.3-0.9,10.6-0.9,16c0,84.5,59.7,145.8,140.8,145.8h0.6l0.8,96.4c-0.3,0.1-0.7,0.1-1,0.2L742.6,1665.3L742.6,1665.3z"/>
				<path class="st30" d="M734.2,1248.7l20.5,26.3c-2.5-0.2-5-0.2-7.5-0.2c-77.1,0-137,58.8-144.9,129.8l-103.1,51.7
					c-1.4-11.6-2.2-23.5-2.2-35.7c0-130.9,106-245.2,251.8-245.2c7.4,0,14.8,0.4,22,1.1L734.2,1248.7z"/>
			</g>
			<path class="st32" d="M744,1662.7l-0.4,0.7l-1,1.9v-2.4c0.3,0,0.7-0.1,1-0.2C743.7,1662.7,743.8,1662.7,744,1662.7z"/>
			<path class="st32" d="M1449.4,1429.3L1449.4,1429.3L1449.4,1429.3L1449.4,1429.3z"/>
			<path class="st32" d="M1554.8,1429.3l-0.9,0.4c0-0.1,0-0.3,0-0.4H1554.8z"/>
			<path class="st33" d="M1587.1,1420.5c0,130.9-106.1,245.2-251.8,245.2c-35.6,0-68.5-8.2-99.3-21.9c-8.6-3.8-17.1-8-25.4-12.7l0,0
				l-17.2-38.5l38.5-61.6c3.8,2.6,7.7,5,11.6,7.4c28.3,16.9,59.1,27.9,93.5,27.9c74,0,132.1-54.2,143.7-121.3l21.4,10.3l51.8-25.5
				l0.9-0.4l32.3-15.9C1587.1,1415.8,1587.1,1418.1,1587.1,1420.5z"/>
			<path class="st32" d="M1553.9,1429.3h0.9l-0.9,0.4C1553.9,1429.6,1553.9,1429.4,1553.9,1429.3z"/>
			<path class="st32" d="M743.6,1663.4v-0.7V1663.4z"/>
			<g class="st1">
				<path class="st34" d="M1193.3,1592.6l29.7,59.2c-84.3-29.7-152.6-102-214-163.4l-66.3-67.9c-51.7-47.7-105.5-112.4-174.2-136.4
					c-0.3-0.1-0.6-0.2-0.9-0.3l-25.1-52.3l25.9-50.1l0,0c96.7,22.6,172.8,103.5,240.5,171.2l66.3,67.9c44.9,41.5,91.5,95.8,148,125
					L1193.3,1592.6z"/>
				<path class="st35" d="M1553.9,1429.7c-4.8,127-109.3,236-251.6,236c-28,0-54.3-5.1-79.2-13.9l-29.7-59.2l30-47
					c24.7,12.8,51.4,20.7,80.6,20.7c79.7,0,141-62.9,145.5-137l52.6,25.9L1553.9,1429.7z"/>
				<path class="st34" d="M1554.1,1420.5c0,2.9,0,5.8-0.2,8.8c0,0.2,0,0.3,0,0.4l-51.8,25.5l-52.6-25.9l0,0c0.2-2.9,0.3-5.8,0.3-8.8
					c0-84.5-59.7-145.8-140.8-145.8c-31.1,0-60.3,8.8-87.6,22.9l12-60.2l-44.2-32c37.6-18.6,79.2-30.1,126.4-30.1
					C1456.3,1175.3,1554.1,1278.1,1554.1,1420.5z"/>
				<path class="st35" d="M1009,1488.4c-75.5,75.5-153.6,157.6-265.1,174.2l24.6-47.5l-25.1-52.4c78.8-16.3,144.2-85.6,199.3-142.3
					L1009,1488.4z"/>
				<path class="st35" d="M1233.3,1237.5l-12,60.2c-48.5,25.1-91.3,66.9-129.5,105.9l-49.8-51c-5.4-5.4-10.9-11-16.5-16.5
					c22-22.1,44.5-44.2,68.1-64.7c29.5-25.7,60.9-48.8,95.4-65.9L1233.3,1237.5z"/>
				<path class="st34" d="M768.6,1615.1l-24.6,47.5c-0.4,0.1-0.9,0.1-1.4,0.2c-12.9,1.8-26.2,2.8-40,2.8
					c-139.2,0-238.6-102.7-238.6-245.2l50.2,26l54.2-26c0,84.5,59.7,145.8,140.8,145.8c11.4,0,22.5-1.2,33.4-3.4
					c0.3-0.1,0.6-0.1,0.9-0.2L768.6,1615.1z"/>
				<path class="st35" d="M742.6,1231.5l25.1,52.3c-16.9-5.8-34.6-9.1-53.5-9.1c-82.8,0-145.8,67.9-145.8,145.8l-54.2,26l-50.2-26
					c0-130.9,106-245.2,251.8-245.2c18.3,0,35.8,2.2,52.7,6.1L742.6,1231.5z"/>
			</g>
		</g>
		<g class="st0">
			<path class="st36" d="M746,704.9l175.3-0.5c19.8,0,36,16,36,35.9l0.1,61.1c0,19.8-16,36-35.8,36l-120.5,0.4l-46,37.3h-15.8
				l23.3-37.2h-16.3c-19.8,0-36-16-36-35.8l-0.1-61.1C710.2,721,726.2,704.9,746,704.9z"/>
			<path class="st33" d="M730.2,704.9l175.3-0.5c19.8,0,36,16,36,35.9l0.1,61.1c0,19.8-16,36-35.8,36l-120.5,0.4l-46,37.3l7.5-37.2
				h-16.3c-19.8,0-36-16-36-35.8l-0.1-61.1C694.3,721,710.4,704.9,730.2,704.9z"/>
			<g class="st1">
				<path class="st37" d="M768.1,774.5l8.1,2.6c-1.2,4.5-3.3,7.8-6.2,10s-6.5,3.3-10.9,3.3c-5.5,0-10-1.9-13.5-5.6
					c-3.5-3.7-5.3-8.8-5.3-15.3c0-6.9,1.8-12.2,5.3-16s8.2-5.7,14-5.7c5,0,9.1,1.5,12.3,4.5c1.9,1.8,3.3,4.3,4.2,7.6l-8.2,2
					c-0.5-2.1-1.5-3.8-3-5.1c-1.5-1.2-3.4-1.9-5.6-1.9c-3.1,0-5.5,1.1-7.4,3.3s-2.9,5.7-2.9,10.6c0,5.2,0.9,8.9,2.8,11.1
					c1.9,2.2,4.3,3.3,7.3,3.3c2.2,0,4.1-0.7,5.7-2.1C766.3,779.8,767.4,777.5,768.1,774.5z"/>
				<path class="st37" d="M781.6,769.3c0-4.2,0.6-7.7,1.9-10.6c0.9-2.1,2.2-4,3.8-5.6c1.6-1.7,3.4-2.9,5.3-3.7
					c2.6-1.1,5.5-1.6,8.9-1.6c6.1,0,10.9,1.9,14.6,5.6c3.6,3.8,5.5,9,5.5,15.7s-1.8,11.9-5.4,15.6c-3.6,3.8-8.4,5.6-14.5,5.6
					s-11-1.9-14.6-5.6C783.4,781,781.6,775.9,781.6,769.3z M790.2,769c0,4.7,1.1,8.2,3.2,10.6c2.2,2.4,4.9,3.6,8.2,3.6
					s6-1.2,8.2-3.6c2.1-2.4,3.2-6,3.2-10.7s-1-8.2-3.1-10.6c-2.1-2.3-4.8-3.5-8.2-3.5s-6.2,1.2-8.3,3.5
					C791.2,760.8,790.2,764.3,790.2,769z"/>
				<path class="st37" d="M828,748.5h15.2c3.4,0,6,0.3,7.8,0.8c2.4,0.7,4.5,2,6.2,3.8s3,4,3.9,6.7c0.9,2.6,1.3,5.9,1.3,9.7
					c0,3.4-0.4,6.3-1.3,8.8c-1,3-2.5,5.4-4.4,7.3c-1.4,1.4-3.4,2.5-5.8,3.3c-1.8,0.6-4.3,0.9-7.4,0.9H828V748.5z M836.3,755.4v27.3
					h6.2c2.3,0,4-0.1,5-0.4c1.4-0.3,2.5-0.9,3.4-1.7s1.6-2.1,2.2-4c0.6-1.8,0.8-4.4,0.8-7.5c0-3.2-0.3-5.6-0.8-7.3
					c-0.6-1.7-1.3-3-2.4-4c-1-1-2.3-1.6-3.8-1.9c-1.2-0.3-3.4-0.4-6.8-0.4L836.3,755.4L836.3,755.4z"/>
				<path class="st37" d="M869.6,789.7v-41.2h30.5v7h-22.2v9.1h20.7v6.9h-20.7v11.2h23v6.9L869.6,789.7L869.6,789.7z"/>
			</g>
		</g>
		<g>
			<path class="st38" d="M1019.8,964.7l-136.7-0.4c-15.5,0-28,12.5-28.1,27.9l-0.1,47.6c0,15.5,12.5,28,27.9,28.1l93.9,0.3l35.9,29
				h12.3l-18.1-29h12.7c15.5,0,28-12.5,28.1-27.9l0.1-47.6C1047.8,977.3,1035.3,964.7,1019.8,964.7z"/>
			<path class="st39" d="M1032.1,964.7l-136.7-0.4c-15.5,0-28,12.5-28.1,27.9l-0.1,47.6c0,15.5,12.5,28,27.9,28.1l93.9,0.3l35.9,29
				l-5.8-29h12.7c15.5,0,28-12.5,28.1-27.9l0.1-47.6C1060.1,977.3,1047.6,964.7,1032.1,964.7z"/>
			<g class="st0">
				<path class="st40" d="M909.1,1030.8v-26.7h-9.5v-5.4h25.5v5.4h-9.5v26.7H909.1z"/>
				<path class="st40" d="M929.3,1030.8v-32.1h23.8v5.4h-17.3v7.1h16.1v5.4h-16.1v8.7h17.9v5.4L929.3,1030.8L929.3,1030.8z"/>
				<path class="st40" d="M957.5,1020.3l6.3-0.6c0.4,2.1,1.1,3.7,2.3,4.7s2.7,1.5,4.7,1.5c2.1,0,3.7-0.4,4.7-1.3
					c1.1-0.9,1.6-1.9,1.6-3.1c0-0.8-0.2-1.4-0.7-1.9c-0.4-0.5-1.2-1-2.3-1.4c-0.8-0.3-2.5-0.7-5.2-1.4c-3.5-0.9-5.9-1.9-7.3-3.2
					c-2-1.8-3-3.9-3-6.5c0-1.6,0.5-3.2,1.4-4.6c0.9-1.4,2.3-2.5,4-3.3s3.9-1.1,6.3-1.1c4,0,7.1,0.9,9.1,2.6c2,1.8,3.1,4.1,3.2,7.1
					l-6.5,0.3c-0.3-1.7-0.9-2.8-1.8-3.6c-0.9-0.7-2.3-1.1-4.1-1.1c-1.9,0-3.4,0.4-4.4,1.2c-0.7,0.5-1,1.2-1,2s0.3,1.4,1,2
					c0.8,0.7,2.8,1.4,6,2.1c3.2,0.7,5.5,1.5,7,2.3s2.7,1.9,3.5,3.3c0.9,1.4,1.3,3.1,1.3,5.1c0,1.8-0.5,3.6-1.5,5.2s-2.5,2.8-4.3,3.6
					c-1.9,0.8-4.2,1.2-7,1.2c-4.1,0-7.2-0.9-9.4-2.8C959.2,1026.6,957.9,1023.9,957.5,1020.3z"/>
				<path class="st40" d="M996.3,1030.8v-26.7h-9.5v-5.4h25.5v5.4h-9.5v26.7H996.3z"/>
			</g>
		</g>
	</g>
	<path class="st41" d="M2942.4,1652.7l-280,41.2c-36.2,5.2-100.2,4.9-140.8-1.3l-277.4-40.3c-42.2-6.2-46.6-15.3-10.3-20.5l280-41.2
		c36.2-5.2,100.2-4.9,140.8,1.3l277.4,40.3C2974.3,1638.3,2978.8,1647.4,2942.4,1652.7z"/>
	<g>
		<g>
			<g>
				<g>
					<path class="st35" d="M2298.8,939.2l36.7,231.1l21.8,137.5l45.6,288c4,26,31.8,47.1,61.5,47.1l238.1-0.6l51.1-0.1
						c4.5,0,8.8-0.4,12.7-1.4c6.8-1.6,12.9-4.3,18.1-8.1c1.9-1.4,3.6-2.9,5.2-4.5l10.1-10.3l6.8-6.9l4.6-4.8v-0.1l-5.1-5.9l-4-4.8
						l0,0l-1.7,0.9c0-0.6,0-1-0.1-1.6l-41.6-263.1L2726,1125l-4.2-26.4l-0.3-1.4l-1.7-11.4l0,0l-23.4-147.2
						c-1.2-6.9-3.9-13.4-7.9-19.5l0,0c-3.2-4.6-7.1-9-11.7-12.6c-1.3-1-2.6-2-3.9-2.9l0,0c-0.3-0.1-0.4-0.3-0.7-0.6l0,0
						c-0.3-0.1-0.4-0.3-0.7-0.4c-2.6-1.7-5.3-3.3-8.2-4.6c-1-0.4-1.9-0.9-2.9-1.3c-5.2-2.2-10.8-3.8-16.5-4.5l0,0
						c-2.9-0.4-5.9-0.6-8.8-0.6h-25.3l0,0h-19.5h-3.9h-15.3h-3.6h-13l0,0h-14.3h-57h-24.3H2431h-0.6l-68.6,0.1H2350l-4.6-2.3l0,0
						l-13.4-6.6c-0.1,0.1-0.3,0.3-0.3,0.4l0,0l-0.1,0.1l-21.5,21.7l0,0C2301.2,913.9,2296.7,925.9,2298.8,939.2z"/>
					<g>
						<g>
							<g>
								<path class="st42" d="M2497.4,1624.6c1.9,0,2.2,1.2,0.6,2.7c-1.4,1.4-4.2,2.7-5.9,2.7c-1.9,0-2.2-1.2-0.6-2.7
									C2492.9,1625.7,2495.5,1624.6,2497.4,1624.6z"/>
								<path class="st42" d="M2507.8,1624.6c1.9,0,2.2,1.2,0.6,2.7c-1.4,1.4-4.2,2.7-5.9,2.7c-1.9,0-2.2-1.2-0.6-2.7
									C2503.3,1625.7,2505.9,1624.6,2507.8,1624.6z"/>
								<path class="st42" d="M2518.2,1624.4c1.9,0,2.2,1.2,0.6,2.7c-1.4,1.4-4.2,2.7-5.9,2.7c-1.9,0-2.2-1.2-0.6-2.7
									C2513.6,1625.7,2516.3,1624.4,2518.2,1624.4z"/>
								<path class="st42" d="M2528.5,1624.4c1.9,0,2.2,1.2,0.6,2.7c-1.4,1.4-4.2,2.7-5.9,2.7c-1.9,0-2.2-1.2-0.6-2.7
									C2524,1625.7,2526.7,1624.4,2528.5,1624.4z"/>
								<path class="st42" d="M2538.9,1624.4c1.9,0,2.2,1.2,0.6,2.7c-1.4,1.4-4.2,2.7-5.9,2.7c-1.9,0-2.2-1.2-0.6-2.7
									C2534.4,1625.6,2537,1624.4,2538.9,1624.4z"/>
								<path class="st42" d="M2549.3,1624.4c1.9,0,2.2,1.2,0.6,2.7c-1.4,1.4-4.2,2.7-5.9,2.7c-1.9,0-2.2-1.2-0.6-2.7
									C2544.8,1625.6,2547.4,1624.4,2549.3,1624.4z"/>
								<path class="st42" d="M2559.7,1624.3c1.9,0,2.2,1.2,0.6,2.7c-1.4,1.4-4.2,2.7-5.9,2.7c-1.9,0-2.2-1.2-0.6-2.7
									C2555.2,1625.6,2557.8,1624.3,2559.7,1624.3z"/>
							</g>
							<g>
								<path class="st42" d="M2489.3,1632.8c1.9,0,2.2,1.2,0.6,2.7c-1.4,1.4-4.2,2.7-5.9,2.7c-1.9,0-2.2-1.2-0.6-2.7
									C2484.8,1633.9,2487.4,1632.8,2489.3,1632.8z"/>
								<path class="st42" d="M2499.7,1632.6c1.9,0,2.2,1.2,0.6,2.7c-1.4,1.4-4.2,2.7-5.9,2.7c-1.9,0-2.2-1.2-0.6-2.7
									C2495.1,1633.9,2497.8,1632.6,2499.7,1632.6z"/>
								<path class="st42" d="M2510,1632.6c1.9,0,2.2,1.2,0.6,2.7c-1.4,1.4-4.2,2.7-5.9,2.7c-1.9,0-2.2-1.2-0.6-2.7
									C2505.5,1633.9,2508.2,1632.6,2510,1632.6z"/>
								<path class="st42" d="M2520.4,1632.6c1.9,0,2.2,1.2,0.6,2.7c-1.4,1.4-4.2,2.7-5.9,2.7c-1.9,0-2.2-1.2-0.6-2.7
									C2515.9,1633.8,2518.6,1632.6,2520.4,1632.6z"/>
								<path class="st42" d="M2530.8,1632.6c1.9,0,2.2,1.2,0.6,2.7c-1.4,1.4-4.2,2.7-5.9,2.7c-1.9,0-2.2-1.2-0.6-2.7
									C2526.3,1633.8,2528.9,1632.6,2530.8,1632.6z"/>
								<path class="st42" d="M2541.2,1632.6c1.9,0,2.2,1.2,0.6,2.7c-1.4,1.4-4.2,2.7-5.9,2.7c-1.9,0-2.2-1.2-0.6-2.7
									C2536.7,1633.8,2539.3,1632.6,2541.2,1632.6z"/>
								<path class="st42" d="M2551.6,1632.5c1.9,0,2.2,1.2,0.6,2.7c-1.4,1.4-4.2,2.7-5.9,2.7c-1.9,0-2.2-1.2-0.6-2.7
									C2546.9,1633.8,2549.7,1632.5,2551.6,1632.5z"/>
							</g>
							<g>
								<path class="st42" d="M2569.6,1624.3c1.9,0,2.2,1.2,0.6,2.7c-1.4,1.4-4.2,2.7-5.9,2.7c-1.9,0-2.2-1.2-0.6-2.7
									C2565,1625.6,2567.7,1624.3,2569.6,1624.3z"/>
								<path class="st42" d="M2561.4,1632.5c1.9,0,2.2,1.2,0.6,2.7c-1.4,1.4-4.2,2.7-5.9,2.7c-1.9,0-2.2-1.2-0.6-2.7
									C2556.9,1633.8,2559.7,1632.5,2561.4,1632.5z"/>
								<path class="st42" d="M2579.4,1624.3c1.9,0,2.2,1.2,0.6,2.7c-1.4,1.4-4.2,2.7-5.9,2.7c-1.9,0-2.2-1.2-0.6-2.7
									C2575,1625.4,2577.7,1624.3,2579.4,1624.3z"/>
								<path class="st42" d="M2571.4,1632.5c1.9,0,2.2,1.2,0.6,2.7c-1.4,1.4-4.2,2.7-5.9,2.7c-1.9,0-2.2-1.2-0.6-2.7
									C2566.9,1633.7,2569.6,1632.5,2571.4,1632.5z"/>
							</g>
						</g>
						<g>
							<g>
								<path class="st42" d="M2688.8,1623.7c1.9,0,2.2,1.2,0.6,2.7c-1.4,1.4-4.2,2.7-5.9,2.7c-1.9,0-2.2-1.2-0.6-2.7
									C2684.1,1624.8,2686.9,1623.7,2688.8,1623.7z"/>
								<path class="st42" d="M2699,1623.7c1.9,0,2.2,1.2,0.6,2.7c-1.4,1.4-4.2,2.7-5.9,2.7c-1.9,0-2.2-1.2-0.6-2.7
									C2694.5,1624.8,2697.3,1623.7,2699,1623.7z"/>
								<path class="st42" d="M2709.4,1623.7c1.9,0,2.2,1.2,0.6,2.7c-1.4,1.4-4.2,2.7-5.9,2.7c-1.9,0-2.2-1.2-0.6-2.7
									C2704.9,1624.8,2707.5,1623.7,2709.4,1623.7z"/>
								<path class="st42" d="M2719.8,1623.5c1.9,0,2.2,1.2,0.6,2.7c-1.4,1.4-4.2,2.7-5.9,2.7c-1.9,0-2.2-1.2-0.6-2.7
									C2715.3,1624.8,2717.9,1623.5,2719.8,1623.5z"/>
								<path class="st42" d="M2730.2,1623.5c1.9,0,2.2,1.2,0.6,2.7c-1.4,1.4-4.2,2.7-5.9,2.7c-1.9,0-2.2-1.2-0.6-2.7
									C2725.7,1624.8,2728.3,1623.5,2730.2,1623.5z"/>
								<path class="st42" d="M2740.5,1623.5c1.9,0,2.2,1.2,0.6,2.7c-1.4,1.4-4.2,2.7-5.9,2.7c-1.9,0-2.2-1.2-0.6-2.7
									C2736,1624.7,2738.7,1623.5,2740.5,1623.5z"/>
								<path class="st42" d="M2750.9,1623.5c1.9,0,2.2,1.2,0.6,2.7c-1.4,1.4-4.2,2.7-5.9,2.7c-1.9,0-2.2-1.2-0.6-2.7
									C2746.4,1624.7,2749.1,1623.5,2750.9,1623.5z"/>
							</g>
							<g>
								<path class="st42" d="M2680.5,1631.9c1.9,0,2.2,1.2,0.6,2.7c-1.4,1.4-4.2,2.7-5.9,2.7c-1.9,0-2.2-1.2-0.6-2.7
									C2676.1,1633.1,2678.8,1631.9,2680.5,1631.9z"/>
								<path class="st42" d="M2690.9,1631.9c1.9,0,2.2,1.2,0.6,2.7c-1.4,1.4-4.2,2.7-5.9,2.7c-1.9,0-2.2-1.2-0.6-2.7
									C2686.5,1633.1,2689.2,1631.9,2690.9,1631.9z"/>
								<path class="st42" d="M2701.3,1631.8c1.9,0,2.2,1.2,0.6,2.7c-1.4,1.4-4.2,2.7-5.9,2.7c-1.9,0-2.2-1.2-0.6-2.7
									C2696.9,1633.1,2699.5,1631.9,2701.3,1631.8z"/>
								<path class="st42" d="M2711.7,1631.8c1.9,0,2.2,1.2,0.6,2.7c-1.4,1.4-4.2,2.7-5.9,2.7c-1.9,0-2.2-1.2-0.6-2.7
									C2707.2,1633.1,2709.8,1631.8,2711.7,1631.8z"/>
								<path class="st42" d="M2722.1,1631.8c1.9,0,2.2,1.2,0.6,2.7c-1.4,1.4-4.2,2.7-5.9,2.7c-1.9,0-2.2-1.2-0.6-2.7
									C2717.5,1632.9,2720.2,1631.8,2722.1,1631.8z"/>
								<path class="st42" d="M2732.4,1631.8c1.9,0,2.2,1.2,0.6,2.7c-1.4,1.4-4.2,2.7-5.9,2.7c-1.9,0-2.2-1.2-0.6-2.7
									C2727.9,1632.9,2730.6,1631.8,2732.4,1631.8z"/>
								<path class="st42" d="M2742.8,1631.8c1.9,0,2.2,1.2,0.6,2.7c-1.4,1.4-4.2,2.7-5.9,2.7c-1.9,0-2.2-1.2-0.6-2.7
									C2738.3,1632.9,2740.9,1631.8,2742.8,1631.8z"/>
							</g>
							<g>
								<path class="st42" d="M2760.8,1623.4c1.9,0,2.2,1.2,0.6,2.7c-1.4,1.4-4.2,2.7-5.9,2.7c-1.9,0-2.2-1.2-0.6-2.7
									C2756.4,1624.7,2758.9,1623.5,2760.8,1623.4z"/>
								<path class="st42" d="M2752.7,1631.6c1.9,0,2.2,1.2,0.6,2.7c-1.4,1.4-4.2,2.7-5.9,2.7c-1.9,0-2.2-1.2-0.6-2.7
									C2748.3,1632.9,2750.9,1631.6,2752.7,1631.6z"/>
								<path class="st42" d="M2770.8,1623.4c1.9,0,2.2,1.2,0.6,2.7c-1.4,1.4-4.2,2.7-5.9,2.7c-1.9,0-2.2-1.2-0.6-2.7
									C2766.3,1624.7,2768.9,1623.4,2770.8,1623.4z"/>
								<path class="st42" d="M2762.7,1631.6c1.9,0,2.2,1.2,0.6,2.7c-1.4,1.4-4.2,2.7-5.9,2.7c-1.9,0-2.2-1.2-0.6-2.7
									C2758.2,1632.9,2760.8,1631.6,2762.7,1631.6z"/>
							</g>
						</g>
					</g>
					<path class="st43" d="M2322.2,915.5l45.8,289l11.1,69.8l47.2,297.9c4.2,26,31.8,47.1,61.5,46.9l140.5-0.3l71.5-0.1h0.1h5.1
						h25.3l38.4-0.1h7.9h0.4c1.3,0,2.6,0,3.9-0.1c5.5-0.4,10.7-1.4,15.3-3.2c1.7-0.6,3.3-1.3,4.9-2.2c1.9-0.9,3.6-2,5.3-3.2
						c1.6-1.2,3.2-2.3,4.6-3.6l0,0c1.6-1.3,2.9-2.7,4.2-4.3c0.4-0.6,0.9-1,1.3-1.6c0.7-1,1.4-2,2-3c0-0.1,0.1-0.1,0.1-0.3
						c0.3-0.6,0.6-1.2,1-1.7c0.3-0.6,0.6-1.2,0.9-1.7c0.3-0.6,0.4-1.2,0.7-1.7c0,0,0-0.1,0.1-0.1c0.3-0.6,0.4-1.2,0.6-1.7v-0.1
						c0.1-0.6,0.4-1.3,0.6-1.9c0.1-0.4,0.3-0.9,0.3-1.2l0,0c1.2-4.8,1.4-10,0.6-15.5l-12.4-78.6l-9-56.8l-10.5-66.7l-1.6-9.7
						l-11.1-70.5l-8.1-51.1l-4.6-29.5l-8.4-53.1l-6.9-44.2l-2.7-17.8l-5.6-36l-4.3-27.6l-18.2-114.7c-4-26-31.8-47.1-61.5-47.1
						h-32.3l-102.2,0.1h-42.7h-22.1l-55.5,0.1H2369c-0.6,0-1.2,0-1.7,0c-0.3,0-0.6,0-0.7,0c-0.4,0-0.9,0-1.3,0s-0.9,0-1.3,0.1
						c-0.9,0.1-1.6,0.1-2.5,0.3c-0.4,0-1,0.1-1.4,0.1c-0.3,0-0.6,0.1-0.9,0.1c-0.1,0-0.3,0-0.4,0.1c-0.4,0-0.9,0.1-1.3,0.3
						c-0.1,0-0.4,0.1-0.7,0.1c-0.6,0.1-1,0.3-1.6,0.4c-0.3,0-0.4,0.1-0.7,0.1c-0.4,0.1-1,0.3-1.4,0.4h-0.1c-0.7,0.1-1.3,0.4-2,0.7
						c-0.6,0.1-1.3,0.4-1.9,0.7c-0.1,0-0.3,0-0.3,0.1c-0.6,0.3-1.2,0.4-1.7,0.7c0,0,0,0-0.1,0c-0.6,0.3-1.3,0.6-1.9,0.9
						c-5.1,2.5-9.4,5.6-12.9,9.5c-0.1,0.1-0.3,0.3-0.4,0.4l0,0l-0.1,0.1C2324,892.1,2320.4,903.2,2322.2,915.5z"/>
					<path class="st35" d="M2338,910.1l1.4,9.1l48.5,306.5l30.2,190.3l16,101.2l7.8,49.5c1.4,9.1,7.2,17.8,15.3,24.4
						c9.2,7.5,21.4,12.4,33.6,12.4l138.6-0.3h1.4h6.2h0.1h5.2h15.6h1.9h16.3h7.4l27.4-0.1l29.5-0.1l39.6-0.1c1.4,0,2.9,0,4.2-0.1
						c7.9-0.7,14.7-3.8,18.9-8.4c5.2-5.8,5.3-12.9,4.6-17.8l-18.6-117.6l-51.8-327.4l0,0L2710,958.5l0,0l-6.1-38
						c0-0.3-0.1-0.7-0.1-1.2c-2-10.5-9.7-20.4-20.1-27c-8.4-5.5-18.6-9-28.9-9h-14.7h-9.8H2608l-178.8,0.3h-2.5h-30.2h-31.3
						c-2.3,0-4.6,0.1-6.8,0.6c-4.8,0.7-9.1,2.5-12.4,4.8c-1.4,1-2.7,2-3.8,3.2C2337.4,898,2337.3,905.1,2338,910.1z"/>
					<g>
						<g>
							<path class="st37" d="M2638.1,896.7l0.7,3.8l2,10.4h33.5l-0.4-2.3l-1-4.9l0,0l-0.9-4.6l-0.4-2.3H2638.1z M2672.9,909.6H2642
								l-0.4-2.6l-1.7-9h30.9l0.9,4.6L2672.9,909.6z"/>
						</g>
						<polygon class="st37" points="2663.5,910.3 2641.4,910.3 2638.8,897.3 2661,897.3 						"/>
						<polygon class="st37" points="2677.2,908.5 2673.3,908.5 2671.4,899 2675.3,899 						"/>
					</g>
					<g>
						<polygon class="st37" points="2354.4,909.6 2350.1,909.6 2348.7,902.6 2353.1,902.6 						"/>
						<polygon class="st37" points="2363.8,909.6 2359.5,909.6 2357.5,899.3 2362,899.3 						"/>
						<polygon class="st37" points="2373.1,909.6 2368.6,909.6 2365.9,895 2370.3,895 						"/>
					</g>
					<g>
						<g>
							<path class="st37" d="M2409.5,907.8c-0.3,0-0.4-0.1-0.7-0.3c-1.7-1.4-3.3-2.2-4.8-2c-2.3,0-3.8,2-3.8,2
								c-0.3,0.3-0.7,0.4-1.2,0.1c-0.4-0.3-0.6-0.9-0.3-1.2c0-0.1,1.7-2.6,4.9-2.6c1.9,0,4,0.9,6.1,2.6c0.4,0.3,0.4,0.9,0.3,1.3
								C2409.9,907.7,2409.6,907.8,2409.5,907.8z"/>
						</g>
						<g>
							<path class="st37" d="M2411.3,904.1c-0.3,0-0.4-0.1-0.7-0.3c-2.6-2.2-5.1-3.3-7.4-3.3l0,0c-4,0-6.6,3.2-6.6,3.2
								c-0.3,0.3-0.9,0.3-1.2,0c-0.4-0.3-0.6-0.9-0.3-1.2c0.1-0.1,2.9-3.8,7.8-3.8l0,0c2.9,0,5.8,1.3,8.8,3.8
								c0.4,0.3,0.6,0.9,0.3,1.3C2411.8,904.1,2411.5,904.1,2411.3,904.1z"/>
						</g>
						<g>
							<path class="st37" d="M2391.8,900.6c-0.1,0-0.4-0.1-0.6-0.3c-0.4-0.3-0.6-0.9-0.3-1.2c0.1-0.3,4-5.6,11.1-5.6h0.1
								c4.2,0,8.5,1.9,13,5.6c0.4,0.3,0.4,0.9,0.3,1.2c-0.3,0.3-0.9,0.3-1.3,0c-4-3.5-7.9-5.2-11.8-5.2c-6.2,0.1-10,5.1-10,5.1
								C2392.3,900.5,2392.1,900.6,2391.8,900.6z"/>
						</g>
						<path class="st37" d="M2407.3,910.1c0.3,1.2-0.6,2-1.7,2s-2.3-0.9-2.5-2c-0.3-1.2,0.6-2,1.7-2
							C2406,908.1,2407,909,2407.3,910.1z"/>
					</g>
					<g>
						<path class="st44" d="M2587.4,889c6.1,4.6,7.8,11.7,3.9,15.6c-3.9,3.9-12,3.5-18.1-1.3c-6.1-4.6-7.8-11.7-3.9-15.6
							C2573.2,883.8,2581.3,884.4,2587.4,889z"/>
						<path class="st42" d="M2585.5,891.1c4.6,3.6,6.1,8.7,3.3,11.4c-2.7,2.7-8.8,2.2-13.4-1.3c-4.6-3.6-6.2-8.7-3.3-11.6
							C2574.8,886.9,2580.9,887.5,2585.5,891.1z"/>
						<path class="st44" d="M2462.9,888.6c0.1,0,0.3,0,0.6-0.1h0.3h0.1l82.6-0.1c0.1,0,0.3,0,0.4,0c2.2,0.1,4.6,0.9,6.8,2.5
							c3.8,2.9,5.1,7.2,2.7,9.5c-0.7,0.7-1.6,1.2-2.6,1.3c-0.3,0.1-0.6,0.1-0.9,0.1h-2.2l-80.6,0.3c-0.1,0-0.3,0-0.3,0
							c-2.3,0-4.9-0.9-7.2-2.6c-2.5-1.9-3.9-4.3-3.9-6.5c0-1.3,0.4-2.3,1.3-3.2C2460.7,889.2,2461.7,888.8,2462.9,888.6z"/>
						<path class="st45" d="M2540,893.1c2.2,0,4.6,0.9,6.8,2.5c2.3,1.9,3.8,4.2,3.9,6.4l-80.6,0.3c-0.1,0-0.3,0-0.3,0
							c-2.3,0-4.9-0.9-7.2-2.6c-2.5-1.9-3.9-4.3-3.9-6.5l81-0.1C2539.7,893.1,2539.9,893.1,2540,893.1z"/>
						<path class="st46" d="M2586.1,894.7c1.9,1.4,2.5,3.6,1.4,4.6c-1.2,1.2-3.6,0.9-5.5-0.6c-1.9-1.4-2.5-3.5-1.4-4.6
							C2581.8,892.9,2584.2,893.2,2586.1,894.7z"/>
						<path class="st46" d="M2578.4,892.4c1,0.9,1.4,2,0.7,2.6c-0.6,0.6-2,0.4-3-0.3c-1-0.9-1.4-2-0.7-2.6
							C2576,891.5,2577.3,891.6,2578.4,892.4z"/>
					</g>
					<path class="st42" d="M2604,1625.9c0.4-0.6,1.2-0.9,1.9-0.9h47.2c1.6,0,2.2,1.7,1,3l-6.4,7.5c-0.4,0.6-1.2,0.9-1.9,0.9h-47.2
						c-1.6,0-2.2-1.7-1-3L2604,1625.9z"/>
				</g>
				<g>
					<path class="st47" d="M2803.4,1594.2c-4.2,4.6-11,7.5-18.9,8.4l-283.8-719.5l107.7,0.3h22.2h9.8l97.2,248.1l0,0l51.8,327.4
						l18.6,117.6C2808.8,1581.4,2808.6,1588.5,2803.4,1594.2z"/>
					<path class="st47" d="M2711.3,1603h-27.4l-41,0.1l-283.9-718.8c2.2-0.4,4.5-0.6,6.8-0.6h31.2h30.2l4,10.4l7.4,18.8L2711.3,1603
						z"/>
				</g>
				<g>
					<polygon class="st43" points="2782.6,1567.5 2467.2,1567.5 2456.7,1494.6 2771.9,1494.6 					"/>
					<polygon class="st48" points="2479.1,1255.1 2410.3,1255.1 2358.8,958.1 2427.5,958.1 					"/>
					<polygon class="st43" points="2767.8,1465 2632.9,1465 2613.8,1340.2 2748.6,1340.2 					"/>
					<polygon class="st43" points="2703.6,1020.5 2636.3,1020.5 2626.8,958.1 2694.1,958.1 					"/>
					<polygon class="st49" points="2626.7,1020.5 2559.4,1020.5 2549.8,958.1 2617.1,958.1 					"/>
					<polygon class="st49" points="2714,1090.9 2646.6,1090.9 2637.1,1028.7 2704.5,1028.7 					"/>
					<polygon class="st49" points="2507.8,1398.5 2440.5,1398.5 2430.8,1336.3 2498.3,1336.3 					"/>
					<polygon class="st48" points="2560.1,1090.9 2492.6,1090.9 2483.1,1028.7 2550.6,1028.7 					"/>
					<polygon class="st48" points="2723.7,1161.6 2656.4,1161.6 2646.9,1099.2 2714.2,1099.2 					"/>
					<polygon class="st48" points="2517.5,1469.2 2450.2,1469.2 2440.7,1406.8 2508,1406.8 					"/>
					<polygon class="st43" points="2569.8,1161.6 2502.5,1161.6 2492.9,1099.2 2560.2,1099.2 					"/>
					<polygon class="st48" points="2590.4,1400.7 2523.1,1400.7 2513.6,1338.3 2580.9,1338.3 					"/>
					<polygon class="st49" points="2600.2,1471.2 2532.8,1471.2 2523.3,1408.9 2590.6,1408.9 					"/>
				</g>
			</g>
		</g>
	</g>
	<g>
		<g>
			<path class="st50" d="M2888.3,1256.6c0.9,1.2,6.6-1.6,7.5-2.7c1.2-3.5-0.9-4,0.6-7.2c-1.7,2.5-4,4.8-6.4,6.6
				C2888.6,1254.3,2886.9,1255,2888.3,1256.6z"/>
			<path class="st50" d="M2893.5,1254.3c-1.3,4-3.3,13.6-3.5,14.2c-0.3,1.9-1.6,6.8-1.4,8.2c0.1,1,1.6,3.5,2.7,4
				c1.4,0.7,2.7-0.4,2.7-0.4c1.6,1.3,4.2-3.3,4.5-2.9c1.3,1.7,4,0.4,5.3-7.1c0.1-0.4,7.1-18.1,8.8-23.8c-3.5-1.4-15.2-2.5-15.3-2.3
				C2896,1247.3,2894.7,1250.8,2893.5,1254.3z"/>
			<path class="st50" d="M2905,1143.8c-0.3,1.3-0.4,2.5-0.4,3.5c1.2,18.3-5.6,81-7.5,100.4c6.2-0.7,11.6-0.9,15.5-0.3
				c2.3-31.8,22.2-107.2,10.3-111.6C2911.9,1131.5,2906.4,1138.2,2905,1143.8z"/>
			<path class="st51" d="M2817.7,1084.4c13.7,10.5,82.6,71.1,84.1,72.4c1.2,7.8-6.8,75.7-7.8,86.9l22.2,3.8
				c5.6-26.7,23.1-89.5,13.9-108.9c-9.2-20.4-51.1-89.4-70.5-88.2C2840.4,1051.5,2816.7,1083.6,2817.7,1084.4z"/>
		</g>
		<path class="st52" d="M2880.5,1619.6l-11.8-5.5c0,0-2.2,3.9-4,6.4c-3.5,4.9-21.7,9.7-21.2,16c0.3,3.3,7.4,5.6,13,5.5
			c5.6-0.3,10.5-0.9,13.4-2.9c3.6-2.5,10.5-5.1,11.6-7.1c1.9-3.6-0.1-7.7-0.1-7.7C2881.6,1620.9,2880.5,1619.6,2880.5,1619.6z"/>
		<path class="st50" d="M2866.3,1613.7c0,0,1.2,3-1.6,6.9c0,0-0.7,3.2,3.8,5.2c2.6,1.2,12.9-1.3,12.9-1.3c0.3-3.6,0.1-9.1,0.1-9.1
			L2866.3,1613.7z"/>
		<path class="st53" d="M2879.7,1250.5c-27.6-4.6-99.1,10.7-108.6,7.4c-0.4,7.9,37.8,102.5,53.6,200.2
			c13.6,83.5,40.9,158.4,40.9,158.4c0.1,0.6,11.7,5.8,16.9-0.9c0,0-19.8-82.9-10.3-161.7C2879.1,1396.5,2883.7,1366.3,2879.7,1250.5
			z"/>
		<path class="st52" d="M2789.3,1621.7l-11.4-6.4c0,0-2.5,3.6-4.5,6.1c-3.9,4.6-22.4,7.9-22.4,14.4c0,3.3,6.9,6.2,12.6,6.5
			c5.6,0.3,10.3-0.7,13.6-1.9c3.3-1.2,10.8-4.2,12.1-6.2c2-3.5,0.4-7.5,0.4-7.5C2790.1,1623,2789.3,1621.7,2789.3,1621.7z"/>
		<path class="st50" d="M2774.5,1614.9c0,0,1.7,2.7-1.2,6.4c0,0,0,2.5,4.3,4.8c2.5,1.3,12,0.4,12,0.4c0.6-3.6,0.3-8.8,0.3-8.8
			L2774.5,1614.9z"/>
		<path class="st54" d="M2741.9,1241.1c6.4,2.5,26.1,5.1,47.7,6.2v-0.9c0,0,80.4-12.9,69,21.4c-12.1,36.2-23.8,53.1-23.8,53.1
			c-5.9,4.2-28.4,67-39.1,135c-12.4,78.7-2.6,162-2.6,162c-6.2,6.2-18.5,0.1-18.6-0.4c0,0-23.7-77.4-31.3-162
			C2734,1357.1,2740.8,1249.1,2741.9,1241.1z"/>
		<path class="st37" d="M2875.6,1214.3c-28.6,3.6-57,7.7-86.1,8.2c-17.9,0.4-34.9-1.6-50.8-5.9c0.1,26.7-6.2,37.4-18.2,44.6
			c8.5,29.5,26.3,31,41,35.8c38.7,12.7,135.5-16.3,138.2-16.5c-0.1-21.2-2-45.2-4.8-69.2C2888.6,1212.5,2882.1,1213.4,2875.6,1214.3
			z"/>
		<path class="st55" d="M2816.3,1000.7c-2,1.4-22.7,13-28.6,12.1c0,1.6,4,19.1,0.3,28.3c1.7,8.7,25.7,8.7,32.3-6.1
			C2817.6,1031,2815.1,1008.6,2816.3,1000.7z"/>
		<path class="st45" d="M2844.7,1040.8c-6.2-1.3-24.4-5.8-24.4-5.8s-3.6,4.5-14.7,6.6c-10,1.9-17.6-1.2-17.6-1.2s-21.1,5.8-25,7.8
			c-14.9,7.8-15,13.3-15.9,31.6c-0.4,8.5-1.6,145.9-24.7,175.9c0.7,1.2,10,12.6,29.2,17l4.6-37l4.2,38.7
			c44.8,8.5,79.1-7.2,115.1-12.1l3.5-48.5l10.4,46.8c3.5-0.4,6.6-0.7,9.4-0.9c-0.4-74.1-23.4-185.6-24.4-188.9
			C2869.9,1056.6,2863.2,1044.7,2844.7,1040.8z"/>
		<path class="st50" d="M2576.6,1109.7c-1.3,0.7,1,6.8,2,7.7c3.3,1.4,4.2-0.6,7.1,1.2c-2.3-1.9-4.5-4.5-6.1-6.9
			C2578.9,1110.1,2578.4,1108.4,2576.6,1109.7z"/>
		<path class="st50" d="M2578.4,1115.2c-3.9-1.7-13.3-4.5-13.9-4.6c-1.9-0.4-6.5-2.2-8.1-2.2c-1,0-3.6,1.3-4.3,2.3
			c-0.9,1.3,0.3,2.7,0.3,2.7c-1.4,1.4,2.9,4.5,2.5,4.8c-1.9,1.2-0.7,4,6.5,5.9c0.4,0.1,17.5,8.5,23.1,10.8c1.7-3.3,3.8-15,3.6-15
			C2585.1,1118.2,2581.8,1116.5,2578.4,1115.2z"/>
		<path class="st49" d="M2687.6,1136c-1.3-0.4-2.5-0.7-3.5-0.7c-18.3-0.4-80.3-12.6-99.4-16c0.1,6.4,0,11.6-1,15.5
			c31.3,5.1,104.8,31.3,110.3,19.9C2699.3,1143.9,2693.1,1137.9,2687.6,1136z"/>
		<path class="st45" d="M2754.2,1054.3c-11.7,12.9-77.8,76.1-79.3,77.6c-7.9,0.4-75-13.3-85.9-15.2l-5.6,21.8
			c26.1,7.9,87.2,30.6,107.3,23.3c21.1-7.5,93.4-43.3,94-62.7C2785.1,1079.7,2755.1,1053.2,2754.2,1054.3z"/>
		<path class="st50" d="M2798.1,971.5c-10.5-1.9-20.9-0.6-24.6,9.1c-1.3,3.5-3.5,36,13.3,42.7c7.1,2.9,22.5-7.9,24-16.3
			c0,0,2.2-11.4,2.2-11.6C2815.1,984.2,2809.4,973.7,2798.1,971.5z"/>
		<path class="st52" d="M2824.5,957.9c-17.6-22.5-57.8-11.6-62.5,10.7c-1,4.9,1.4,17.6,49.5,15.9c4.2,9,3.2,27,3.2,27
			C2830.7,1001.7,2837.9,975.1,2824.5,957.9z"/>
		<path class="st50" d="M2815.6,991.1c-1-0.4-3.2-0.6-5.1-0.1c-0.4,4-0.1,10.7,0,14c2.9,0.1,7.4-2.7,8.4-5.5
			C2819.7,996.8,2818.3,992.2,2815.6,991.1z"/>
	</g>
	<g>
		<path class="st56" d="M2382.3,1258.9c2,14.3-28.3,365.4-28.3,365.4c-0.1,0.6-9,6.1-16.5,0.4c0,0-5.6-81-16.6-157.3
			c-9.4-66-7.9-128.4-13.3-132.6V1265C2334.5,1266.7,2373.4,1262.8,2382.3,1258.9z"/>
		<path class="st52" d="M2335.8,1616.8c2,0.7,10,0.6,11.7,0.3c0.1-1.2-0.1-2.9,0.6-4.5c1.9-0.4,5.5-3,7.4-3.2
			c-0.7,3.8-1.7,23.4,2,26.3c4.6,3.5,13.6,3.6,14.9,3.6c7.1,0,8.5,4,8.5,5.5c0,2.6-1.7,3.6-3.6,3.6c-8.5,0-28.3-0.1-34.2-0.1
			c-3.6,0-7.4,0.4-10.4-3c-1-1.3-1.2-3.5-0.4-5.5C2333.4,1637.3,2335.5,1622.5,2335.8,1616.8z"/>
		<path class="st57" d="M2249.7,1258.9c8.8,3.9,71.9,15.7,98.8,13.9c0,0-1.2,35.2-6.9,56.8c-8.8,33.6-20.5,89.5-26.3,118.6
			c-14.7,74.7-42.2,173.3-42.2,173.3c-7.5,4.3-16.6-2.5-16.8-3c0,0,0.7-135.2,6.6-166.5C2268.2,1426,2248.7,1266.6,2249.7,1258.9z"
			/>
		<path class="st52" d="M2257,1614.3c2,0.7,10,1.2,11.7,0.9c0.1-1.2,0-2.9,0.9-4.5c1.9-0.4,5.6-2.7,7.7-2.7
			c-1,3.8-3.2,23.3,0.6,26.4c4.5,3.8,13.3,4.3,14.7,4.5c7.1,0.4,8.4,4.5,8.2,6.1c-0.1,2.6-1.9,3.5-3.9,3.3c-8.5-0.4-28.2-1.7-34.1-2
			c-3.6-0.3-7.4,0-10.1-3.6c-1-1.3-1-3.6-0.1-5.5C2253.4,1634.7,2256.4,1620.1,2257,1614.3z"/>
		<path class="st52" d="M2371.5,986.8c-9.4,0-13-10.5-20.9-13.9c-12.3-5.3-29.6-4.5-39,6.1c-2.6,2.9-4.6,8.4-7.9,10.3
			c-5.5,3.2-14.2,3.2-17.9,9.2c-8.8,14,2,23.4-5.5,37.7c-4.9,9.7-12.9,10.3-20.5,17c-7.8,6.9-10.7,16.5-6.4,25.7
			c1.9,4,9.5,12.1,2.7,15.2c-1.3,0.6-3.3,1-4.8,1.3c-13.1,2.3-26.3,10.3-32.2,22.4c-15.5,31.2,13.1,57.5,40,68.2
			c21.5,8.7,57.6,14.2,79.3,6.2c32.2-11.6,60.8-39.7,60.4-79c-0.1-9.5-7.4-19.5-3.6-28.9c2.5-6.2,6.9-11.1,10.1-17
			c3.3-6.2,4.9-13.1,4.6-20.1c-0.1-4-1-8.1-2.9-11.6c-3.6-6.8-11-7.8-15.7-13.1c-3.2-3.6-4.9-8.2-5.2-13c-0.1-5.1,2.6-9.7,1-14.6
			C2384.9,988.4,2377.5,986.8,2371.5,986.8z"/>
		<path class="st50" d="M2493.9,1099.6c1,1-2.5,5.9-3.6,6.5c-3.3,0.4-4.9-0.9-7.9,0.1c2.6-1.2,6.2-3.6,8.4-5.6
			C2491.6,1099.5,2492.5,1097.9,2493.9,1099.6z"/>
		<path class="st50" d="M2490.9,1104.1c4-0.6,13-1,13.7-1c1.9,0,6.5-0.6,7.8-0.1c0.9,0.3,3,2,3.3,3.2c0.6,1.4-0.9,2.5-0.9,2.5
			c1,1.7-3.6,3.3-3.3,3.8c1.4,1.4-0.1,3.8-7.4,3.9c-0.4,0-17.8,3.8-23.4,4.6c-0.7-3.5-7.2-12.6-7.1-12.6
			C2477.1,1107.3,2487.6,1104.5,2490.9,1104.1z"/>
		<path class="st50" d="M2416.3,1199.1c0.1-1.2,0.6-2.3,1-3.2c8.1-15.2,47.9-66,54-83c5.1,3,9.4,5.3,13,6.4
			c-10.4,28-44,94.7-56,93.9C2417.4,1212.3,2415.4,1204.5,2416.3,1199.1z"/>
		<path class="st34" d="M2351.7,1136c2.7-5.2,25.4-25.3,31.2-25.9c1.3-0.1,2.6,0.3,3.5,1.3c5.5,5.9,13.9,20.2,22.8,35.2
			c6.1,10.1,12.3,20.5,17.9,29.2c2-2.9,4.2-5.8,6.5-8.8c13.1-18.1,29.6-40.6,33.1-50.3l19.2,8.8c-9.2,23.8-36.7,77.4-51.8,89.8
			c-0.1,0.1-1.6,0.9-3.3,1.9c-3.9,2-8.7,1.4-12-1.4C2400.7,1199.4,2345.2,1148.3,2351.7,1136z"/>
		<polygon class="st50" points="2473.9,1108.1 2471.3,1113 2479.6,1119.7 2484,1117.5 		"/>
		<path class="st37" d="M2383,1256.4l16,22.8c0,0-13.7,13.9-26.1,13l-5.3-11l-1.4,13.3c-63.8,19.8-121-3.9-121-3.9
			c-2.5-20.5,1.9-53.6,1.9-53.6L2383,1256.4z"/>
		<path class="st55" d="M2332.9,1048.3c1.7,1.4,13.4,10.7,19.5,13c-0.1,1.6-2.7,22.1,1.4,26.3c-2.2,8.1-24.7,6.6-29.9-7.5
			C2326.9,1076.4,2331.5,1056.1,2332.9,1048.3z"/>
		<path class="st34" d="M2241.5,1266.1c28.2,26.3,125.1,6.1,141.4-0.4c12-4.8-2.6-96.2,6.6-134.7c2.6-11.1,0.7-25.1-12.7-34.1
			c-3.5-2.3-22.8-9.7-22.8-9.7s-4.5,3.3-10,3.3c-10.1,0-19.9-11-19.9-11s-17.5,3.5-23.3,4.5c-17.6,3-26.6,18.1-31.6,32.3
			c-1.9,5.3-3.9,12.4-5.8,20.4c-3,12.7-6.1,28-8.8,43.5C2247.1,1222.2,2241.5,1266.1,2241.5,1266.1z"/>
		<path class="st50" d="M2333.9,1041.8c1.4-10.8,9.1-21.7,20.1-21.7c10.3,0,18.2,4.8,19.8,14.4c0.6,3.5-4.8,38.7-19.8,38.7
			c-7.4,0-22.2-13.3-21.5-21.4C2332.5,1051.9,2333.4,1045.3,2333.9,1041.8z"/>
		<path class="st31" d="M2254.5,1180.2l59.1-50.7l-50.4,7.1C2260.3,1149.4,2257.4,1164.7,2254.5,1180.2z"/>
		<g>
			<path class="st50" d="M2276.2,1239.3c0.6,1.3-4.2,4.9-5.5,5.1c-3.3-0.6-3-2.6-6.2-2.6c2.9-0.3,5.8-1.3,8.4-2.5
				C2274.1,1238.4,2275.4,1237.2,2276.2,1239.3z"/>
			<path class="st50" d="M2262,1241.6c3.2,0.1,6.6,0.4,10,1c4,0.6,12.7,3,13.3,3.2c1.7,0.6,6.4,1.4,7.5,2.3c0.7,0.6,2.2,2.9,2.2,4
				c0,1.6-1.6,2-1.6,2c0.4,1.9-4.5,2-4.3,2.6c0.9,1.9-1.3,3.6-8.2,1.4c-0.4-0.1-18.1-1.9-23.7-2.9
				C2257.7,1251.8,2261.7,1241.6,2262,1241.6z"/>
			<path class="st50" d="M2290.3,1096.7c4.9,3.2,24.4,29.9,22.1,31.6c-12.6,9.7-59.9,29.5-80.9,43.3c-25.6,16.9-28.3-6.9-22.1-14.6
				C2225.5,1137,2279.1,1089.5,2290.3,1096.7z"/>
			<path class="st50" d="M2224,1155.8c0.9,0.9,1.6,1.6,2.2,2.5c8.8,14.7,31.6,75.2,43.2,89.1c-5.2,2.7-9.4,5.3-12.1,7.9
				c-18.6-23.4-58.3-86.6-51.4-96.5C2212.2,1149.9,2220,1152.2,2224,1155.8z"/>
			<path class="st34" d="M2208.3,1150.7c13-15.7,69.3-67.9,84-58.1c4.9,3.3,22.8,27.7,22.8,33.5c0,1.3-0.6,2.6-1.6,3.3
				c-5.8,4.3-57.5,29-75.1,38.6c1.6,4.3,3.2,9.1,4.8,14c7.2,21.2,16.2,47.7,22.1,56l-18.2,10.7c-13.6-20.4-40.4-67.9-44-89.1
				c-0.3-1.4,0.1-3,1.2-4.2C2206,1153.6,2208.3,1150.9,2208.3,1150.7z"/>
		</g>
	</g>
</g>
<g id="Layer_2">
</g>
</svg>
